<svg id="Layer_1" data-name="Layer 1" xmlns="http://www.w3.org/2000/svg" viewBox="0 0 821.26 760.43" style="width: 30vw;">
    <defs>
        <style>
        .cls-1 {
            fill: #f3f1f0;
            stroke-width: 0px;
        }
        </style>
    </defs>
    <g >
        <path id="path" style="display: none;" class="cls-1" fill="none" stroke="#fff" stroke-width="1px" d="m168.14,103.87s.05,7.58.05,7.58c.45,1.5.76,3.14,1.01,4.73,1.74,10.89,2.5,22.74,3.4,33.77,2.08,25.65,6.21,89.52,8.06,116.07.83,12.68,3.06,45.75,3.84,58.05.11,2.7.6,7.03.41,9.78-.59,17.14-15.12,30.1-30.41,35.44-12.32,4.45-25.63,4.89-38.59,5.16-12.96-.24-26.27-.65-38.62-5.01-12.28-4.39-23.9-12.98-28.64-25.54-1.77-4.65-2.44-9.7-2.14-14.65,0,0,.24-4.84.24-4.84.59-12.16,2.24-45.49,2.88-58.1,2.32-36.94,3.95-99.4,8.21-135.49.72-5.36,1.57-13.92,2.51-19.22,0,0,.05-7.73.05-7.73,0,0,.05,7.73.05,7.73-.83,5.39-1.66,13.71-2.27,19.26-3.69,35.81-4.9,98.84-6.98,135.53-.56,12.7-2.09,45.81-2.66,58.11-.06,2.59-.45,6.98-.21,9.58,1.83,23.62,27,36.15,48.33,37.41,15.94,1.54,32.22,1.39,48.01-1.4,15.2-3.13,30.96-11.93,36.6-27.12,1.65-4.46,2.16-9.2,1.77-13.95,0,0-.31-4.84-.31-4.84-.78-12.14-2.84-45.46-3.62-58.06-2.22-32.17-5.45-94.39-7.73-125.8-.52-8.06-1.2-16.12-2.33-24.11-.25-1.6-.5-3.2-.95-4.76,0,0,.05-7.58.05-7.58h0Z"/>
        <path class="cls-1" d="m114.26,108.67c13.64-.05,27.31-.45,40.86-2.01,3.36-.42,6.75-.85,10.02-1.71.85-.25,1.94-.53,2.49-1.13-.62-.55-1.66-.81-2.52-1.04-7.74-1.65-15.73-1.86-23.62-2.28-9.07-.38-18.16-.54-27.24-.53-9.08-.01-18.17.15-27.24.53-8.4.55-17.04.47-25.18,2.76-.25.09-.48.2-.67.33-.21.11-.3.29-.28.23.58.59,1.64.87,2.49,1.12,16.67,3.5,33.91,3.46,50.88,3.73h0Zm0,0c-13.65-.02-27.32-.24-40.93-1.38-4.25-.54-8.77-.57-12.72-2.4-3.05-2.49,4.42-3.58,5.89-3.91,15.77-2.57,31.81-2.87,47.76-3,15.94.13,31.98.45,47.76,3.01,1.69.35,8.87,1.45,5.89,3.9-3.95,1.83-8.47,1.86-12.72,2.4-13.61,1.14-27.28,1.37-40.93,1.39h0Z"/>
        <path class="cls-1" d="m114.26,106.4c11.41-.04,22.84-.28,34.21-1.2,3.57-.4,7.29-.42,10.71-1.55.08-.02.03-.13-.03.17.05.3.1.19.02.18-.06-.03-.15-.07-.25-.1-7.16-1.42-14.59-1.15-21.87-1.45-7.6-.16-15.2-.22-22.8-.21-7.6-.01-15.2.06-22.8.21-7.28.31-14.7.03-21.87,1.45-.1.03-.18.07-.25.1-.08.01-.03.12.02-.18-.06-.3-.11-.19-.03-.17,3.42,1.13,7.14,1.15,10.71,1.55,11.38.92,22.8,1.17,34.21,1.2h0Zm0,0c-11.42,0-22.84-.08-34.26-.57-3.59-.25-7.25-.25-10.75-1.14-.39-.16-.84-.3-.89-.86.03-.41.24-.54.48-.7,3.54-1.28,7.43-1.25,11.14-1.68,11.4-.92,22.85-1.17,34.28-1.2,11.43.03,22.88.29,34.28,1.21,2.86.24,5.72.49,8.56.97.95.21,2.01.27,2.82.89,1.46,1.89-4.71,1.94-5.7,2.14-13.3.96-26.64.89-39.97.95h0Z"/>
        <path id="glassbottom" style="stroke-width:1px;" class="cls-1" d="m166.88,361.95c.94,8.21-17.14,12.11-23.27,13.44-21.87,3.95-50.01,4.17-71.05-3.5-4.26-1.8-11-4.94-9.61-10.69,0,0,.42-1.31.42-1.31l1.1.78c14.6,10.63,33.37,11.58,50.84,12.03,17.62-.05,36.36-.75,51.57-10.75h0Zm0,0c-14.8,10.73-33.88,11.89-51.57,12.26-17.83-.08-36.95-1.17-51.99-11.92,0,0,1.52-.53,1.52-.53-.9,4.33,5.16,6.87,8.44,8.35,20.22,7.52,48.89,7.68,70.14,4.3,6.12-1.11,24.07-4.43,23.45-12.45h0Z"/>
    </g>
    <g >
        <path class="cls-1" d="m820.86,409.79c-.04,54.74.27,138.44.39,192.95,0,0,0,2.54,0,2.54.03.85,0,1.89-.5,2.66-.71,1.24-2.14,1.97-3.54,1.95,0,0-1.27,0-1.27,0-58.29.25-144.59.45-203.11.52-10.66-.02-28.18.06-38.74.04-2.45.03-4.67-2.28-4.43-4.72,0,0,0-1.27,0-1.27,0,0,0-5.08,0-5.08v-10.16c0-49.98.23-132.69.43-182.8.56-3.32,4.84-3.47,7.31-4.69,0,0,7.89-2.9,7.89-2.9s15.78-5.8,15.78-5.8c0,0,.09-.03.09-.03,0,0,.09,0,.09,0,45.12.26,138.58.74,182.72.85,0,0,3.51.01,3.51.01.58.01,1.18.03,1.75.23,2.98,1.36,8.28,3.62,11.28,4.91,2.39.79,7.55,2.73,9.93,3.53,0,0,6.62,2.36,6.62,2.36,2.85,1.02,3.93,1.13,3.79,4.89h0Zm0,0c0-3.2-.31-3.82-3.79-4.88,0,0-6.63-2.34-6.63-2.34-2.35-.79-7.71-2.75-9.94-3.51-2.09-.79-7.51-3.28-9.68-4.18-1.06-.52-2.12-.99-3.33-.91,0,0-3.51,0-3.51,0-8.76.07-60.32-.11-70.28-.07.17.07-113.13.09-112.27.07,0,0-15.76,5.91-15.76,5.91l-7.88,2.95c-1.31.49-2.63,1-3.94,1.46-1.24.42-2.4,1.14-2.55,2.23.15,12.54.27,174.15.35,182.7.03,3.02,0,12.23,0,15.23,0,0,0,1.27,0,1.27,0,.48,0,.67.09.98.29,1.01,1.34,1.77,2.4,1.77,0,0,.61,0,.61,0,10.2,0,27.68.05,38.08.05,58.62-.04,144.72.36,203.11.52,0,0,1.27,0,1.27,0,.4,0,.76-.05,1.12-.16.71-.23,1.35-.72,1.73-1.36.42-.71.43-1.41.41-2.25,0,0,0-2.54,0-2.54.26-54.41.28-138.32.38-192.95h0Z"/>
        <path class="cls-1" d="m583.86,405.22c70.98.19,151.64-.07,222.52.33,0,0-.41,1.91-.41,1.91,0,0-23.96-10.59-23.96-10.59,0,0,.39.08.39.08-49.58-.11-125.83-.39-174.84-.87-6.32,2.5-17.07,6.49-23.7,9.14h0Zm0,0c6.69-2.65,16.83-6.87,23.66-9.63,21.84-.16,65.65-.39,87.47-.45.33.1,87.33-.19,87.62-.11,0,0,.19.08.19.08,0,0,23.98,10.52,23.98,10.52,0,0,4.44,1.95,4.44,1.95-72.67-.45-154.63-1.67-227.36-2.36h0Z"/>
        <path class="cls-1" d="m584.5,412.47c1.52,0,2.49,1.33,2.29,2.79,0,0,.02,4.1.02,4.1.05,26.91.54,63.24.82,90.28.03,7.73.1,21.61.13,29.24.02,4.27-6.51,4.35-6.51,0,.03-7.58.1-21.51.13-29.24.27-27.08.77-63.32.82-90.28,0,0,.02-4.1.02-4.1-.2-1.4.78-2.83,2.29-2.79h0Zm0,0c-1.52.02-2.46,1.34-2.25,2.79,0,0,.02,4.1.02,4.1.05,26.91.55,63.24.82,90.28.02,5.31.09,19.46.11,24.62,0,0,.02,4.1.02,4.1,0,0,0,.51,0,.51,0,.2,0,.21.02.32.11.56.68.96,1.26.96.71,0,1.34-.54,1.29-1.28,0,0,0-.51,0-.51,0,0,.02-4.1.02-4.1.02-5.1.09-19.31.11-24.62.27-27.08.77-63.32.82-90.28,0,0,.02-4.1.02-4.1.22-1.4-.75-2.82-2.25-2.79h0Z"/>
        <path class="cls-1" d="m592.68,412.47c1.52,0,2.49,1.33,2.29,2.79,0,0,.02,4.1.02,4.1.05,26.91.54,63.24.82,90.28.03,7.73.1,21.61.13,29.24.02,4.27-6.51,4.35-6.51,0,.03-7.58.1-21.51.13-29.24.27-27.08.77-63.32.82-90.28,0,0,.02-4.1.02-4.1-.2-1.4.78-2.83,2.29-2.79h0Zm0,0c-1.52.02-2.46,1.34-2.25,2.79,0,0,.02,4.1.02,4.1.05,26.91.55,63.24.82,90.28.02,5.31.09,19.46.11,24.62,0,0,.02,4.1.02,4.1v.51c0,.2,0,.21.03.32.11.56.68.96,1.26.96.71,0,1.34-.54,1.29-1.28,0,0,0-.51,0-.51l.02-4.1c.02-5.1.09-19.31.11-24.62.27-27.08.77-63.32.82-90.28,0,0,.02-4.1.02-4.1.22-1.4-.75-2.82-2.25-2.79h0Z"/>
        <path class="cls-1" d="m600.87,412.47c1.52,0,2.49,1.33,2.29,2.79,0,0,.02,4.1.02,4.1.05,26.91.54,63.24.82,90.28.03,7.73.1,21.61.13,29.24.02,4.27-6.51,4.35-6.51,0,.03-7.58.1-21.51.13-29.24.27-27.08.77-63.32.82-90.28,0,0,.02-4.1.02-4.1-.2-1.4.78-2.83,2.29-2.79h0Zm0,0c-1.52.02-2.46,1.34-2.25,2.79,0,0,.02,4.1.02,4.1.05,26.91.55,63.24.82,90.28.02,5.31.09,19.46.11,24.62,0,0,.02,4.1.02,4.1v.51c0,.2,0,.21.03.32.11.56.68.96,1.26.96.71,0,1.34-.54,1.29-1.28,0,0,0-.51,0-.51s.02-4.1.02-4.1c.02-5.1.09-19.31.11-24.62.27-27.08.77-63.32.82-90.28,0,0,.02-4.1.02-4.1.22-1.4-.75-2.82-2.25-2.79h0Z"/>
        <path class="cls-1" d="m609.06,412.47c1.52,0,2.49,1.33,2.29,2.79,0,0,.02,4.1.02,4.1.05,26.91.54,63.24.82,90.28.03,7.73.1,21.61.13,29.24.02,4.27-6.51,4.35-6.51,0,.03-7.58.1-21.51.13-29.24.27-27.08.77-63.32.82-90.28,0,0,.02-4.1.02-4.1-.2-1.4.78-2.83,2.29-2.79h0Zm0,0c-1.52.02-2.46,1.34-2.25,2.79,0,0,.02,4.1.02,4.1.05,26.91.55,63.24.82,90.28.02,5.31.09,19.46.11,24.62,0,0,.02,4.1.02,4.1,0,0,0,.51,0,.51,0,.2,0,.21.02.32.11.56.68.96,1.26.96.71,0,1.34-.54,1.29-1.28,0,0,0-.51,0-.51,0,0,.02-4.1.02-4.1.02-5.1.09-19.31.11-24.62.27-27.08.77-63.32.82-90.28,0,0,.02-4.1.02-4.1.22-1.4-.75-2.82-2.25-2.79h0Z"/>
        <path class="cls-1" d="m617.24,412.47c1.52,0,2.49,1.33,2.29,2.79,0,0,.02,4.1.02,4.1.05,26.91.54,63.24.82,90.28.03,7.73.1,21.61.13,29.24.02,4.27-6.51,4.35-6.51,0,.03-7.58.1-21.51.13-29.24.27-27.08.77-63.32.82-90.28,0,0,.02-4.1.02-4.1-.2-1.4.78-2.83,2.29-2.79h0Zm0,0c-1.52.02-2.46,1.34-2.25,2.79,0,0,.02,4.1.02,4.1.05,26.91.55,63.24.82,90.28.02,5.31.09,19.46.11,24.62,0,0,.02,4.1.02,4.1v.51c0,.2,0,.21.03.32.11.56.68.96,1.26.96.71,0,1.34-.54,1.29-1.28,0,0,0-.51,0-.51l.02-4.1c.02-5.1.09-19.31.11-24.62.27-27.08.77-63.32.82-90.28,0,0,.02-4.1.02-4.1.22-1.4-.75-2.82-2.25-2.79h0Z"/>
        <path class="cls-1" d="m625.43,412.47c1.52,0,2.49,1.33,2.29,2.79,0,0,.02,4.1.02,4.1.05,26.91.54,63.24.82,90.28.03,7.73.1,21.61.13,29.24.02,4.27-6.51,4.35-6.51,0,.03-7.58.1-21.51.13-29.24.27-27.08.77-63.32.82-90.28,0,0,.02-4.1.02-4.1-.2-1.4.78-2.83,2.29-2.79h0Zm0,0c-1.52.02-2.46,1.34-2.25,2.79,0,0,.02,4.1.02,4.1.05,26.91.55,63.24.82,90.28.02,5.31.09,19.46.11,24.62,0,0,.02,4.1.02,4.1v.51c0,.2,0,.21.03.32.11.56.68.96,1.26.96.71,0,1.34-.54,1.29-1.28,0,0,0-.51,0-.51l.02-4.1c.02-5.1.09-19.31.11-24.62.27-27.08.77-63.32.82-90.28,0,0,.02-4.1.02-4.1.22-1.4-.75-2.82-2.25-2.79h0Z"/>
        <path class="cls-1" d="m633.62,412.47c1.52,0,2.49,1.33,2.29,2.79,0,0,.02,4.1.02,4.1.05,26.91.54,63.24.82,90.28.03,7.73.1,21.61.13,29.24.02,4.27-6.51,4.35-6.51,0,.03-7.58.1-21.51.13-29.24.27-27.08.77-63.32.82-90.28,0,0,.02-4.1.02-4.1-.2-1.4.78-2.83,2.29-2.79h0Zm0,0c-1.52.02-2.46,1.34-2.25,2.79,0,0,.02,4.1.02,4.1.05,26.91.55,63.24.82,90.28.02,5.31.09,19.46.11,24.62,0,0,.02,4.1.02,4.1v.51c0,.2,0,.21.03.32.11.56.68.96,1.26.96.71,0,1.34-.54,1.29-1.28,0,0,0-.51,0-.51,0,0,.02-4.1.02-4.1.02-5.1.09-19.31.11-24.62.27-27.08.77-63.32.82-90.28,0,0,.02-4.1.02-4.1.22-1.4-.75-2.82-2.25-2.79h0Z"/>
        <path class="cls-1" d="m641.8,412.47c1.52,0,2.49,1.33,2.29,2.79,0,0,.02,4.1.02,4.1.05,26.91.54,63.24.82,90.28.03,7.73.1,21.61.13,29.24.02,4.27-6.51,4.35-6.51,0,.03-7.58.1-21.51.13-29.24.27-27.08.77-63.32.82-90.28,0,0,.02-4.1.02-4.1-.2-1.4.78-2.83,2.29-2.79h0Zm0,0c-1.52.02-2.46,1.34-2.25,2.79,0,0,.02,4.1.02,4.1.05,26.91.55,63.24.82,90.28.02,5.31.09,19.46.11,24.62,0,0,.02,4.1.02,4.1v.51c0,.2,0,.21.03.32.11.56.68.96,1.26.96.71,0,1.34-.54,1.29-1.28,0,0,0-.51,0-.51l.02-4.1c.02-5.1.09-19.31.11-24.62.27-27.08.77-63.32.82-90.28,0,0,.02-4.1.02-4.1.22-1.4-.75-2.82-2.25-2.79h0Z"/>
        <path class="cls-1" d="m649.99,412.47c1.52,0,2.49,1.33,2.29,2.79,0,0,.02,4.1.02,4.1.05,26.91.54,63.24.82,90.28.03,7.73.1,21.61.13,29.24.02,4.27-6.51,4.35-6.51,0,.03-7.58.1-21.51.13-29.24.27-27.08.77-63.32.82-90.28,0,0,.02-4.1.02-4.1-.2-1.4.78-2.83,2.29-2.79h0Zm0,0c-1.52.02-2.46,1.34-2.25,2.79,0,0,.02,4.1.02,4.1.05,26.91.55,63.24.82,90.28.02,5.31.09,19.46.11,24.62,0,0,.02,4.1.02,4.1,0,0,0,.51,0,.51,0,.2,0,.21.02.32.11.56.68.96,1.26.96.71,0,1.34-.54,1.29-1.28,0,0,0-.51,0-.51l.02-4.1c.02-5.1.09-19.31.11-24.62.27-27.08.77-63.32.82-90.28,0,0,.02-4.1.02-4.1.22-1.4-.75-2.82-2.25-2.79h0Z"/>
        <path class="cls-1" d="m658.17,412.47c1.52,0,2.49,1.33,2.29,2.79,0,0,.02,4.1.02,4.1.05,26.91.54,63.24.82,90.28.03,7.73.1,21.61.13,29.24.02,4.27-6.51,4.35-6.51,0,.03-7.58.1-21.51.13-29.24.27-27.08.77-63.32.82-90.28,0,0,.02-4.1.02-4.1-.2-1.4.78-2.83,2.29-2.79h0Zm0,0c-1.52.02-2.46,1.34-2.25,2.79,0,0,.02,4.1.02,4.1.05,26.91.55,63.24.82,90.28.02,5.31.09,19.46.11,24.62,0,0,.02,4.1.02,4.1v.51c0,.2,0,.21.03.32.11.56.68.96,1.26.96.71,0,1.34-.54,1.29-1.28,0,0,0-.51,0-.51l.02-4.1c.02-5.1.09-19.31.11-24.62.27-27.08.77-63.32.82-90.28,0,0,.02-4.1.02-4.1.22-1.4-.75-2.82-2.25-2.79h0Z"/>
        <path class="cls-1" d="m666.36,412.47c1.52,0,2.49,1.33,2.29,2.79,0,0,.02,4.1.02,4.1.05,26.91.54,63.24.82,90.28.03,7.73.1,21.61.13,29.24.02,4.27-6.51,4.35-6.51,0,.03-7.58.1-21.51.13-29.24.27-27.08.77-63.32.82-90.28,0,0,.02-4.1.02-4.1-.2-1.4.78-2.83,2.29-2.79h0Zm0,0c-1.52.02-2.46,1.34-2.25,2.79,0,0,.02,4.1.02,4.1.05,26.91.55,63.24.82,90.28.02,5.31.09,19.46.11,24.62,0,0,.02,4.1.02,4.1v.51c0,.2,0,.21.03.32.11.56.68.96,1.26.96.71,0,1.34-.54,1.29-1.28,0,0,0-.51,0-.51l.02-4.1c.02-5.1.09-19.31.11-24.62.27-27.08.77-63.32.82-90.28,0,0,.02-4.1.02-4.1.22-1.4-.75-2.82-2.25-2.79h0Z"/>
        <path class="cls-1" d="m674.55,412.47c1.52,0,2.49,1.33,2.29,2.79,0,0,.02,4.1.02,4.1.05,26.91.54,63.24.82,90.28.03,7.73.1,21.61.13,29.24.02,4.27-6.51,4.35-6.51,0,.03-7.58.1-21.51.13-29.24.27-27.08.77-63.32.82-90.28,0,0,.02-4.1.02-4.1-.2-1.4.78-2.83,2.29-2.79h0Zm0,0c-1.52.02-2.46,1.34-2.25,2.79,0,0,.02,4.1.02,4.1.05,26.91.55,63.24.82,90.28.02,5.31.09,19.46.11,24.62,0,0,.02,4.1.02,4.1,0,0,0,.51,0,.51,0,.2,0,.21.02.32.11.56.68.96,1.26.96.71,0,1.34-.54,1.29-1.28,0,0,0-.51,0-.51l.02-4.1c.02-5.1.09-19.31.11-24.62.27-27.08.77-63.32.82-90.28,0,0,.02-4.1.02-4.1.22-1.4-.75-2.82-2.25-2.79h0Z"/>
        <path class="cls-1" d="m682.73,412.47c1.52,0,2.49,1.33,2.29,2.79,0,0,.02,4.1.02,4.1.05,26.91.54,63.24.82,90.28.03,7.73.1,21.61.13,29.24.02,4.27-6.51,4.35-6.51,0,.03-7.58.1-21.51.13-29.24.27-27.08.77-63.32.82-90.28,0,0,.02-4.1.02-4.1-.2-1.4.78-2.83,2.29-2.79h0Zm0,0c-1.52.02-2.46,1.34-2.25,2.79,0,0,.02,4.1.02,4.1.05,26.91.55,63.24.82,90.28.02,5.31.09,19.46.11,24.62,0,0,.02,4.1.02,4.1v.51c0,.2,0,.21.03.32.11.56.68.96,1.26.96.71,0,1.34-.54,1.29-1.28,0,0,0-.51,0-.51,0,0,.02-4.1.02-4.1.02-5.1.09-19.31.11-24.62.27-27.08.77-63.32.82-90.28,0,0,.02-4.1.02-4.1.22-1.4-.75-2.82-2.25-2.79h0Z"/>
        <path class="cls-1" d="m690.92,412.47c1.52,0,2.49,1.33,2.29,2.79,0,0,.02,4.1.02,4.1.05,26.91.54,63.24.82,90.28.03,7.73.1,21.61.13,29.24.02,4.27-6.51,4.35-6.51,0,.03-7.58.1-21.51.13-29.24.27-27.08.77-63.32.82-90.28,0,0,.02-4.1.02-4.1-.2-1.4.78-2.83,2.29-2.79h0Zm0,0c-1.52.02-2.46,1.34-2.25,2.79,0,0,.02,4.1.02,4.1.05,26.91.55,63.24.82,90.28.02,5.31.09,19.46.11,24.62,0,0,.02,4.1.02,4.1v.51c0,.2,0,.21.03.32.11.56.68.96,1.26.96.71,0,1.34-.54,1.29-1.28,0,0,0-.51,0-.51l.02-4.1c.02-5.1.09-19.31.11-24.62.27-27.08.77-63.32.82-90.28,0,0,.02-4.1.02-4.1.22-1.4-.75-2.82-2.25-2.79h0Z"/>
        <path class="cls-1" d="m699.1,412.47c1.52,0,2.49,1.33,2.29,2.79,0,0,.02,4.1.02,4.1.05,26.91.54,63.24.82,90.28.03,7.73.1,21.61.13,29.24.02,4.27-6.51,4.35-6.51,0,.03-7.58.1-21.51.13-29.24.27-27.08.77-63.32.82-90.28,0,0,.02-4.1.02-4.1-.2-1.4.78-2.83,2.29-2.79h0Zm0,0c-1.52.02-2.46,1.34-2.25,2.79,0,0,.02,4.1.02,4.1.05,26.91.55,63.24.82,90.28.02,5.31.09,19.46.11,24.62,0,0,.02,4.1.02,4.1v.51c0,.2,0,.21.03.32.11.56.68.96,1.26.96.71,0,1.34-.54,1.29-1.28,0,0,0-.51,0-.51,0,0,.02-4.1.02-4.1.02-5.1.09-19.31.11-24.62.27-27.08.77-63.32.82-90.28,0,0,.02-4.1.02-4.1.22-1.4-.75-2.82-2.25-2.79h0Z"/>
        <path class="cls-1" d="m707.29,412.47c1.52,0,2.49,1.33,2.29,2.79,0,0,.02,4.1.02,4.1.05,26.91.54,63.24.82,90.28.03,7.73.1,21.61.13,29.24.02,4.27-6.51,4.35-6.51,0,.03-7.58.1-21.51.13-29.24.27-27.08.77-63.32.82-90.28,0,0,.02-4.1.02-4.1-.2-1.4.78-2.83,2.29-2.79h0Zm0,0c-1.52.02-2.46,1.34-2.25,2.79,0,0,.02,4.1.02,4.1.05,26.91.55,63.24.82,90.28.02,5.31.09,19.46.11,24.62,0,0,.02,4.1.02,4.1v.51c0,.2,0,.21.03.32.11.56.68.96,1.26.96.71,0,1.34-.54,1.29-1.28,0,0,0-.51,0-.51l.02-4.1c.02-5.1.09-19.31.11-24.62.27-27.08.77-63.32.82-90.28,0,0,.02-4.1.02-4.1.22-1.4-.75-2.82-2.25-2.79h0Z"/>
        <path class="cls-1" d="m715.48,412.47c1.52,0,2.49,1.33,2.29,2.79,0,0,.02,4.1.02,4.1.05,26.91.54,63.24.82,90.28.03,7.73.1,21.61.13,29.24.02,4.27-6.51,4.35-6.51,0,.03-7.58.1-21.51.13-29.24.27-27.08.77-63.32.82-90.28,0,0,.02-4.1.02-4.1-.2-1.4.78-2.83,2.29-2.79h0Zm0,0c-1.52.02-2.46,1.34-2.25,2.79,0,0,.02,4.1.02,4.1.05,26.91.55,63.24.82,90.28.02,5.31.09,19.46.11,24.62,0,0,.02,4.1.02,4.1,0,0,0,.51,0,.51,0,.2,0,.21.02.32.11.56.68.96,1.26.96.71,0,1.34-.54,1.29-1.28,0,0,0-.51,0-.51l.02-4.1c.02-5.1.09-19.31.11-24.62.27-27.08.77-63.32.82-90.28,0,0,.02-4.1.02-4.1.22-1.4-.75-2.82-2.25-2.79h0Z"/>
        <path class="cls-1" d="m723.66,412.47c1.52,0,2.49,1.33,2.29,2.79,0,0,.02,4.1.02,4.1.05,26.91.54,63.24.82,90.28.03,7.73.1,21.61.13,29.24.02,4.27-6.51,4.35-6.51,0,.03-7.58.1-21.51.13-29.24.27-27.08.77-63.32.82-90.28,0,0,.02-4.1.02-4.1-.2-1.4.78-2.83,2.29-2.79h0Zm0,0c-1.52.02-2.46,1.34-2.25,2.79,0,0,.02,4.1.02,4.1.05,26.91.55,63.24.82,90.28.02,5.31.09,19.46.11,24.62,0,0,.02,4.1.02,4.1v.51c0,.2,0,.21.03.32.11.56.68.96,1.26.96.71,0,1.34-.54,1.29-1.28,0,0,0-.51,0-.51l.02-4.1c.02-5.1.09-19.31.11-24.62.27-27.08.77-63.32.82-90.28,0,0,.02-4.1.02-4.1.22-1.4-.75-2.82-2.25-2.79h0Z"/>
        <path class="cls-1" d="m731.85,412.47c1.52,0,2.49,1.33,2.29,2.79,0,0,.02,4.1.02,4.1.05,26.91.54,63.24.82,90.28.03,7.73.1,21.61.13,29.24.02,4.27-6.51,4.35-6.51,0,.03-7.58.1-21.51.13-29.24.27-27.08.77-63.32.82-90.28,0,0,.02-4.1.02-4.1-.2-1.4.78-2.83,2.29-2.79h0Zm0,0c-1.52.02-2.46,1.34-2.25,2.79,0,0,.02,4.1.02,4.1.05,26.91.55,63.24.82,90.28.02,5.31.09,19.46.11,24.62,0,0,.02,4.1.02,4.1,0,0,0,.51,0,.51,0,.2,0,.21.02.32.11.56.68.96,1.26.96.71,0,1.34-.54,1.29-1.28,0,0,0-.51,0-.51l.02-4.1c.02-5.1.09-19.31.11-24.62.27-27.08.77-63.32.82-90.28,0,0,.02-4.1.02-4.1.22-1.4-.75-2.82-2.25-2.79h0Z"/>
        <path class="cls-1" d="m740.04,412.47c1.52,0,2.49,1.33,2.29,2.79,0,0,.02,4.1.02,4.1.05,26.91.54,63.24.82,90.28.03,7.73.1,21.61.13,29.24.02,4.27-6.51,4.35-6.51,0,.03-7.58.1-21.51.13-29.24.27-27.08.77-63.32.82-90.28,0,0,.02-4.1.02-4.1-.2-1.4.78-2.83,2.29-2.79h0Zm0,0c-1.52.02-2.46,1.34-2.25,2.79,0,0,.02,4.1.02,4.1.05,26.91.55,63.24.82,90.28.02,5.31.09,19.46.11,24.62,0,0,.02,4.1.02,4.1,0,0,0,.51,0,.51,0,.2,0,.21.02.32.11.56.68.96,1.26.96.71,0,1.34-.54,1.29-1.28,0,0,0-.51,0-.51l.02-4.1c.02-5.1.09-19.31.11-24.62.27-27.08.77-63.32.82-90.28,0,0,.02-4.1.02-4.1.22-1.4-.75-2.82-2.25-2.79h0Z"/>
        <path class="cls-1" d="m748.22,412.47c1.52,0,2.49,1.33,2.29,2.79,0,0,.02,4.1.02,4.1.05,26.91.54,63.24.82,90.28.03,7.73.1,21.61.13,29.24.02,4.27-6.51,4.35-6.51,0,.03-7.58.1-21.51.13-29.24.27-27.08.77-63.32.82-90.28,0,0,.02-4.1.02-4.1-.2-1.4.78-2.83,2.29-2.79h0Zm0,0c-1.52.02-2.46,1.34-2.25,2.79,0,0,.02,4.1.02,4.1.05,26.91.55,63.24.82,90.28.02,5.31.09,19.46.11,24.62,0,0,.02,4.1.02,4.1v.51c0,.2,0,.21.03.32.11.56.68.96,1.26.96.71,0,1.34-.54,1.29-1.28,0,0,0-.51,0-.51l.02-4.1c.02-5.1.09-19.31.11-24.62.27-27.08.77-63.32.82-90.28,0,0,.02-4.1.02-4.1.22-1.4-.75-2.82-2.25-2.79h0Z"/>
        <path class="cls-1" d="m756.41,412.47c1.52,0,2.49,1.33,2.29,2.79,0,0,.02,4.1.02,4.1.05,26.91.54,63.24.82,90.28.03,7.73.1,21.61.13,29.24.02,4.27-6.51,4.35-6.51,0,.03-7.58.1-21.51.13-29.24.27-27.08.77-63.32.82-90.28,0,0,.02-4.1.02-4.1-.2-1.4.78-2.83,2.29-2.79h0Zm0,0c-1.52.02-2.46,1.34-2.25,2.79,0,0,.02,4.1.02,4.1.05,26.91.55,63.24.82,90.28.02,5.31.09,19.46.11,24.62,0,0,.02,4.1.02,4.1,0,0,0,.51,0,.51,0,.2,0,.21.02.32.11.56.68.96,1.26.96.71,0,1.34-.54,1.29-1.28,0,0,0-.51,0-.51,0,0,.02-4.1.02-4.1.02-5.1.09-19.31.11-24.62.27-27.08.77-63.32.82-90.28,0,0,.02-4.1.02-4.1.22-1.4-.75-2.82-2.25-2.79h0Z"/>
        <path class="cls-1" d="m764.59,412.47c1.52,0,2.49,1.33,2.29,2.79,0,0,.02,4.1.02,4.1.05,26.91.54,63.24.82,90.28.03,7.73.1,21.61.13,29.24.02,4.27-6.51,4.35-6.51,0,.03-7.58.1-21.51.13-29.24.27-27.08.77-63.32.82-90.28,0,0,.02-4.1.02-4.1-.2-1.4.78-2.83,2.29-2.79h0Zm0,0c-1.52.02-2.46,1.34-2.25,2.79,0,0,.02,4.1.02,4.1.05,26.91.55,63.24.82,90.28.02,5.31.09,19.46.11,24.62,0,0,.02,4.1.02,4.1,0,0,0,.51,0,.51,0,.2,0,.21.02.32.11.56.68.96,1.26.96.71,0,1.34-.54,1.29-1.28,0,0,0-.51,0-.51l.02-4.1c.02-5.1.09-19.31.11-24.62.27-27.08.77-63.32.82-90.28,0,0,.02-4.1.02-4.1.22-1.4-.75-2.82-2.25-2.79h0Z"/>
        <path class="cls-1" d="m772.78,412.47c1.52,0,2.49,1.33,2.29,2.79,0,0,.02,4.1.02,4.1.05,26.91.54,63.24.82,90.28.03,7.73.1,21.61.13,29.24.02,4.27-6.51,4.35-6.51,0,.03-7.58.1-21.51.13-29.24.27-27.08.77-63.32.82-90.28,0,0,.02-4.1.02-4.1-.2-1.4.78-2.83,2.29-2.79h0Zm0,0c-1.52.02-2.46,1.34-2.25,2.79,0,0,.02,4.1.02,4.1.05,26.91.55,63.24.82,90.28.02,5.31.09,19.46.11,24.62,0,0,.02,4.1.02,4.1,0,0,0,.51,0,.51,0,.2,0,.21.02.32.11.56.68.96,1.26.96.71,0,1.34-.54,1.29-1.28,0,0,0-.51,0-.51,0,0,.02-4.1.02-4.1.02-5.1.09-19.31.11-24.62.27-27.08.77-63.32.82-90.28,0,0,.02-4.1.02-4.1.22-1.4-.75-2.82-2.25-2.79h0Z"/>
        <path class="cls-1" d="m780.97,412.47c1.52,0,2.49,1.33,2.29,2.79,0,0,.02,4.1.02,4.1.05,26.91.54,63.24.82,90.28.03,7.73.1,21.61.13,29.24.02,4.27-6.51,4.35-6.51,0,.03-7.58.1-21.51.13-29.24.27-27.08.77-63.32.82-90.28,0,0,.02-4.1.02-4.1-.2-1.4.78-2.83,2.29-2.79h0Zm0,0c-1.52.02-2.46,1.34-2.25,2.79,0,0,.02,4.1.02,4.1.05,26.91.55,63.24.82,90.28.02,5.31.09,19.46.11,24.62,0,0,.02,4.1.02,4.1,0,0,0,.51,0,.51,0,.2,0,.21.02.32.11.56.68.96,1.26.96.71,0,1.34-.54,1.29-1.28,0,0,0-.51,0-.51l.02-4.1c.02-5.1.09-19.31.11-24.62.27-27.08.77-63.32.82-90.28,0,0,.02-4.1.02-4.1.22-1.4-.75-2.82-2.25-2.79h0Z"/>
        <path class="cls-1" d="m789.15,412.47c1.52,0,2.49,1.33,2.29,2.79,0,0,.02,4.1.02,4.1.05,26.91.54,63.24.82,90.28.03,7.73.1,21.61.13,29.24.02,4.27-6.51,4.35-6.51,0,.03-7.58.1-21.51.13-29.24.27-27.08.77-63.32.82-90.28,0,0,.02-4.1.02-4.1-.2-1.4.78-2.83,2.29-2.79h0Zm0,0c-1.52.02-2.46,1.34-2.25,2.79,0,0,.02,4.1.02,4.1.05,26.91.55,63.24.82,90.28.02,5.31.09,19.46.11,24.62,0,0,.02,4.1.02,4.1v.51c0,.2,0,.21.03.32.11.56.68.96,1.26.96.71,0,1.34-.54,1.29-1.28,0,0,0-.51,0-.51l.02-4.1c.02-5.1.09-19.31.11-24.62.27-27.08.77-63.32.82-90.28,0,0,.02-4.1.02-4.1.22-1.4-.75-2.82-2.25-2.79h0Z"/>
        <path class="cls-1" d="m805.52,412.47c1.52,0,2.49,1.33,2.29,2.79,0,0,.02,4.1.02,4.1.05,26.91.54,63.24.82,90.28.03,7.73.1,21.61.13,29.24.02,4.27-6.51,4.35-6.51,0,.03-7.58.1-21.51.13-29.24.27-27.08.77-63.32.82-90.28,0,0,.02-4.1.02-4.1-.2-1.4.78-2.83,2.29-2.79h0Zm0,0c-1.52.02-2.46,1.34-2.25,2.79,0,0,.02,4.1.02,4.1.05,26.91.55,63.24.82,90.28.02,5.31.09,19.46.11,24.62,0,0,.02,4.1.02,4.1,0,0,0,.51,0,.51,0,.2,0,.21.02.32.11.56.68.96,1.26.96.71,0,1.34-.54,1.29-1.28,0,0,0-.51,0-.51,0,0,.02-4.1.02-4.1.02-5.1.09-19.31.11-24.62.27-27.08.77-63.32.82-90.28,0,0,.02-4.1.02-4.1.22-1.4-.75-2.82-2.25-2.79h0Z"/>
        <path class="cls-1" d="m797.34,412.47c1.52,0,2.49,1.33,2.29,2.79,0,0,.02,4.1.02,4.1.05,26.91.54,63.24.82,90.28.03,7.73.1,21.61.13,29.24.02,4.27-6.51,4.35-6.51,0,.03-7.58.1-21.51.13-29.24.27-27.08.77-63.32.82-90.28,0,0,.02-4.1.02-4.1-.2-1.4.78-2.83,2.29-2.79h0Zm0,0c-1.52.02-2.46,1.34-2.25,2.79,0,0,.02,4.1.02,4.1.05,26.91.55,63.24.82,90.28.02,5.31.09,19.46.11,24.62,0,0,.02,4.1.02,4.1v.51c0,.2,0,.21.03.32.11.56.68.96,1.26.96.71,0,1.34-.54,1.29-1.28,0,0,0-.51,0-.51l.02-4.1c.02-5.1.09-19.31.11-24.62.27-27.08.77-63.32.82-90.28,0,0,.02-4.1.02-4.1.22-1.4-.75-2.82-2.25-2.79h0Z"/>
        <path class="cls-1" d="m808.06,609.48s.03,3.73.03,3.73c0,.62.06,1.27-.22,1.86-.5,1.2-1.84,1.87-3.1,1.77,0,0-1.87.02-1.87.02,0,0-3.74.03-3.74.03-49.01.49-115.19.71-164.44.79-11.82.02-36.97.06-48.58.08,0,0-1.87,0-1.87,0-.27,0-.7.01-1.12-.07-1.24-.23-2.34-1.06-2.86-2.23-.33-.69-.32-1.52-.31-2.24,0,0,0-3.74,0-3.74,0,0,0-.99,0-.99h.99c63.47,0,162.89.55,227.07.99h0Zm0,0c-64.37.45-163.46.97-227.07.99,0,0,.99-.99.99-.99,0,0,0,3.74,0,3.74,0,0,0,.47,0,.47,0,.15,0,.33,0,.4.11,1.13,1.14,1.79,2.28,1.68,12.47.02,37.7.06,50.45.08,49.32.08,115.34.3,164.44.79,0,0,3.74.03,3.74.03l1.87.02c1.24.11,2.5-.49,3.02-1.65.27-.56.23-1.2.24-1.81,0,0,.03-3.74.03-3.74h0Z"/>
    </g>
    <g>
        <path class="cls-1" d="m573.11,250c-2.56.11-5.12.17-7.68.37-1.87.2-3.93.24-5.52,1.35-.52.4-.68,1.1-.54,1.72,0,0,.52,33.12.52,33.12.3,21.81,1.63,44.8,12.19,64.35,5.22,9.79,14.19,16.85,23.67,22.3,0,0,.65.38.65.38,0,0-.67.34-.67.34-10.08,4.81-17.19,13.82-22.52,23.37-4.21,8.47-6.11,18.48-3.73,27.73,4.65,8.66,23.45,12.93,32.67,14.52,21.77,3.87,44.17,3.05,65.9-.76,5.42-.92,10.77-2.31,15.97-4.03,4.97-1.78,10.35-3.84,13.96-7.74.79-.88,1.55-1.92,1.83-3.06.3-2.51.24-5.51.09-8.04-.96-6.73-3.11-13.31-6.8-19.05-2.96-4.54-6.16-9.14-10.08-12.89-4.3-4.1-9.43-7.34-14.64-10.28,0,0,1.3-.75,1.3-.75,15.71-8.74,26.23-24.34,29.33-41.95,2.45-12.09,3.26-24.46,2.87-36.78-.16-12.92-.18-26.22-1.06-39.1-.08-.66-.32-1.26-.86-1.46-1.09-.5-2.48-.73-3.71-.92-3.92-.6-7.88-.93-11.84-1.25-37.02-2.52-74.21-2.71-111.29-1.48h0Zm0,0c39.73-1.36,79.61-1.43,119.26,1.64,2.6.31,5.65.5,7.88,1.44,1.52.74,1.19,2.62,1.34,4.01,1.07,14.99,1.14,30.32,1.42,45.35-.01,8.26-.57,16.57-2.01,24.72-1.9,13.71-7.24,27.3-17.24,37.14-3.92,3.96-8.42,7.33-13.21,10.15,0,0,0-1.5,0-1.5,7.26,4.08,14.37,9.21,19.28,16.09,5.22,6.6,9.55,14.15,11.2,22.49,1,4.21,1.15,8.45.7,12.76-.13.79-.54,1.57-.93,2.25-5.72,8.72-22.64,12.28-32.43,14.16-21.94,3.76-44.56,4.52-66.53.53-9.69-1.76-28.98-6.34-33.65-15.7-2.47-9.65-.42-19.98,4.03-28.74,2.83-4.83,5.92-9.49,9.73-13.62,3.78-4.14,8.4-7.5,13.41-9.96,0,0-.02.72-.02.72-9.51-5.57-18.53-12.82-23.71-22.75-15.2-28.92-11.15-66.09-12.3-97.73-1.09-4.06,11.33-3.06,13.79-3.44h0Z"/>
        <path class="cls-1" d="m595.55,373.06c.84.78,2.02,1.31,3.08,1.73,4.87,1.68,10.04,2.24,15.14,2.82,15.74,1.35,31.79,1.78,47.4-.87,3.11-.57,6.19-1.42,8.95-3.04-1.25,1-2.68,1.78-4.16,2.4-14.87,5.74-36.65,5.17-52.39,3.05-3.17-.47-6.33-1.08-9.44-1.92-3-.96-6.38-1.78-8.59-4.17h0Z"/>
        <path class="cls-1" d="m630.26,251.47c16.32.14,32.64.5,48.96,1.18,4.77.25,9.55.42,14.28,1.08.78.19,1.67.12,2.28.79.75,1.5-3.38,1.48-4.21,1.68-20.37,1.68-40.83,1.4-61.25,1.35-20.41-.46-40.87-.72-61.19-2.9-1.36-.23-5.59-.49-4.08-2.03,1.24-.59,2.66-.54,3.99-.71,4.08-.32,8.17-.42,12.26-.51,16.32-.26,32.65-.2,48.97.08h0Zm0,0c-16.32-.1-32.65-.15-48.95.56-5.22.37-10.6.21-15.7,1.41-.03.01.04-.02.06-.08.07-.12.07-.28,0-.39-.07-.1-.05-.05,0-.04,5.14,1.17,10.52,1.06,15.77,1.43,5.43.26,10.86.39,16.3.56,21.74.59,43.49.88,65.24.84,8.15-.03,16.3-.04,24.44-.4,2.52-.19,5.13-.12,7.57-.79.03-.01-.04.02-.06.08-.07.12-.06.28,0,.39.07.1.05.05,0,.03-5.11-1.3-10.51-1.31-15.75-1.8-16.28-1.12-32.61-1.49-48.92-1.8h0Z"/>
    </g>
    <g>
        <path class="cls-1" d="m114.51,380.87c-1.81,0-3.62-.13-5.42-.25-.89-.02-1.84-.17-2.68.19-.81.31-.53,1.85-.56,2.5.63,44.07,1.73,118,2.42,162.8.86,40.1,1.68,112.53,2.47,151.94,0,0,1.3,21.66,1.3,21.66-.08,2.27.14,5.28,2.87,5.48,19.53,5.02,54.64,14.07,73.81,19.04,1.29.26,2.43.77,3.7.65.4-.04.84-.11,1.28-.19l5.35-.97c22.3-4.04,58.39-10.57,80.37-14.56,0,0,2.68-.49,2.68-.49.81-.13,1.39-.41,1.69-.85.34-.44.33-1.09.36-2.08l.09-2.72s.19-5.44.19-5.44c.2-6.7.92-25.66,1.14-32.66,3.03-88.14,6.98-194.95,10.2-282.99,0,0,.4-10.88.4-10.88.05-1.28.13-2.71-.94-3.51-1.99-.94-4.37-.42-6.57-.63,0,0-174.15-6.05-174.15-6.05h0Zm0,0s174.17,5.55,174.17,5.55c2.24.18,4.72-.36,6.85.68,1.28.89,1.28,2.64,1.21,3.98,0,0-.34,10.89-.34,10.89-2.71,88.02-6.02,194.9-8.92,283.01-.27,6.88-.81,25.92-1.07,32.65,0,0-.18,5.44-.18,5.44,0,0-.09,2.72-.09,2.72-.04.97,0,2.26-.7,3.17-1.29,1.92-3.8,1.68-5.65,2.16-21.86,3.91-58.21,10.41-80.41,14.38-1.23.24-5.64,1.02-6.78,1.16-1.45.14-2.96-.38-4.31-.7,0,0-10.54-2.75-10.54-2.75l-21.08-5.5c.1.01-42.54-11.14-42.04-11.04-3.53-.29-4.27-4.29-4.06-6.88,0,0-1.18-21.69-1.18-21.69-.42-39.12-1.19-112.14-1.61-151.97-.51-44.95-1.4-118.45-1.95-162.81,0,0-.02-1.36-.02-1.36.02-.44.17-.94.59-1.16.85-.37,1.79-.21,2.68-.19,1.8.12,3.61.25,5.42.26h0Z"/>
        <path class="cls-1" d="m114.51,380.87c-2.5.06-5-.4-7.49-.23-.4.05-.84.23-1.02.61-.18.37-.16.82-.15,1.22,10.42,45.21,31.39,136.12,41.91,181.29-.34-1.12,43.51,184.75,41.41,180.59.76.17,2.21.61,2.97.55.93-.06,2.05-.31,3.12-.49,0,0-.7.64-.7.64,28-98.77,72.68-253.96,101.56-353.72,0,0-.01.07-.01.07.05-.94.08-1.91-.16-2.75-.61-2.5-5.63-1.31-7.62-1.69-47.3-1.76-125.79-4.43-173.8-6.09h0Zm0,0c48.32,1.84,126.22,3.86,173.82,5.48,2.49.34,7.26-.92,8.24,2.1.3,1.04.27,2.07.2,3.07,0,0-50,177.08-50,177.08-12.5,44.07-37.81,132.92-50.49,176.94,0,0-.15.54-.15.54,0,0-.55.1-.55.1-1.61.25-3.6.81-5.22.29,0,0-1.6-.39-1.6-.39,0,0-.54-.13-.54-.13-.15-.02-41.03-181.82-41.18-182.02-10.18-45.22-30.9-136.27-41.21-181.45,0-.41-.03-.85.16-1.24.76-1.09,2.41-.56,3.54-.6,1.66.12,3.33.22,5,.23h0Z"/>
        <path class="cls-1" d="m396.84,393.69c-1.21-.07-2.54.07-3.48.91-.94.84-1.25,2.14-1.31,3.35-17.55,82.36-52.76,237.82-69.15,320.1-.55,3.29-.95,6.6-.63,9.84l-.55-.63c35.52,8.44,95.47,22.75,130.39,31.1,1.38.28,2.82.25,4.24-.01,3.44-.85,75.88-16.57,81.28-17.83,3.14-.68,19.76-4.31,22.59-4.93,0,0,2.26-.49,2.26-.49,1.51-.33,2.01-.31,1.76-2.01-3.34-29.25-17.64-159-21.17-190.7-3.73-33.7-10.52-95.48-14.19-128.67,0,0-1.02-9.19-1.02-9.19-.26-2.23.12-4.76-1.35-6.57-.51-.54-1.3-.68-2.04-.6,0,0-127.65-3.65-127.65-3.65h0Zm0,0s127.65,3.37,127.65,3.37c.67-.07,1.69.04,2.23.67,1.57,1.85,1.16,4.52,1.45,6.75,0,0,1.05,9.19,1.05,9.19,3.81,32.9,11.02,95.05,14.91,128.6,3.74,33.42,18.82,160.8,22.01,191.97-.04.5-.26,1.12-.69,1.57-.89.87-1.89.96-2.62,1.11l-2.26.5-4.51,1s-18.06,3.98-18.06,3.98c-5.91,1.18-77.29,17.04-81.31,17.8-1.6.29-3.3.33-4.95,0-34.71-8.33-95.13-23-130.35-31.55,0,0-.5-.12-.5-.12-.41-3.62.04-7.24.65-10.72,17.04-82.41,52.77-237.57,70.49-319.87.06-1.2.38-2.52,1.32-3.35.95-.82,2.27-.98,3.49-.9h0Z"/>
        <path class="cls-1" d="m453.11,759.44s.87.03.85.04c0,0-14.69-91.39-14.69-91.39-9.31-58.04-33.91-214.24-43.37-274.27,0,0-.18-1.12-.18-1.12l1.14.03,127.03,3.49s1.11.03,1.11.03c0,0-.21,1.09-.21,1.09-9.93,52.37-24.49,129.66-35.23,181.17-10.31,52.04-26.67,129.44-36.45,180.92h0Zm0,0c21.71-116.7,48.47-245.48,69.82-362.44,0,0,.91,1.12.91,1.12,0,0-127.03-3.49-127.03-3.49l.96-1.09s28.31,182.94,28.31,182.94c7.03,45.57,21,137.41,27.89,183.01,0,.01-.85-.05-.86-.04h0Z"/>
    </g>
    <g>
        <path class="cls-1" d="m258.09,205.11c-1.47.43-2.83,1.48-3.2,3.02-2.8,22.7-7.41,45.16-9.54,67.95-2.43,28.45-4.53,57.06-4.08,85.63.85,34.17,5.02,68.54,9.64,102.4,0,0,1.15,8.5,1.15,8.5.39,3.11,1.87,5.22,5.39,4.76.3,2.03.45,4.42,2.01,5.79.44.34,1,.47,1.59.43,14.12.27,34.43.77,48.32.84,42.3.23,96.83,1,138.93,1.28,0,0,6.02-.19,6.02-.19,0,0,.11,0,.11,0l.11.02c3.26.71,4.45-1.61,4.79-4.55,0,0,.13-.95.13-.95,2.38.25,4.06.36,4.21-2.88,0,0,10.91-66.02,10.91-66.02,3.79-21.95,4.58-44.27,4.69-66.54l.04-16.72c.4-27.84-2.35-55.69-4.8-83.4-.41-2.52-1.59-18.41-2.02-20.8-.41-3.12-1.32-9.35-1.74-12.42-.21-2.99-3.57-3.78-5.86-4.99,0,0-7.58-3.97-7.58-3.97-2.95-.53-7.04-.84-10.33.15-14.95,6-30.69,11.82-46.7,14.99-20.03,3.8-40.92,5.39-61.08,1.73-12.05-2.4-23.84-5.97-35.45-9.96-7.71-2.77-15.22-6.06-22.56-9.68-1.87-.81-3.94-1.21-5.98-1.02-2.06.15-3.96,1.01-5.82,1.82,0,0-11.3,4.81-11.3,4.81h0Zm0,0s11.29-4.83,11.29-4.83c1.87-.82,3.77-1.69,5.83-1.83,2.05-.19,4.12.21,6,1.02,7.35,3.6,14.87,6.87,22.58,9.62,11.61,3.97,23.4,7.5,35.45,9.87,20.13,3.59,41,2.02,60.96-1.92,16.05-3.28,31.47-9.12,46.61-15.27,3.53-.94,7.31-.94,10.86-.15,0,0,7.59,3.92,7.59,3.92,2.47,1.17,6.2,2.33,6.36,5.64.65,4.78,1.84,11.72,2.27,16.55,2.9,30.42,6.58,61.24,6.95,91.79.14,30.5.75,61.74-4.44,91.91,0-.09-10.81,66.39-10.75,65.97-.14,2.99-1.95,5.23-5.44,4.72,0,0,1.08-.85,1.08-.85-.29,2.59-1.51,5.76-4.43,6.25-.94.18-1.85.11-2.7-.05,0,0,.22.02.22.02,0,0-6.06.18-6.06.18-42.04-.37-96.73-1.21-138.97-1.7-13.86-.12-34.32-.81-48.33-1.13,0,0,.04,0,.04,0-.79.05-1.68-.17-2.34-.69-1.82-1.48-2.07-3.99-2.38-6.07,0,0,.62.52.62.52-1.55.09-3.3-.34-4.37-1.57-1.09-1.24-1.46-2.81-1.66-4.25,0,0-1.1-8.51-1.1-8.51,0,0-2.16-17.02-2.16-17.02-3.54-28.38-6.29-56.9-6.87-85.51-.25-28.58,1.87-57.19,4.37-85.66,2.19-22.79,6.85-45.23,9.7-67.93.4-1.53,1.74-2.59,3.22-3.01h0Z"/>
        <path class="cls-1" d="m254.88,208.13c6.48-6.61,17.09-1.21,24.32,1.37,3.99,1.58,7.92,3.28,11.93,4.76,6.04,2.15,12.18,4.04,18.3,5.94,4.97,1.52,10.4,2.9,15.47,4.11,33.69,7.43,71.37,6.8,104.4-3.47,8.15-2.58,16.13-5.69,24-9.07,2.25-1.51,5.46-2.97,8.36-3.46,3-.55,6.17-.22,8.92,1.05-5.71-2.36-12.13-.45-16.96,2.99-15.55,7.33-31.9,13.29-48.93,16.08-17.01,2.53-34.31,3.61-51.49,2.13-25.78-2.11-50.81-9.75-74.34-20.21-7.11-2.8-17.31-8.41-23.97-2.2h0Z"/>
        <path class="cls-1" d="m269.25,204.8c2.59-1.23,6.76-3.25,9.27-4.44.29-.1.79-.51,1.03-.34,0,0,.34.15.34.15,10.68,4.88,21.65,9.1,32.77,12.87,14.8,4.81,30.33,8.21,45.91,8.71,19.5.22,38.97-3.05,57.72-8.28,8.4-2.52,16.57-5.85,24.79-8.96,0,0,1.36-.52,1.36-.52.42-.16.86-.36,1.3-.56,1.99-.82,3.94-2.09,6.25-1.81,0,0,.16.09.16.09,0,0,8.74,4.86,8.74,4.86.53.34.97.97.83,1.72-.22.8-.66,1-.93,1.21-.62.38-1.1.52-1.56.74,0,0-2.84,1.23-2.84,1.23-13.21,5.94-26.91,11.08-41.12,14.1-12.21,2.41-24.62,3.92-37.07,3.86-16.51.16-33.26-.31-49.32-4.49-12.03-2.98-23.95-6.53-35.5-11.04-5.12-2.02-15.09-5.97-20.22-7.85,0,0-1.46-.53-1.46-.53-.29-.13-.64-.18-.87-.4-.03-.07.04-.12.09-.15.11-.07.23-.12.34-.18h0Zm0,0c-.12.05-.24.11-.34.18-.05.03-.12.09-.09.15.23.22.58.27.87.4,0,0,1.46.52,1.46.52,5.15,1.83,15.05,5.72,20.27,7.73,11.58,4.42,23.48,7.97,35.55,10.74,16.07,3.92,32.75,4.13,49.2,3.73,20.58-.36,41.07-4.19,60.34-11.41,5.63-2.02,11.58-4.78,17.1-7.18,0,0,2.84-1.25,2.84-1.25.47-.22.98-.4,1.24-.58.15-.07.16-.22.06.07-.03.15.02.32.05.34.03.04,0,0-.04-.04l.15.1-8.72-4.91.31.11c-1.73-.02-3.37,1.01-4.99,1.66-.73.34-1.99.83-2.78,1.11-4.58,1.7-9.17,3.48-13.76,5.14-22.13,7.97-45.92,11.65-69.44,11.25-15.69-.71-31.12-4.44-45.97-9.37-11.1-3.84-22.05-8.12-32.71-13.07-.22-.08-.44-.29-.65-.14l-.66.32c-2.59,1.22-6.71,3.18-9.29,4.39h0Z"/>
    </g>
    <g>
        <path class="cls-1" d="m530.76,341.28c-4.04-.12-9.15-.24-11.82-3.73-1.52-2.45,0-5.27,2.44-6.34-.04.16-.93-7.89-.94-7.83-.81-2.81-2.03-5.51-3.73-7.89-1.69-2.39-3.81-4.45-6.12-6.24-1.92-1.98-4.14-3.65-6.24-5.44-2.01-1.8-4.47-3.64-5.05-6.45-.64-.46-1.19-1.73-1.21-2.72,0,0,.09.09.09.09-4.26-.12-8.34-1.85-11.64-4.49-9.7-8.19-16.22-19.59-21.05-31.19-5.81-20.84-7.46-42.91-4.4-64.38,1.95-11.61,11.7-69.58,13.45-79.96,3.72-24.09,10.56-47.53,16.34-71.15,2.33-7.98,6.14-21.26,8.5-29.25,1.1-3.48,3.74-6.4,6.84-8.15,9.6-4.92,20.66-6.51,31.32-6.1,7.97.05,16.75,1.54,22.82,7.29,2.19,1.87,3.08,4.76,4.07,7.31,0,0,4.94,16.98,4.94,16.98,8.37,28.3,15.12,57.06,20.11,86.15,3.68,23.29,8.35,46.45,10.52,69.96,2.09,23.39,2.25,47.67-5.6,70.08-3.84,11.17-10.08,21.51-18.26,30.03-3.91,2.88-8.09,5.82-12.99,6.63,0,0,.08-.08.08-.08-.19,1.37-1.12,2.51-2.2,3.33-.7,3.15-3.54,5.99-6.35,7.76-2.84,1.88-5.85,3.61-8.01,6.31-4.37,5.33-6.06,12.3-6.95,19,0,0,0,.03,0,.03,0,0-.03,0-.03,0,0,0,.01-.06.01-.06.82.35,1.61.8,2.24,1.45,1.96,1.93,1.5,5.58-.83,7.02-3.06,1.92-6.85,1.96-10.35,2.03h0Zm0,0c3.95-.16,9.97,0,12.02-4.06.66-1.63.42-3.68-.87-4.94-.65-.68-1.5-1.13-2.36-1.49,0,0,.15,0,.15,0,0,0-.03.03-.03.03.88-6.72,2.55-13.7,6.92-19.07,2.15-2.71,5.18-4.47,8.02-6.36,2.82-1.86,5.48-4.36,6.3-7.75,1.07-.85,1.96-1.85,2.15-3.25.01-.09.02-.06.08-.08,4.83-.79,9.05-3.8,12.85-6.61,8.11-8.52,14.35-18.82,18.07-30,7.66-22.39,7.31-46.58,5.06-69.87-2.35-23.46-7.18-46.57-11.03-69.81-4.17-23.17-9.42-46.17-15.61-68.88-2.74-10.2-6.91-23.75-9.86-33.95,0,0,.03.08.03.08-.49-1.23-.95-2.49-1.47-3.63-.99-2.35-3.11-3.79-5.14-5.21-5.43-3.56-12.05-4.28-18.53-4.4-5.28-.12-10.5.04-15.64.98-5.13.91-10.13,2.53-14.79,4.85-3.24,1.77-5.68,5.13-6.47,8.94-2.06,7.13-5.93,20.13-7.98,27.2-5.82,23.58-12.73,46.94-16.66,70.94-1.7,9.95-12.09,68.53-14.04,79.84-3.2,21.28-1.71,43.41,3.91,64.13,4.72,11.59,11.21,22.95,20.84,31.14,3.29,2.64,7.35,4.38,11.6,4.49,0,1.02.45,2.01,1.18,2.74.57,2.73,3,4.62,4.99,6.4,2.08,1.79,4.34,3.49,6.22,5.46,2.31,1.8,4.43,3.88,6.12,6.28,1.7,2.4,2.92,5.11,3.72,7.93,0,0,.91,7.88.91,7.89-2.41,1-3.96,3.9-2.45,6.28,2.65,3.5,7.76,3.58,11.79,3.75h0Z"/>
        <path class="cls-1" d="m539.69,330.82c-4.26.2-9.4.11-13.67.31-1.52.06-3.04.13-4.63.11,2.78-1.53,5.96-2.15,9.1-2.24,3.15-.04,6.33.45,9.2,1.82h0Z"/>
        <path class="cls-1" d="m560.98,297.69c-10.24-.95-20.51-.68-30.78-.77-9.07.08-21.87-.12-30.81.44,10.11-2.17,20.52-2.3,30.81-2.44,10.28.17,20.75.23,30.78,2.77h0Z"/>
        <path class="cls-1" d="m563.14,294.41c-2.27-1.53-5.23-1.52-7.88-1.86-8.19-.7-16.43-.71-24.64-.68-5.48.02-10.97.15-16.45.37-4.76.3-9.61.31-14.27,1.42-.62.2-1.39.35-1.71.98.23-.68,1.02-.97,1.61-1.26,10.05-4.21,55.22-5.53,63.34,1.02h0Z"/>
    </g>
    <g>
        <path class="cls-1" d="m231.75,212.35c6.56-.92,10.5-6.71,13.67-11.96,3.39-5.29,6.65-10.65,9.73-16.12,9.35-16.35,16.79-33.79,21.61-52.01,4.88-17.63,8.01-38.39-3.04-54.36-5.64-6-13.35-10.63-21.26-13.5-3.9-1.46-8.12-2.75-12.23-3.52-12.56-2.48-25.31-3.83-38.07-4.91-25.53-2.12-51.17-2.73-76.79-2.69-21.32.09-42.62,2.1-63.49,6.43-12.45,2.4-24.96,5.85-36.59,10.87-7.56,3.45-14.7,8.56-18.81,15.9-5.97,11.26-5.4,24.78-2.99,36.97,2.81,12.43,7.18,24.53,12.2,36.24,6.79,15.62,14.56,30.94,25.06,44.41,1.9,3.55,5.7,5.49,9.57,6.21,3.94.83,7.93,1.52,11.93,2.12,40.12,5.42,80.82,5.12,121.22,4.04,3.49-.2,8.68-.21,12.14-.2,12.14-.13,24.3-1.24,36.15-3.93h0Zm0,0c-11.85,2.72-24.01,3.88-36.15,4.04-3.46-.03-8.61.06-12.14.24-40.43,1.14-81.14,1.74-121.34-3.35-4.02-.57-8.02-1.23-12-2.04-2.01-.38-4.02-1.04-5.83-2.11-1.8-.91-3.55-2.92-4.36-4.39-5.3-6.75-10.01-13.95-14.22-21.42-8.16-15.08-15.31-30.73-20.5-47.09C2.59,128.06.49,119.6.1,110.96c-.75-13.11,2.38-26.98,13.28-35.33,3.39-2.77,7.17-4.97,11.12-6.8,15.77-6.92,32.71-10.62,49.64-13.36,42.38-6.54,85.57-4.02,128.14-.81,12.78,1.19,25.57,2.64,38.15,5.23,8.38,1.76,16.62,4.82,23.9,9.36,3.66,2.31,7.02,5.08,9.97,8.24,11.05,16.22,7.73,37.05,2.74,54.82-6.43,24.36-17.89,47.04-31.57,68.09-3.18,5.24-7.14,11.04-13.72,11.93h0Z"/>
        <path class="cls-1" d="m142.43,214.61c-22.9-.1-45.81-.66-68.65-2.49-5.71-.52-11.44-1.05-17.07-2.21-1.42-.32-2.87-.64-4.21-1.26-.45-.25-.96-.42-1.34-1.13-.45-1.4,1.3-1.99,2.27-2.38,6.44-1.99,13.24-2.42,19.9-3.14,7.62-.69,15.25-1.18,22.88-1.51,38.16-1.44,76.46-1.26,114.51,2.27,5.71.61,11.44,1.24,17.06,2.48,1.42.34,2.86.69,4.2,1.33.45.26.96.44,1.33,1.15,1.57,3.84-19.41,4.78-22.2,5.15-22.85,1.58-45.77,1.88-68.67,1.72h0Zm0,0c22.89-.01,45.81-.33,68.62-2.35,5.68-.55,11.38-1.11,16.95-2.33,1.48-.4,3.16-.65,4.32-1.65.08-.12.07-.11.05-.16-1.14-1.13-3.28-1.38-4.84-1.8-5.58-1.14-11.28-1.67-16.95-2.18-38.01-2.85-76.22-3.03-114.31-1.93-11.42.43-22.86.87-34.19,2.3-2.8.39-5.63.77-8.31,1.64-.61.21-1.21.43-1.63.85-.08.12-.07.11-.06.16.05.17.47.46.84.64.39.2.83.36,1.27.51,6.37,1.89,13.07,2.45,19.65,3.21,22.78,2.26,45.7,2.84,68.59,3.11h0Z"/>
        <path class="cls-1" d="m53.04,60.55c7.64-7.83,31.6-10.85,42.68-12.47,29.81-3.52,59.98-4,89.88-1.31,13.06,1.44,26.44,2.8,38.73,7.78,2.81,1.1,5.37,3.21,7.62,5.3,0,0-3.38-.52-3.38-.52-29.08-4.26-58.52-5.5-87.88-6.11-29.4-.93-58.88,1.03-87.66,7.32h0Zm0,0c14.32-3.39,28.87-5.99,43.52-7.38,14.67-1.45,29.43-1.58,44.15-1.47,22.09.11,44.19,1.06,66.19,3.08,7.34.68,14.67,1.49,21.97,2.58l-.82,1.73c-2.7-2.26-6.3-3.55-9.68-4.64-10.68-3.25-21.84-4.69-32.94-5.86-29.76-2.72-59.86-2.64-89.59.47-11.04,1.38-35.04,3.97-42.79,11.49h0Z"/>
    </g>
    <g>
        <path class="cls-1" d="m309.54,281.45c-13.31-16.21-32.71-30.81-34.37-53.29,2.87-28.82,7.98-57.44,15.84-85.33,4.89-17.43,10.75-34.6,17.7-51.32,4.05-8.96,8.72-24.46,19.74-26.33,1.36-.26,2.78-.19,4.13-.23,0,0,5.43-.07,5.43-.07,19.4-.25,56.2-.77,76-1.03,40.11-.34,112.57-1.67,152-1.95,7.25-.11,14.53.04,21.78.63,14.49,1.27,28.73,4.39,42.83,7.89,2.63.62,5.28,1.5,7.87,2.24,1.82.56,3.86,1.24,5.18,2.82,1.69,2.23,2.83,4.74,4.44,6.99,2.95,4.61,5.63,9.49,7.51,14.65,10.35,28.99,19.11,58.79,23.06,89.39,2.58,20.86,9.53,57.46-4.8,74.63-2.5,2.85-5.92,4.91-9.57,5.88-79.51,6.91-220.43,19.33-299.79,26.13-18.9,2.39-40.11,1.75-54.98-11.7h0Zm0,0c18.14,16.06,42.35,13.33,64.58,10.47,74.71-5.79,215.34-19.67,290.07-26.32,2.55-.79,6.58-2.83,8.59-5.45,13.67-16.26,6.66-53.5,4.16-73.41-3.99-30.44-12.78-60.11-23.14-88.95-1.86-5.04-4.45-9.73-7.35-14.26-1.46-2.08-2.82-4.77-4.26-6.76-1.08-1.23-2.66-1.74-4.26-2.23-9.48-2.92-19.17-5.08-28.91-6.97-14.14-3-28.53-4.12-42.98-3.85-70.5.74-157.57,1.39-228.02,1.99,0,0-5.43.04-5.43.04-1.14,0-2.23.03-3.34.08-4.23.48-7.78,3.2-10.25,6.64-4.24,5.83-6.87,12.67-9.71,19.27-12.66,30.01-21.89,61.42-27.84,93.44-2.66,14.21-4.65,28.63-6.13,42.97,1.62,22.46,20.98,37.06,34.23,53.3h0Z"/>
        <path class="cls-1" d="m346.65,78.48c-6.4-1.29-12.74-3.16-18.51-6.26-2.7-2.45-.71-3.42,2.36-3.61,43.33-.22,106.41-.79,150.42-1.22,17.45-.23,82.41-.5,98.71-.9,10.9-.41,22.08,2.74,32.63,5.16-.07-.01,18.56,4.44,18.22,4.37,1.07.2,2.14.32,3.22.74.13.07.23.09.46.26.04.03.09.06.19.19.09.13.14.18.21.4.09.44-.04.81-.33,1.07-.26.22-.42.26-.55.31-1.61.44-3.1.43-4.59.54-4.64.25-11.68.36-16.42.48-50.47,1.01-121.47.68-172.18,1.11,0,0-65.59.45-65.59.45-9.42-.9-18.96-1.1-28.25-3.11h0Zm0,0c9.28,1.98,18.85,2.14,28.25,3,0,0,65.58-.77,65.58-.77,50.79-.88,121.58-1.44,172.13-2.53,6.06-.22,14.86-.22,20.31-.92-.37.26-.34.97,0,1.24-1.38-.29-19.09-4.39-21.13-4.91-10.42-2.42-21.4-5.59-32.15-5.23-15.92.41-81.62.13-98.72.24-44.13-.02-106.89-.07-150.44.11-1.08.11-2.24.17-3.16.79-1.01.81.14,2.04.85,2.67,5.72,3.1,12.08,5.01,18.46,6.32h0Z"/>
    </g>
    <g>
        <path class="cls-1" d="m322.08,149.64c-.52.71-.62,1.62-.57,2.47.19,2.6,1.16,5.06,1.95,7.52,0,0,1.54,11.44,1.54,11.44,1.68,3.05,2.29,7.48,3.28,11.14,5.88,26.58,10.48,53.42,15.14,80.23,1.2,6.84,2.78,16.31,3.35,23.12,1.81,17.88,3.4,40.12,4.91,58.11.39,3.23.58,8.4,1.38,11.53,0,0,.33,2.47.33,2.47l-.03.39c0,.3-.04.63-.02.95.05,2.4.46,6.15.65,8.52,0,0,.23,2.46.23,2.46.11,2.03.24,5.17,1.57,6.28,6.12,4.2,13.86,5.58,21.02,7.13,1.86.3,5.6.82,7.46,1.04,20.01,2.23,40.38,2.33,60.36-.31,5.02-.62,9.95-1.48,14.77-2.85,2.35-.66,4.8-1.49,7.04-2.39,2.03-.91,3.27-3.02,4.03-5.29,0,0-.03.11-.03.11,0,0,1.4-7.03,1.4-7.03,0,0,.09.6.09.6-.83-2.39-.55-4.7-.58-7.13.18-6.76.77-13.5,1.36-20.22,3.23-31.27,6.48-62.65,12.48-93.52,4.42-21.86,9.62-44.05,13.1-66.06.72-4.43,1.34-8.88,1.9-13.33.64-4.44.64-9.01,2.31-13.24,0,.02.32-2.37.33-2.37.07-.59.2-1.19.11-1.79-.04-.21-.25-.32-.44-.35.19.03.4.13.45.34.05.2.04.4.03.6,0,.4-.06.8-.11,1.19,0,0-.29,2.38-.29,2.38-.7,2.14-1.33,4.29-1.44,6.55-1.44,15.66-4,31.2-6.9,46.65-2.35,12.72-5.37,26.87-7.87,39.65-5.77,30.87-8.69,62.23-11.9,93.45-.58,6.69-1.15,13.39-1.31,20.1.05,2.03-.18,4.34.38,6.24,0,0,.15.29.15.29,0,0-.06.31-.06.31,0,0-1.38,7.03-1.38,7.03-.81,2.62-2.38,5.31-5.01,6.51-1.29.56-2.38.89-3.65,1.36-6.04,2.08-12.4,3.31-18.69,4.09-22.67,3.03-45.81,2.71-68.42-.75-7.52-1.65-15.32-3.05-21.79-7.53-1.52-1.33-1.93-3.3-2.12-5.14-.13-2.72-.6-7.06-.81-9.83-.05-1.66-.4-3.64-.11-5.25,0,0-.03.39-.03.39,0,0-.32-2.47-.32-2.47-.6-1.85-1.05-8.53-1.36-11.61-1.94-22.31-3.19-47.53-5.94-69.66-5.42-32.53-10.36-65.32-17.44-97.53-.52-1.85-.87-3.91-1.84-5.52,0,0-1.39-11.46-1.39-11.46-.74-2.39-1.7-4.96-1.85-7.53-.04-.86.08-1.77.61-2.47h0Z"/>
        <path class="cls-1" d="m412.31,161.23c23.08-.18,46.26-.94,69.1-4.49,26.93-4.45,27.77-9.8-.06-13.94-22.85-3.1-45.99-3.84-69.04-3.85-23.05.02-46.18.76-69.04,3.86-27.17,4.04-27.63,9.37-.06,13.93,22.83,3.55,46.02,4.31,69.1,4.49h0Zm0,0c-23.1-.01-46.27-.75-69.19-3.86-6.63-1.15-13.64-1.86-19.64-5.15-6.32-4.51,4.82-7.57,8.2-8.45,26.38-6.01,53.69-6.42,80.63-6.81,26.94.4,54.24.81,80.63,6.81,3.5.9,14.45,3.94,8.2,8.44-5.99,3.29-13.01,4.01-19.63,5.15-22.92,3.11-46.09,3.86-69.19,3.87h0Z"/>
        <path class="cls-1" d="m412.31,157.1c19.52-.14,39.09-.63,58.49-2.95,4.82-.63,9.67-1.27,14.34-2.6,1.12-.35,2.26-.71,3.2-1.37.29-.21.46-.47.45-.59-.51-1.09-2.55-1.48-3.67-1.87-4.68-1.24-9.53-1.79-14.35-2.32-19.41-1.88-38.95-2.35-58.44-2.32-19.5-.02-39.03.45-58.44,2.33-4.82.53-9.67,1.08-14.35,2.32-1.12.33-2.26.66-3.21,1.3-.29.2-.46.45-.46.57,0,.12.16.38.45.59.94.66,2.08,1.02,3.19,1.37,4.67,1.33,9.52,1.97,14.34,2.6,19.39,2.32,38.97,2.81,58.49,2.96h0Zm0,0c-13.02.04-26.05-.2-39.06-.9-11.37-.73-22.89-1.11-34.01-3.78-1.21-.36-2.46-.72-3.53-1.46-.35-.26-.82-.65-.86-1.37.25-3.61,15.58-5,18.87-5.56,19.44-2.33,39.04-2.82,58.6-2.96,13.04.05,26.08.4,39.1,1.19,3.23.23,48.21,2.91,36.34,9.33-5.39,2.04-11.22,2.47-16.89,3.17-19.46,1.88-39.02,2.36-58.56,2.33h0Z"/>
    </g>
    </svg>