<svg xmlns="http://www.w3.org/2000/svg" xmlns:xlink="http://www.w3.org/1999/xlink" width="1000" zoomAndPan="magnify" viewBox="0 0 750 225" height="300" preserveAspectRatio="xMidYMid meet" version="1.0"><defs><g/></defs><g fill="#000000" fill-opacity="1"><g transform="translate(13.87237, 152.423735)"><g><path d="M 40.640625 47.109375 C 37.160156 47.109375 35.597656 45.191406 35.953125 41.359375 C 36.191406 39.078125 37.269531 36.316406 39.1875 33.078125 C 41.113281 29.847656 43.421875 26.492188 46.109375 23.015625 C 48.804688 19.535156 51.472656 16.328125 54.109375 13.390625 C 56.753906 10.453125 58.851562 8.144531 60.40625 6.46875 C 62.445312 4.070312 63.828125 1.554688 64.546875 -1.078125 C 66.828125 -9.585938 68.894531 -18.066406 70.75 -26.515625 C 72.601562 -34.972656 74.367188 -43.515625 76.046875 -52.140625 C 76.171875 -52.742188 76.257812 -53.40625 76.3125 -54.125 C 76.375 -54.84375 76.285156 -55.5 76.046875 -56.09375 C 74.972656 -56.09375 74.253906 -55.796875 73.890625 -55.203125 C 73.648438 -54.835938 73.410156 -54.472656 73.171875 -54.109375 C 72.929688 -53.753906 72.691406 -53.457031 72.453125 -53.21875 L 54.125 -31.640625 C 52.195312 -29.367188 49.46875 -26.34375 45.9375 -22.5625 C 42.40625 -18.789062 38.570312 -15.015625 34.4375 -11.234375 C 30.300781 -7.460938 26.191406 -4.195312 22.109375 -1.4375 C 18.035156 1.320312 14.5 2.878906 11.5 3.234375 C 11.144531 3.234375 10.90625 3.296875 10.78125 3.421875 C 10.664062 3.421875 10.546875 3.421875 10.421875 3.421875 C 10.304688 3.421875 10.1875 3.421875 10.0625 3.421875 C 6.707031 3.421875 4.25 1.984375 2.6875 -0.890625 C 1.132812 -3.773438 0.238281 -6.832031 0 -10.0625 C -0.125 -11.738281 -0.0351562 -13.382812 0.265625 -15 C 0.566406 -16.625 0.898438 -18.273438 1.265625 -19.953125 C 3.898438 -30.859375 7.460938 -41.253906 11.953125 -51.140625 C 16.453125 -61.035156 22.238281 -70.359375 29.3125 -79.109375 C 31.820312 -82.347656 34.785156 -85.582031 38.203125 -88.8125 C 41.617188 -92.050781 45.273438 -94.75 49.171875 -96.90625 C 53.066406 -99.0625 57.050781 -100.140625 61.125 -100.140625 C 66.039062 -100.140625 69.21875 -97.742188 70.65625 -92.953125 C 71.257812 -91.160156 71.5625 -89.421875 71.5625 -87.734375 C 71.5625 -85.941406 71.378906 -84.207031 71.015625 -82.53125 C 70.660156 -80.613281 69.882812 -78.003906 68.6875 -74.703125 C 67.488281 -71.410156 66.109375 -67.992188 64.546875 -64.453125 C 62.984375 -60.921875 61.363281 -57.804688 59.6875 -55.109375 C 58.007812 -52.410156 56.515625 -50.757812 55.203125 -50.15625 L 54.84375 -50.15625 C 54.125 -50.15625 53.703125 -50.21875 53.578125 -50.34375 C 53.097656 -50.695312 52.921875 -51.238281 53.046875 -51.96875 C 53.160156 -52.207031 53.304688 -52.445312 53.484375 -52.6875 C 53.671875 -52.925781 53.820312 -53.164062 53.9375 -53.40625 C 54.414062 -54.125 54.71875 -54.660156 54.84375 -55.015625 C 56.519531 -57.890625 58.078125 -60.796875 59.515625 -63.734375 C 60.953125 -66.671875 62.328125 -69.695312 63.640625 -72.8125 C 64.609375 -75.445312 65.390625 -77.992188 65.984375 -80.453125 C 66.585938 -82.910156 66.890625 -85.519531 66.890625 -88.28125 C 66.523438 -93.070312 64.546875 -95.46875 60.953125 -95.46875 C 58.191406 -95.46875 55.429688 -94.78125 52.671875 -93.40625 C 49.921875 -92.03125 47.523438 -90.5 45.484375 -88.8125 C 38.890625 -83.664062 32.957031 -77.164062 27.6875 -69.3125 C 22.414062 -61.457031 17.921875 -53.125 14.203125 -44.3125 C 10.484375 -35.507812 7.664062 -27.03125 5.75 -18.875 C 5.507812 -17.914062 5.328125 -16.957031 5.203125 -16 C 5.085938 -15.039062 4.972656 -14.082031 4.859375 -13.125 C 4.617188 -11.082031 4.675781 -9.523438 5.03125 -8.453125 C 5.75 -3.773438 7.546875 -1.4375 10.421875 -1.4375 C 12.109375 -1.4375 14.148438 -2.09375 16.546875 -3.40625 C 18.941406 -4.726562 21.394531 -6.378906 23.90625 -8.359375 C 26.425781 -10.335938 28.707031 -12.285156 30.75 -14.203125 C 32.664062 -16.003906 34.820312 -18.101562 37.21875 -20.5 C 39.613281 -22.894531 41.859375 -25.203125 43.953125 -27.421875 C 46.054688 -29.640625 47.523438 -31.285156 48.359375 -32.359375 C 50.765625 -35.117188 53.132812 -37.847656 55.46875 -40.546875 C 57.800781 -43.242188 60.109375 -45.96875 62.390625 -48.71875 C 64.671875 -51.476562 66.976562 -54.234375 69.3125 -56.984375 C 71.644531 -59.742188 73.953125 -62.445312 76.234375 -65.09375 C 77.316406 -66.53125 78.457031 -67.847656 79.65625 -69.046875 C 80.25 -69.398438 80.726562 -69.578125 81.09375 -69.578125 C 81.09375 -69.578125 81.570312 -69.457031 82.53125 -69.21875 C 83.125 -68.976562 83.421875 -68.320312 83.421875 -67.25 C 83.421875 -66.769531 83.390625 -66.316406 83.328125 -65.890625 C 83.273438 -65.472656 83.1875 -64.96875 83.0625 -64.375 C 81.269531 -55.019531 79.472656 -45.785156 77.671875 -36.671875 C 75.867188 -27.566406 73.832031 -18.398438 71.5625 -9.171875 C 70.957031 -8.085938 70.894531 -7.128906 71.375 -6.296875 L 71.921875 -6.296875 C 72.398438 -6.296875 72.785156 -6.441406 73.078125 -6.734375 C 73.378906 -7.035156 73.648438 -7.304688 73.890625 -7.546875 C 83.835938 -17.734375 94.207031 -27.5625 105 -37.03125 C 105.125 -37.15625 105.273438 -37.304688 105.453125 -37.484375 C 105.628906 -37.660156 105.78125 -37.8125 105.90625 -37.9375 C 106.257812 -38.289062 106.554688 -38.53125 106.796875 -38.65625 C 107.398438 -39.019531 107.941406 -39.203125 108.421875 -39.203125 C 109.015625 -39.203125 109.550781 -39.019531 110.03125 -38.65625 C 110.988281 -37.8125 110.988281 -36.734375 110.03125 -35.421875 L 108.421875 -33.796875 C 107.816406 -33.203125 107.1875 -32.601562 106.53125 -32 C 105.875 -31.40625 105.1875 -30.804688 104.46875 -30.203125 C 98.707031 -25.171875 93.097656 -19.988281 87.640625 -14.65625 C 82.191406 -9.320312 76.769531 -3.894531 71.375 1.625 C 68.863281 4.132812 67.007812 7.066406 65.8125 10.421875 C 64.96875 13.304688 63.765625 16.695312 62.203125 20.59375 C 60.648438 24.488281 58.851562 28.351562 56.8125 32.1875 C 54.78125 36.019531 52.503906 39.3125 49.984375 42.0625 C 47.460938 44.820312 44.765625 46.503906 41.890625 47.109375 Z M 42.4375 41.890625 C 44.351562 41.054688 46.148438 39.617188 47.828125 37.578125 C 49.859375 34.941406 51.625 32.15625 53.125 29.21875 C 54.625 26.28125 55.972656 23.253906 57.171875 20.140625 C 57.773438 18.816406 57.65625 17.796875 56.8125 17.078125 C 56.457031 18.035156 55.921875 18.875 55.203125 19.59375 C 54.484375 20.070312 53.820312 20.851562 53.21875 21.9375 C 52.382812 22.894531 51.601562 23.910156 50.875 24.984375 C 50.15625 26.066406 49.378906 27.085938 48.546875 28.046875 C 47.703125 29.003906 46.921875 29.992188 46.203125 31.015625 C 45.484375 32.035156 44.765625 33.023438 44.046875 33.984375 C 43.328125 34.941406 42.664062 35.988281 42.0625 37.125 C 41.46875 38.269531 41.113281 39.5 41 40.8125 C 41 41.175781 41.117188 41.476562 41.359375 41.71875 C 41.710938 42.070312 42.070312 42.128906 42.4375 41.890625 Z M 42.4375 41.890625 "/></g></g></g><g fill="#000000" fill-opacity="1"><g transform="translate(115.456777, 152.423735)"><g><path d="M 7.546875 -8.984375 C 5.390625 -8.984375 3.472656 -9.644531 1.796875 -10.96875 C 0.117188 -12.289062 -0.957031 -14.148438 -1.4375 -16.546875 C -1.800781 -18.335938 -1.921875 -19.894531 -1.796875 -21.21875 C -1.554688 -23.726562 -0.835938 -26.628906 0.359375 -29.921875 C 1.554688 -33.222656 3.171875 -36.3125 5.203125 -39.1875 C 7.242188 -42.070312 9.40625 -43.929688 11.6875 -44.765625 C 12.40625 -45.128906 13.1875 -45.3125 14.03125 -45.3125 C 15.101562 -45.1875 15.757812 -44.585938 16 -43.515625 C 16.238281 -42.078125 15.878906 -41.296875 14.921875 -41.171875 C 12.878906 -40.816406 11.316406 -39.976562 10.234375 -38.65625 C 9.160156 -37.332031 8.144531 -35.894531 7.1875 -34.34375 C 5.507812 -31.101562 4.3125 -28.046875 3.59375 -25.171875 C 3.113281 -23.847656 2.875 -22.109375 2.875 -19.953125 C 2.875 -16.484375 4.070312 -14.445312 6.46875 -13.84375 C 7.90625 -13.84375 9.101562 -14.019531 10.0625 -14.375 C 11.019531 -14.738281 11.921875 -15.640625 12.765625 -17.078125 C 13.960938 -18.992188 14.679688 -20.910156 14.921875 -22.828125 C 15.160156 -24.753906 14.625 -26.734375 13.3125 -28.765625 C 12.582031 -29.960938 11.976562 -31.160156 11.5 -32.359375 C 11.257812 -32.960938 11.347656 -33.53125 11.765625 -34.0625 C 12.191406 -34.601562 12.707031 -34.9375 13.3125 -35.0625 L 18.875 -35.0625 C 22.226562 -35.0625 25.585938 -35.597656 28.953125 -36.671875 C 29.785156 -36.910156 30.617188 -37.207031 31.453125 -37.5625 C 32.296875 -37.925781 33.140625 -38.226562 33.984375 -38.46875 C 34.816406 -38.71875 35.625 -39.019531 36.40625 -39.375 C 37.1875 -39.738281 38 -40.039062 38.84375 -40.28125 L 41.71875 -41 C 42.675781 -41 43.453125 -40.519531 44.046875 -39.5625 C 44.648438 -38.113281 44.171875 -37.148438 42.609375 -36.671875 C 40.929688 -36.078125 39.253906 -35.476562 37.578125 -34.875 C 35.898438 -34.28125 34.222656 -33.679688 32.546875 -33.078125 C 30.867188 -32.484375 29.160156 -31.972656 27.421875 -31.546875 C 25.679688 -31.128906 23.851562 -30.800781 21.9375 -30.5625 C 20.257812 -30.320312 19.328125 -30.050781 19.140625 -29.75 C 18.960938 -29.457031 18.992188 -28.53125 19.234375 -26.96875 C 19.953125 -23.488281 19.535156 -20.070312 17.984375 -16.71875 C 16.785156 -14.207031 14.984375 -12.109375 12.578125 -10.421875 C 10.898438 -9.460938 9.222656 -8.984375 7.546875 -8.984375 Z M 7.546875 -8.984375 "/></g></g></g><g fill="#000000" fill-opacity="1"><g transform="translate(150.696689, 152.423735)"><g><path d="M 7.546875 -8.984375 C 5.390625 -8.984375 3.472656 -9.644531 1.796875 -10.96875 C 0.117188 -12.289062 -0.957031 -14.148438 -1.4375 -16.546875 C -1.800781 -18.335938 -1.921875 -19.894531 -1.796875 -21.21875 C -1.554688 -23.726562 -0.835938 -26.628906 0.359375 -29.921875 C 1.554688 -33.222656 3.171875 -36.3125 5.203125 -39.1875 C 7.242188 -42.070312 9.40625 -43.929688 11.6875 -44.765625 C 12.40625 -45.128906 13.1875 -45.3125 14.03125 -45.3125 C 15.101562 -45.1875 15.757812 -44.585938 16 -43.515625 C 16.238281 -42.078125 15.878906 -41.296875 14.921875 -41.171875 C 12.878906 -40.816406 11.316406 -39.976562 10.234375 -38.65625 C 9.160156 -37.332031 8.144531 -35.894531 7.1875 -34.34375 C 5.507812 -31.101562 4.3125 -28.046875 3.59375 -25.171875 C 3.113281 -23.847656 2.875 -22.109375 2.875 -19.953125 C 2.875 -16.484375 4.070312 -14.445312 6.46875 -13.84375 C 7.90625 -13.84375 9.101562 -14.019531 10.0625 -14.375 C 11.019531 -14.738281 11.921875 -15.640625 12.765625 -17.078125 C 13.960938 -18.992188 14.679688 -20.910156 14.921875 -22.828125 C 15.160156 -24.753906 14.625 -26.734375 13.3125 -28.765625 C 12.582031 -29.960938 11.976562 -31.160156 11.5 -32.359375 C 11.257812 -32.960938 11.347656 -33.53125 11.765625 -34.0625 C 12.191406 -34.601562 12.707031 -34.9375 13.3125 -35.0625 L 18.875 -35.0625 C 22.226562 -35.0625 25.585938 -35.597656 28.953125 -36.671875 C 29.785156 -36.910156 30.617188 -37.207031 31.453125 -37.5625 C 32.296875 -37.925781 33.140625 -38.226562 33.984375 -38.46875 C 34.816406 -38.71875 35.625 -39.019531 36.40625 -39.375 C 37.1875 -39.738281 38 -40.039062 38.84375 -40.28125 L 41.71875 -41 C 42.675781 -41 43.453125 -40.519531 44.046875 -39.5625 C 44.648438 -38.113281 44.171875 -37.148438 42.609375 -36.671875 C 40.929688 -36.078125 39.253906 -35.476562 37.578125 -34.875 C 35.898438 -34.28125 34.222656 -33.679688 32.546875 -33.078125 C 30.867188 -32.484375 29.160156 -31.972656 27.421875 -31.546875 C 25.679688 -31.128906 23.851562 -30.800781 21.9375 -30.5625 C 20.257812 -30.320312 19.328125 -30.050781 19.140625 -29.75 C 18.960938 -29.457031 18.992188 -28.53125 19.234375 -26.96875 C 19.953125 -23.488281 19.535156 -20.070312 17.984375 -16.71875 C 16.785156 -14.207031 14.984375 -12.109375 12.578125 -10.421875 C 10.898438 -9.460938 9.222656 -8.984375 7.546875 -8.984375 Z M 7.546875 -8.984375 "/></g></g></g><g fill="#000000" fill-opacity="1"><g transform="translate(185.9366, 152.423735)"><g><path d="M 29.484375 26.4375 C 28.648438 26.4375 27.898438 25.65625 27.234375 24.09375 C 26.578125 22.53125 26.097656 20.640625 25.796875 18.421875 C 25.492188 16.210938 25.253906 14.085938 25.078125 12.046875 C 24.898438 10.003906 24.8125 8.566406 24.8125 7.734375 C 24.570312 0.535156 24.84375 -6.59375 25.625 -13.65625 C 26.40625 -20.726562 27.570312 -27.800781 29.125 -34.875 C 29.726562 -37.269531 30.328125 -39.664062 30.921875 -42.0625 C 31.523438 -44.46875 32.125 -46.867188 32.71875 -49.265625 C 32.957031 -49.859375 33.132812 -50.484375 33.25 -51.140625 C 33.375 -51.804688 33.316406 -52.5 33.078125 -53.21875 L 33.078125 -53.046875 C 32.003906 -52.441406 31.226562 -51.78125 30.75 -51.0625 C 30.507812 -50.582031 30.207031 -50.128906 29.84375 -49.703125 C 29.488281 -49.285156 29.191406 -48.835938 28.953125 -48.359375 C 25.472656 -43.328125 21.84375 -38.441406 18.0625 -33.703125 C 14.289062 -28.972656 10.25 -24.453125 5.9375 -20.140625 C 5.332031 -19.660156 4.757812 -19.238281 4.21875 -18.875 C 3.6875 -18.519531 3.0625 -18.222656 2.34375 -17.984375 C 1.257812 -17.984375 0.328125 -18.191406 -0.453125 -18.609375 C -1.234375 -19.023438 -1.679688 -19.832031 -1.796875 -21.03125 C -1.796875 -23.1875 -1.109375 -25.941406 0.265625 -29.296875 C 1.648438 -32.660156 3.238281 -35.957031 5.03125 -39.1875 C 6.832031 -42.425781 8.269531 -44.945312 9.34375 -46.75 C 10.300781 -48.0625 11.800781 -49.617188 13.84375 -51.421875 C 15.882812 -53.222656 17.679688 -54.125 19.234375 -54.125 C 20.910156 -54.125 22.410156 -52.742188 23.734375 -49.984375 C 24.328125 -50.222656 24.804688 -50.582031 25.171875 -51.0625 C 25.535156 -51.539062 25.835938 -52.019531 26.078125 -52.5 L 33.078125 -62.75 C 35.234375 -65.988281 37.238281 -69.316406 39.09375 -72.734375 C 40.957031 -76.148438 42.550781 -79.773438 43.875 -83.609375 C 45.90625 -90.203125 48.601562 -96.253906 51.96875 -101.765625 C 52.445312 -102.722656 52.953125 -103.679688 53.484375 -104.640625 C 54.023438 -105.597656 54.773438 -106.378906 55.734375 -106.984375 C 56.210938 -107.460938 56.8125 -107.703125 57.53125 -107.703125 C 58.488281 -107.703125 59.117188 -107.460938 59.421875 -106.984375 C 59.722656 -106.503906 59.992188 -105.785156 60.234375 -104.828125 C 60.234375 -103.867188 60.082031 -103 59.78125 -102.21875 C 59.476562 -101.4375 59.148438 -100.625 58.796875 -99.78125 C 57.710938 -96.789062 56.484375 -93.882812 55.109375 -91.0625 C 53.734375 -88.25 52.203125 -85.523438 50.515625 -82.890625 C 48.242188 -79.410156 46.085938 -75.003906 44.046875 -69.671875 C 42.015625 -64.335938 40.128906 -58.671875 38.390625 -52.671875 C 36.648438 -46.679688 35.179688 -40.898438 33.984375 -35.328125 C 32.785156 -29.753906 31.882812 -24.929688 31.28125 -20.859375 C 30.5625 -16.066406 30.019531 -11.300781 29.65625 -6.5625 C 29.300781 -1.820312 29.242188 3 29.484375 7.90625 C 29.609375 10.1875 29.816406 12.460938 30.109375 14.734375 C 30.410156 17.015625 30.863281 19.351562 31.46875 21.75 C 31.707031 22.46875 31.828125 22.828125 31.828125 22.828125 C 32.179688 24.753906 31.703125 25.894531 30.390625 26.25 C 30.265625 26.375 29.960938 26.4375 29.484375 26.4375 Z M 5.390625 -25.71875 C 8.148438 -28.945312 10.816406 -32.117188 13.390625 -35.234375 C 15.972656 -38.359375 18.460938 -41.597656 20.859375 -44.953125 C 21.097656 -45.429688 21.394531 -45.847656 21.75 -46.203125 C 22.113281 -46.566406 22.414062 -46.925781 22.65625 -47.28125 C 23.132812 -48 23.492188 -48.835938 23.734375 -49.796875 C 23.367188 -49.921875 22.648438 -49.984375 21.578125 -49.984375 C 19.773438 -49.984375 18.210938 -49.472656 16.890625 -48.453125 C 15.578125 -47.429688 14.320312 -46.144531 13.125 -44.59375 C 13.007812 -44.46875 12.890625 -44.34375 12.765625 -44.21875 C 12.640625 -44.101562 12.519531 -43.925781 12.40625 -43.6875 C 10.84375 -41.289062 9.492188 -38.894531 8.359375 -36.5 C 7.222656 -34.101562 6.175781 -31.644531 5.21875 -29.125 C 4.738281 -28.164062 4.796875 -27.03125 5.390625 -25.71875 Z M 5.390625 -25.71875 "/></g></g></g><g fill="#000000" fill-opacity="1"><g transform="translate(237.178303, 152.423735)"><g/></g></g><g fill="#000000" fill-opacity="1"><g transform="translate(305.500546, 152.423735)"><g><path d="M 3.0625 19.953125 C 1.625 19.953125 0.722656 19.175781 0.359375 17.625 C 0.242188 17.144531 0.15625 16.691406 0.09375 16.265625 C 0.03125 15.847656 0 15.398438 0 14.921875 C 0 14.441406 0 14.019531 0 13.65625 C 0 13.300781 0 12.882812 0 12.40625 C -0.125 8.207031 0.140625 4.160156 0.796875 0.265625 C 1.460938 -3.628906 2.21875 -7.550781 3.0625 -11.5 C 4.738281 -19.65625 6.804688 -27.628906 9.265625 -35.421875 C 11.722656 -43.210938 14.207031 -51.0625 16.71875 -58.96875 L 28.046875 -94.9375 C 28.285156 -95.414062 28.492188 -95.921875 28.671875 -96.453125 C 28.859375 -96.992188 29.007812 -97.503906 29.125 -97.984375 C 29.488281 -98.941406 29.96875 -99.898438 30.5625 -100.859375 C 31.28125 -101.703125 32 -102.125 32.71875 -102.125 C 33.195312 -102.125 33.5 -102.0625 33.625 -101.9375 C 34.820312 -101.21875 35.117188 -100.203125 34.515625 -98.890625 C 33.796875 -97.085938 33.132812 -95.285156 32.53125 -93.484375 C 31.9375 -91.691406 31.398438 -89.894531 30.921875 -88.09375 C 30.441406 -86.175781 29.898438 -84.316406 29.296875 -82.515625 C 28.703125 -80.722656 28.109375 -78.867188 27.515625 -76.953125 C 26.316406 -72.992188 25.085938 -69.035156 23.828125 -65.078125 C 22.566406 -61.128906 21.273438 -57.238281 19.953125 -53.40625 C 18.640625 -49.5625 17.351562 -45.660156 16.09375 -41.703125 C 14.832031 -37.753906 13.601562 -33.800781 12.40625 -29.84375 C 9.050781 -19.300781 6.65625 -8.210938 5.21875 3.421875 C 5.09375 4.015625 5 4.550781 4.9375 5.03125 C 4.882812 5.507812 4.859375 5.929688 4.859375 6.296875 C 4.859375 6.410156 4.859375 6.585938 4.859375 6.828125 C 4.859375 7.066406 4.859375 7.304688 4.859375 7.546875 C 4.734375 7.910156 4.972656 8.09375 5.578125 8.09375 C 6.171875 8.09375 6.53125 7.910156 6.65625 7.546875 C 6.894531 7.066406 7.070312 6.769531 7.1875 6.65625 C 7.425781 6.175781 7.632812 5.722656 7.8125 5.296875 C 8 4.878906 8.210938 4.429688 8.453125 3.953125 C 8.691406 3.472656 8.898438 3.023438 9.078125 2.609375 C 9.253906 2.191406 9.40625 1.742188 9.53125 1.265625 C 10.488281 -1.015625 11.503906 -3.265625 12.578125 -5.484375 C 13.660156 -7.703125 14.679688 -9.945312 15.640625 -12.21875 C 16.597656 -14.5 17.613281 -16.71875 18.6875 -18.875 C 19.769531 -21.03125 20.789062 -23.25 21.75 -25.53125 C 25.113281 -32.601562 29.039062 -40.0625 33.53125 -47.90625 C 38.03125 -55.757812 43.066406 -63.191406 48.640625 -70.203125 C 54.210938 -77.222656 60.234375 -82.890625 66.703125 -87.203125 C 66.941406 -87.316406 67.210938 -87.429688 67.515625 -87.546875 C 67.816406 -87.671875 68.085938 -87.796875 68.328125 -87.921875 C 68.566406 -88.035156 68.832031 -88.125 69.125 -88.1875 C 69.425781 -88.25 69.695312 -88.335938 69.9375 -88.453125 C 71.257812 -88.453125 72.367188 -88.210938 73.265625 -87.734375 C 74.160156 -87.253906 74.789062 -86.296875 75.15625 -84.859375 C 75.394531 -83.546875 75.484375 -82.171875 75.421875 -80.734375 C 75.359375 -79.296875 75.207031 -77.914062 74.96875 -76.59375 C 74.375 -73.476562 73.625 -70.359375 72.71875 -67.234375 C 71.820312 -64.117188 70.894531 -61.003906 69.9375 -57.890625 C 68.625 -53.941406 67.394531 -50.019531 66.25 -46.125 C 65.113281 -42.226562 64.066406 -38.238281 63.109375 -34.15625 C 62.628906 -32.238281 62.207031 -30.320312 61.84375 -28.40625 C 61.488281 -26.488281 61.3125 -24.507812 61.3125 -22.46875 C 61.3125 -21.507812 61.550781 -20.851562 62.03125 -20.5 C 62.144531 -20.375 62.382812 -20.3125 62.75 -20.3125 C 63.34375 -20.3125 63.820312 -20.613281 64.1875 -21.21875 C 65.144531 -22.289062 66.101562 -23.367188 67.0625 -24.453125 C 68.019531 -25.535156 68.921875 -26.675781 69.765625 -27.875 C 72.035156 -30.863281 74.25 -33.765625 76.40625 -36.578125 C 78.570312 -39.398438 80.910156 -42.191406 83.421875 -44.953125 C 85.335938 -47.347656 87.675781 -49.742188 90.4375 -52.140625 C 92 -53.578125 93.738281 -54.359375 95.65625 -54.484375 C 98.53125 -54.484375 100.476562 -53.582031 101.5 -51.78125 C 102.519531 -49.976562 103.269531 -47.878906 103.75 -45.484375 L 105.90625 -29.671875 C 106.257812 -27.992188 106.707031 -25.984375 107.25 -23.640625 C 107.789062 -21.304688 108.597656 -19.269531 109.671875 -17.53125 C 110.753906 -15.789062 112.253906 -14.921875 114.171875 -14.921875 C 115.847656 -14.921875 117.644531 -15.703125 119.5625 -17.265625 C 120.039062 -17.617188 120.757812 -18.332031 121.71875 -19.40625 C 122.675781 -20.488281 123.816406 -21.988281 125.140625 -23.90625 C 126.453125 -25.832031 128.007812 -28.019531 129.8125 -30.46875 C 131.613281 -32.925781 133.648438 -35.65625 135.921875 -38.65625 C 136.523438 -39.257812 137.003906 -39.617188 137.359375 -39.734375 C 137.484375 -39.859375 137.785156 -39.921875 138.265625 -39.921875 C 138.859375 -39.921875 139.273438 -39.800781 139.515625 -39.5625 C 140.234375 -39.195312 140.535156 -38.59375 140.421875 -37.75 C 140.054688 -36.675781 138.945312 -34.820312 137.09375 -32.1875 C 135.238281 -29.550781 133.109375 -26.734375 130.703125 -23.734375 C 128.304688 -20.734375 126.03125 -18.09375 123.875 -15.8125 C 121.71875 -13.539062 120.160156 -12.101562 119.203125 -11.5 C 116.929688 -10.539062 115.132812 -10.0625 113.8125 -10.0625 C 111.175781 -10.0625 108.835938 -11.410156 106.796875 -14.109375 C 104.765625 -16.804688 103.445312 -19.414062 102.84375 -21.9375 C 102.601562 -23.132812 102.390625 -24.269531 102.203125 -25.34375 C 102.023438 -26.425781 101.816406 -27.566406 101.578125 -28.765625 C 101.460938 -29.847656 101.3125 -30.925781 101.125 -32 C 100.945312 -33.082031 100.738281 -34.160156 100.5 -35.234375 C 100.382812 -36.078125 100.265625 -36.890625 100.140625 -37.671875 C 100.023438 -38.453125 99.90625 -39.257812 99.78125 -40.09375 C 99.664062 -40.8125 99.546875 -41.53125 99.421875 -42.25 C 99.304688 -42.96875 99.1875 -43.75 99.0625 -44.59375 C 98.820312 -45.425781 98.519531 -46.472656 98.15625 -47.734375 C 97.800781 -48.992188 97.085938 -49.625 96.015625 -49.625 C 95.535156 -49.625 94.816406 -49.320312 93.859375 -48.71875 C 93.015625 -48.238281 92.175781 -47.582031 91.34375 -46.75 C 90.625 -45.90625 89.84375 -45.125 89 -44.40625 C 83.96875 -38.894531 79.289062 -33.082031 74.96875 -26.96875 C 74.132812 -25.769531 73.207031 -24.570312 72.1875 -23.375 C 71.164062 -22.175781 70.175781 -20.914062 69.21875 -19.59375 C 67.664062 -17.675781 66.050781 -16.238281 64.375 -15.28125 C 63.289062 -14.5625 62.207031 -14.203125 61.125 -14.203125 C 58.851562 -14.203125 57.476562 -15.703125 57 -18.703125 C 56.757812 -19.660156 56.695312 -20.378906 56.8125 -20.859375 C 56.8125 -21.816406 56.753906 -22.472656 56.640625 -22.828125 C 56.878906 -25.953125 57.265625 -28.921875 57.796875 -31.734375 C 58.335938 -34.546875 58.96875 -37.332031 59.6875 -40.09375 C 60.769531 -43.925781 61.910156 -47.789062 63.109375 -51.6875 C 64.304688 -55.582031 65.503906 -59.445312 66.703125 -63.28125 C 67.421875 -65.6875 68.109375 -68.113281 68.765625 -70.5625 C 69.429688 -73.019531 69.941406 -75.507812 70.296875 -78.03125 C 70.535156 -78.75 70.65625 -79.410156 70.65625 -80.015625 C 70.65625 -80.367188 70.65625 -80.722656 70.65625 -81.078125 C 70.65625 -81.441406 70.65625 -81.804688 70.65625 -82.171875 C 70.65625 -82.648438 70.359375 -82.890625 69.765625 -82.890625 L 69.40625 -82.890625 C 69.164062 -82.765625 68.894531 -82.640625 68.59375 -82.515625 C 68.289062 -82.398438 68.019531 -82.285156 67.78125 -82.171875 C 67.539062 -82.046875 67.300781 -81.894531 67.0625 -81.71875 C 66.820312 -81.539062 66.582031 -81.390625 66.34375 -81.265625 C 61.3125 -77.429688 56.488281 -72.609375 51.875 -66.796875 C 47.257812 -60.984375 43.03125 -54.867188 39.1875 -48.453125 C 35.351562 -42.046875 32.0625 -35.960938 29.3125 -30.203125 C 28.113281 -27.691406 26.941406 -25.175781 25.796875 -22.65625 C 24.660156 -20.132812 23.492188 -17.617188 22.296875 -15.109375 C 21.097656 -12.460938 19.898438 -9.878906 18.703125 -7.359375 C 17.503906 -4.847656 16.304688 -2.273438 15.109375 0.359375 C 14.628906 1.554688 14.117188 2.691406 13.578125 3.765625 C 13.035156 4.847656 12.523438 5.988281 12.046875 7.1875 C 10.960938 9.46875 9.820312 11.75 8.625 14.03125 C 7.789062 15.820312 6.710938 17.4375 5.390625 18.875 C 4.671875 19.59375 3.894531 19.953125 3.0625 19.953125 Z M 3.0625 19.953125 "/></g></g></g><g fill="#000000" fill-opacity="1"><g transform="translate(436.930981, 152.423735)"><g><path d="M 7.546875 -8.984375 C 5.390625 -8.984375 3.472656 -9.644531 1.796875 -10.96875 C 0.117188 -12.289062 -0.957031 -14.148438 -1.4375 -16.546875 C -1.800781 -18.335938 -1.921875 -19.894531 -1.796875 -21.21875 C -1.554688 -23.726562 -0.835938 -26.628906 0.359375 -29.921875 C 1.554688 -33.222656 3.171875 -36.3125 5.203125 -39.1875 C 7.242188 -42.070312 9.40625 -43.929688 11.6875 -44.765625 C 12.40625 -45.128906 13.1875 -45.3125 14.03125 -45.3125 C 15.101562 -45.1875 15.757812 -44.585938 16 -43.515625 C 16.238281 -42.078125 15.878906 -41.296875 14.921875 -41.171875 C 12.878906 -40.816406 11.316406 -39.976562 10.234375 -38.65625 C 9.160156 -37.332031 8.144531 -35.894531 7.1875 -34.34375 C 5.507812 -31.101562 4.3125 -28.046875 3.59375 -25.171875 C 3.113281 -23.847656 2.875 -22.109375 2.875 -19.953125 C 2.875 -16.484375 4.070312 -14.445312 6.46875 -13.84375 C 7.90625 -13.84375 9.101562 -14.019531 10.0625 -14.375 C 11.019531 -14.738281 11.921875 -15.640625 12.765625 -17.078125 C 13.960938 -18.992188 14.679688 -20.910156 14.921875 -22.828125 C 15.160156 -24.753906 14.625 -26.734375 13.3125 -28.765625 C 12.582031 -29.960938 11.976562 -31.160156 11.5 -32.359375 C 11.257812 -32.960938 11.347656 -33.53125 11.765625 -34.0625 C 12.191406 -34.601562 12.707031 -34.9375 13.3125 -35.0625 L 18.875 -35.0625 C 22.226562 -35.0625 25.585938 -35.597656 28.953125 -36.671875 C 29.785156 -36.910156 30.617188 -37.207031 31.453125 -37.5625 C 32.296875 -37.925781 33.140625 -38.226562 33.984375 -38.46875 C 34.816406 -38.71875 35.625 -39.019531 36.40625 -39.375 C 37.1875 -39.738281 38 -40.039062 38.84375 -40.28125 L 41.71875 -41 C 42.675781 -41 43.453125 -40.519531 44.046875 -39.5625 C 44.648438 -38.113281 44.171875 -37.148438 42.609375 -36.671875 C 40.929688 -36.078125 39.253906 -35.476562 37.578125 -34.875 C 35.898438 -34.28125 34.222656 -33.679688 32.546875 -33.078125 C 30.867188 -32.484375 29.160156 -31.972656 27.421875 -31.546875 C 25.679688 -31.128906 23.851562 -30.800781 21.9375 -30.5625 C 20.257812 -30.320312 19.328125 -30.050781 19.140625 -29.75 C 18.960938 -29.457031 18.992188 -28.53125 19.234375 -26.96875 C 19.953125 -23.488281 19.535156 -20.070312 17.984375 -16.71875 C 16.785156 -14.207031 14.984375 -12.109375 12.578125 -10.421875 C 10.898438 -9.460938 9.222656 -8.984375 7.546875 -8.984375 Z M 7.546875 -8.984375 "/></g></g></g><g fill="#000000" fill-opacity="1"><g transform="translate(472.170893, 152.423735)"><g><path d="M -0.546875 3.0625 C -0.660156 3.0625 -0.75 3.0625 -0.8125 3.0625 C -0.875 3.0625 -0.960938 3.0625 -1.078125 3.0625 C -1.078125 2.9375 -1.195312 2.875 -1.4375 2.875 C -2.632812 2.519531 -3.351562 1.625 -3.59375 0.1875 C -3.59375 -0.175781 -3.59375 -0.535156 -3.59375 -0.890625 C -3.59375 -1.253906 -3.65625 -1.675781 -3.78125 -2.15625 C -3.78125 -2.519531 -3.78125 -2.878906 -3.78125 -3.234375 C -3.78125 -3.597656 -3.71875 -4.019531 -3.59375 -4.5 C -2.394531 -12.53125 -0.597656 -19.78125 1.796875 -26.25 C 4.191406 -32.71875 6.945312 -39.550781 10.0625 -46.75 C 10.300781 -47.226562 10.539062 -47.675781 10.78125 -48.09375 C 11.019531 -48.507812 11.257812 -48.898438 11.5 -49.265625 C 11.863281 -49.617188 12.40625 -49.796875 13.125 -49.796875 L 13.671875 -49.796875 C 14.628906 -49.441406 15.046875 -48.84375 14.921875 -48 C 14.921875 -46.925781 14.625 -45.609375 14.03125 -44.046875 C 13.3125 -42.253906 12.5625 -40.457031 11.78125 -38.65625 C 11 -36.851562 10.1875 -35.054688 9.34375 -33.265625 C 8.144531 -30.503906 7.066406 -27.742188 6.109375 -24.984375 C 5.148438 -22.234375 4.3125 -19.476562 3.59375 -16.71875 C 3.351562 -15.757812 3.144531 -14.800781 2.96875 -13.84375 C 2.789062 -12.882812 2.941406 -11.925781 3.421875 -10.96875 L 3.234375 -10.96875 L 3.421875 -10.78125 L 10.421875 -24.984375 C 11.859375 -27.742188 13.65625 -30.53125 15.8125 -33.34375 C 17.976562 -36.164062 20.4375 -38.414062 23.1875 -40.09375 C 23.90625 -40.457031 24.625 -40.640625 25.34375 -40.640625 C 26.789062 -40.640625 27.929688 -39.914062 28.765625 -38.46875 C 29.003906 -38.226562 29.210938 -37.925781 29.390625 -37.5625 C 29.578125 -37.207031 29.726562 -36.851562 29.84375 -36.5 C 29.96875 -35.78125 30.269531 -35.0625 30.75 -34.34375 C 32.0625 -32.1875 33.5 -31.109375 35.0625 -31.109375 C 36.132812 -31.109375 37.453125 -31.585938 39.015625 -32.546875 C 40.578125 -33.503906 42.164062 -34.582031 43.78125 -35.78125 C 45.394531 -36.976562 46.679688 -38 47.640625 -38.84375 C 48.359375 -39.5625 49.140625 -40.160156 49.984375 -40.640625 C 50.097656 -40.753906 50.335938 -40.8125 50.703125 -40.8125 C 51.179688 -40.8125 51.660156 -40.632812 52.140625 -40.28125 C 52.859375 -39.5625 53.039062 -38.835938 52.6875 -38.109375 C 52.207031 -37.148438 51.664062 -36.375 51.0625 -35.78125 C 49.976562 -34.695312 48.476562 -33.40625 46.5625 -31.90625 C 44.644531 -30.414062 42.664062 -29.128906 40.625 -28.046875 C 38.59375 -26.972656 36.738281 -26.4375 35.0625 -26.4375 C 32.0625 -26.4375 29.601562 -27.753906 27.6875 -30.390625 C 27.445312 -30.742188 27.207031 -31.097656 26.96875 -31.453125 C 26.726562 -31.816406 26.488281 -32.179688 26.25 -32.546875 C 26.132812 -32.898438 25.953125 -33.253906 25.703125 -33.609375 C 25.460938 -33.972656 25.222656 -34.335938 24.984375 -34.703125 C 24.148438 -34.703125 23.519531 -34.519531 23.09375 -34.15625 C 22.675781 -33.800781 22.289062 -33.382812 21.9375 -32.90625 C 20.257812 -31.226562 18.757812 -29.398438 17.4375 -27.421875 C 16.125 -25.441406 14.925781 -23.429688 13.84375 -21.390625 C 13.125 -19.953125 12.40625 -18.515625 11.6875 -17.078125 C 10.96875 -15.640625 10.304688 -14.203125 9.703125 -12.765625 C 8.984375 -11.328125 8.265625 -9.890625 7.546875 -8.453125 C 6.828125 -7.015625 6.050781 -5.515625 5.21875 -3.953125 C 4.738281 -2.992188 4.226562 -2.0625 3.6875 -1.15625 C 3.144531 -0.257812 2.578125 0.664062 1.984375 1.625 C 1.378906 2.582031 0.535156 3.0625 -0.546875 3.0625 Z M -0.546875 3.0625 "/></g></g></g><g fill="#000000" fill-opacity="1"><g transform="translate(516.040964, 152.423735)"><g><path d="M -0.90625 -1.796875 C -2.34375 -1.796875 -3.179688 -2.632812 -3.421875 -4.3125 C -3.535156 -4.675781 -3.59375 -5.457031 -3.59375 -6.65625 C -3.238281 -9.769531 -2.640625 -12.820312 -1.796875 -15.8125 C -0.960938 -18.8125 -0.0625 -21.8125 0.90625 -24.8125 C 1.738281 -27.09375 2.570312 -29.335938 3.40625 -31.546875 C 4.25 -33.765625 5.09375 -36.015625 5.9375 -38.296875 C 6.769531 -40.578125 7.601562 -42.820312 8.4375 -45.03125 C 9.28125 -47.25 10.125 -49.5 10.96875 -51.78125 C 11.5625 -52.625 12.25 -53.910156 13.03125 -55.640625 C 13.8125 -57.378906 14.679688 -58.25 15.640625 -58.25 C 15.640625 -58.25 16 -58.128906 16.71875 -57.890625 C 17.914062 -57.171875 18.21875 -56.15625 17.625 -54.84375 L 16.546875 -52.6875 C 15.703125 -50.40625 14.828125 -48.125 13.921875 -45.84375 C 13.023438 -43.570312 12.160156 -41.296875 11.328125 -39.015625 C 10.484375 -36.734375 9.613281 -34.425781 8.71875 -32.09375 C 7.820312 -29.757812 6.894531 -27.453125 5.9375 -25.171875 C 5.8125 -24.691406 5.660156 -24.179688 5.484375 -23.640625 C 5.304688 -23.097656 5.097656 -22.53125 4.859375 -21.9375 C 4.378906 -20.976562 4.4375 -19.835938 5.03125 -18.515625 C 5.75 -20.078125 7.066406 -22.296875 8.984375 -25.171875 C 10.898438 -28.046875 13.054688 -31.039062 15.453125 -34.15625 C 17.859375 -37.28125 20.257812 -39.921875 22.65625 -42.078125 C 25.050781 -44.234375 27.148438 -45.3125 28.953125 -45.3125 C 30.984375 -45.3125 32.296875 -44.472656 32.890625 -42.796875 C 33.492188 -41.117188 33.914062 -39.5 34.15625 -37.9375 C 34.28125 -37.09375 34.367188 -36.3125 34.421875 -35.59375 C 34.484375 -34.875 34.578125 -34.15625 34.703125 -33.4375 C 34.703125 -32.71875 34.726562 -32 34.78125 -31.28125 C 34.84375 -30.5625 34.9375 -29.84375 35.0625 -29.125 C 35.175781 -27.09375 35.710938 -25.234375 36.671875 -23.546875 C 37.035156 -22.585938 37.757812 -22.109375 38.84375 -22.109375 C 39.082031 -22.109375 39.257812 -22.171875 39.375 -22.296875 C 39.375 -22.296875 39.40625 -22.296875 39.46875 -22.296875 C 39.53125 -22.296875 39.617188 -22.296875 39.734375 -22.296875 C 40.816406 -22.648438 41.835938 -23.15625 42.796875 -23.8125 C 43.753906 -24.476562 44.710938 -25.234375 45.671875 -26.078125 C 46.503906 -26.796875 47.28125 -27.515625 48 -28.234375 C 48.71875 -28.953125 49.5 -29.726562 50.34375 -30.5625 C 51.0625 -31.28125 51.8125 -32 52.59375 -32.71875 C 53.375 -33.4375 54.179688 -34.15625 55.015625 -34.875 C 55.972656 -35.71875 56.78125 -36.4375 57.4375 -37.03125 C 58.101562 -37.632812 58.554688 -38.054688 58.796875 -38.296875 C 59.035156 -38.535156 59.273438 -38.773438 59.515625 -39.015625 C 59.753906 -39.253906 59.929688 -39.4375 60.046875 -39.5625 C 60.410156 -39.914062 60.832031 -40.09375 61.3125 -40.09375 C 61.789062 -40.09375 62.207031 -39.914062 62.5625 -39.5625 C 63.40625 -38.832031 63.644531 -37.988281 63.28125 -37.03125 C 62.925781 -36.070312 62.390625 -35.234375 61.671875 -34.515625 C 61.191406 -34.035156 60.257812 -33.164062 58.875 -31.90625 C 57.5 -30.65625 56.003906 -29.28125 54.390625 -27.78125 C 52.773438 -26.28125 51.273438 -24.929688 49.890625 -23.734375 C 48.515625 -22.535156 47.585938 -21.695312 47.109375 -21.21875 C 44.953125 -19.175781 42.554688 -17.914062 39.921875 -17.4375 C 39.796875 -17.4375 39.671875 -17.4375 39.546875 -17.4375 C 39.429688 -17.4375 39.316406 -17.4375 39.203125 -17.4375 C 38.960938 -17.320312 38.660156 -17.265625 38.296875 -17.265625 C 35.898438 -17.265625 33.984375 -18.519531 32.546875 -21.03125 C 31.460938 -23.070312 30.800781 -25.289062 30.5625 -27.6875 C 30.445312 -28.644531 30.359375 -29.570312 30.296875 -30.46875 C 30.234375 -31.375 30.144531 -32.242188 30.03125 -33.078125 C 29.90625 -33.921875 29.78125 -34.789062 29.65625 -35.6875 C 29.539062 -36.582031 29.425781 -37.453125 29.3125 -38.296875 C 29.070312 -39.253906 28.648438 -39.734375 28.046875 -39.734375 C 27.566406 -39.734375 27.148438 -39.554688 26.796875 -39.203125 C 22.117188 -35.003906 18.007812 -30.265625 14.46875 -24.984375 C 10.9375 -19.710938 7.789062 -14.257812 5.03125 -8.625 C 4.789062 -8.144531 4.519531 -7.632812 4.21875 -7.09375 C 3.925781 -6.5625 3.660156 -5.992188 3.421875 -5.390625 C 3.179688 -4.796875 2.847656 -4.257812 2.421875 -3.78125 C 2.003906 -3.300781 1.5 -2.820312 0.90625 -2.34375 C 0.425781 -1.976562 -0.175781 -1.796875 -0.90625 -1.796875 Z M -0.90625 -1.796875 "/></g></g></g><g fill="#000000" fill-opacity="1"><g transform="translate(570.518969, 152.423735)"><g><path d="M 7.734375 -6.46875 C 4.378906 -6.46875 2.039062 -8.207031 0.71875 -11.6875 C 0.363281 -12.644531 0.15625 -13.632812 0.09375 -14.65625 C 0.03125 -15.675781 0 -16.84375 0 -18.15625 C 0.476562 -20.789062 1.015625 -23.9375 1.609375 -27.59375 C 2.210938 -31.25 3.023438 -34.722656 4.046875 -38.015625 C 5.066406 -41.316406 6.351562 -43.75 7.90625 -45.3125 C 8.507812 -45.664062 8.988281 -45.84375 9.34375 -45.84375 C 9.46875 -45.84375 9.890625 -45.722656 10.609375 -45.484375 C 11.441406 -45.128906 11.738281 -44.472656 11.5 -43.515625 C 9.945312 -39.554688 8.570312 -35.390625 7.375 -31.015625 C 6.175781 -26.640625 5.273438 -22.351562 4.671875 -18.15625 C 4.554688 -16.84375 4.675781 -15.285156 5.03125 -13.484375 C 5.269531 -12.523438 5.6875 -11.925781 6.28125 -11.6875 C 6.882812 -11.445312 7.664062 -11.328125 8.625 -11.328125 C 9.945312 -11.566406 11.144531 -11.984375 12.21875 -12.578125 C 13.300781 -13.179688 14.382812 -13.90625 15.46875 -14.75 C 17.863281 -16.78125 20.171875 -18.875 22.390625 -21.03125 C 24.609375 -23.1875 26.734375 -25.46875 28.765625 -27.875 C 29.484375 -28.707031 30.203125 -29.539062 30.921875 -30.375 C 31.640625 -31.21875 32.300781 -32.0625 32.90625 -32.90625 C 33.5 -33.738281 34.15625 -34.570312 34.875 -35.40625 C 35.59375 -36.25 36.3125 -37.09375 37.03125 -37.9375 C 37.394531 -38.414062 37.785156 -38.832031 38.203125 -39.1875 C 38.628906 -39.550781 39.082031 -39.914062 39.5625 -40.28125 C 39.800781 -40.519531 40.097656 -40.640625 40.453125 -40.640625 C 40.929688 -40.640625 41.351562 -40.457031 41.71875 -40.09375 C 42.4375 -39.613281 42.675781 -38.894531 42.4375 -37.9375 C 42.3125 -37.21875 41.953125 -36.554688 41.359375 -35.953125 C 38.234375 -31.878906 35.023438 -27.925781 31.734375 -24.09375 C 28.441406 -20.257812 24.816406 -16.664062 20.859375 -13.3125 C 19.179688 -11.75 17.171875 -10.21875 14.828125 -8.71875 C 12.492188 -7.21875 10.128906 -6.46875 7.734375 -6.46875 Z M 12.40625 -52.328125 C 10.601562 -52.085938 9.582031 -53.222656 9.34375 -55.734375 C 9.34375 -57.890625 10.421875 -58.96875 12.578125 -58.96875 C 14.859375 -58.96875 16.0625 -58.007812 16.1875 -56.09375 C 16.1875 -55.132812 15.796875 -54.265625 15.015625 -53.484375 C 14.234375 -52.710938 13.363281 -52.328125 12.40625 -52.328125 Z M 12.40625 -52.328125 "/></g></g></g><g fill="#000000" fill-opacity="1"><g transform="translate(603.960938, 152.423735)"><g><path d="M -0.90625 -1.796875 C -2.34375 -1.796875 -3.179688 -2.632812 -3.421875 -4.3125 C -3.535156 -4.675781 -3.59375 -5.457031 -3.59375 -6.65625 C -3.238281 -9.769531 -2.640625 -12.820312 -1.796875 -15.8125 C -0.960938 -18.8125 -0.0625 -21.8125 0.90625 -24.8125 C 1.738281 -27.09375 2.570312 -29.335938 3.40625 -31.546875 C 4.25 -33.765625 5.09375 -36.015625 5.9375 -38.296875 C 6.769531 -40.578125 7.601562 -42.820312 8.4375 -45.03125 C 9.28125 -47.25 10.125 -49.5 10.96875 -51.78125 C 11.5625 -52.625 12.25 -53.910156 13.03125 -55.640625 C 13.8125 -57.378906 14.679688 -58.25 15.640625 -58.25 C 15.640625 -58.25 16 -58.128906 16.71875 -57.890625 C 17.914062 -57.171875 18.21875 -56.15625 17.625 -54.84375 L 16.546875 -52.6875 C 15.703125 -50.40625 14.828125 -48.125 13.921875 -45.84375 C 13.023438 -43.570312 12.160156 -41.296875 11.328125 -39.015625 C 10.484375 -36.734375 9.613281 -34.425781 8.71875 -32.09375 C 7.820312 -29.757812 6.894531 -27.453125 5.9375 -25.171875 C 5.8125 -24.691406 5.660156 -24.179688 5.484375 -23.640625 C 5.304688 -23.097656 5.097656 -22.53125 4.859375 -21.9375 C 4.378906 -20.976562 4.4375 -19.835938 5.03125 -18.515625 C 5.75 -20.078125 7.066406 -22.296875 8.984375 -25.171875 C 10.898438 -28.046875 13.054688 -31.039062 15.453125 -34.15625 C 17.859375 -37.28125 20.257812 -39.921875 22.65625 -42.078125 C 25.050781 -44.234375 27.148438 -45.3125 28.953125 -45.3125 C 30.984375 -45.3125 32.296875 -44.472656 32.890625 -42.796875 C 33.492188 -41.117188 33.914062 -39.5 34.15625 -37.9375 C 34.28125 -37.09375 34.367188 -36.3125 34.421875 -35.59375 C 34.484375 -34.875 34.578125 -34.15625 34.703125 -33.4375 C 34.703125 -32.71875 34.726562 -32 34.78125 -31.28125 C 34.84375 -30.5625 34.9375 -29.84375 35.0625 -29.125 C 35.175781 -27.09375 35.710938 -25.234375 36.671875 -23.546875 C 37.035156 -22.585938 37.757812 -22.109375 38.84375 -22.109375 C 39.082031 -22.109375 39.257812 -22.171875 39.375 -22.296875 C 39.375 -22.296875 39.40625 -22.296875 39.46875 -22.296875 C 39.53125 -22.296875 39.617188 -22.296875 39.734375 -22.296875 C 40.816406 -22.648438 41.835938 -23.15625 42.796875 -23.8125 C 43.753906 -24.476562 44.710938 -25.234375 45.671875 -26.078125 C 46.503906 -26.796875 47.28125 -27.515625 48 -28.234375 C 48.71875 -28.953125 49.5 -29.726562 50.34375 -30.5625 C 51.0625 -31.28125 51.8125 -32 52.59375 -32.71875 C 53.375 -33.4375 54.179688 -34.15625 55.015625 -34.875 C 55.972656 -35.71875 56.78125 -36.4375 57.4375 -37.03125 C 58.101562 -37.632812 58.554688 -38.054688 58.796875 -38.296875 C 59.035156 -38.535156 59.273438 -38.773438 59.515625 -39.015625 C 59.753906 -39.253906 59.929688 -39.4375 60.046875 -39.5625 C 60.410156 -39.914062 60.832031 -40.09375 61.3125 -40.09375 C 61.789062 -40.09375 62.207031 -39.914062 62.5625 -39.5625 C 63.40625 -38.832031 63.644531 -37.988281 63.28125 -37.03125 C 62.925781 -36.070312 62.390625 -35.234375 61.671875 -34.515625 C 61.191406 -34.035156 60.257812 -33.164062 58.875 -31.90625 C 57.5 -30.65625 56.003906 -29.28125 54.390625 -27.78125 C 52.773438 -26.28125 51.273438 -24.929688 49.890625 -23.734375 C 48.515625 -22.535156 47.585938 -21.695312 47.109375 -21.21875 C 44.953125 -19.175781 42.554688 -17.914062 39.921875 -17.4375 C 39.796875 -17.4375 39.671875 -17.4375 39.546875 -17.4375 C 39.429688 -17.4375 39.316406 -17.4375 39.203125 -17.4375 C 38.960938 -17.320312 38.660156 -17.265625 38.296875 -17.265625 C 35.898438 -17.265625 33.984375 -18.519531 32.546875 -21.03125 C 31.460938 -23.070312 30.800781 -25.289062 30.5625 -27.6875 C 30.445312 -28.644531 30.359375 -29.570312 30.296875 -30.46875 C 30.234375 -31.375 30.144531 -32.242188 30.03125 -33.078125 C 29.90625 -33.921875 29.78125 -34.789062 29.65625 -35.6875 C 29.539062 -36.582031 29.425781 -37.453125 29.3125 -38.296875 C 29.070312 -39.253906 28.648438 -39.734375 28.046875 -39.734375 C 27.566406 -39.734375 27.148438 -39.554688 26.796875 -39.203125 C 22.117188 -35.003906 18.007812 -30.265625 14.46875 -24.984375 C 10.9375 -19.710938 7.789062 -14.257812 5.03125 -8.625 C 4.789062 -8.144531 4.519531 -7.632812 4.21875 -7.09375 C 3.925781 -6.5625 3.660156 -5.992188 3.421875 -5.390625 C 3.179688 -4.796875 2.847656 -4.257812 2.421875 -3.78125 C 2.003906 -3.300781 1.5 -2.820312 0.90625 -2.34375 C 0.425781 -1.976562 -0.175781 -1.796875 -0.90625 -1.796875 Z M -0.90625 -1.796875 "/></g></g></g><g fill="#000000" fill-opacity="1"><g transform="translate(658.438944, 152.423735)"><g><path d="M 10.421875 63.640625 C 8.628906 63.640625 7.375 62.5625 6.65625 60.40625 C 6.050781 57.53125 6.109375 54.597656 6.828125 51.609375 C 8.023438 46.929688 9.882812 42.164062 12.40625 37.3125 C 14.925781 32.457031 17.773438 27.78125 20.953125 23.28125 C 24.128906 18.789062 27.210938 14.742188 30.203125 11.140625 C 31.398438 9.703125 32.414062 8.203125 33.25 6.640625 C 34.09375 5.085938 34.753906 3.472656 35.234375 1.796875 C 36.316406 -1.796875 37.394531 -5.390625 38.46875 -8.984375 C 39.550781 -12.585938 40.632812 -16.125 41.71875 -19.59375 C 42.675781 -23.070312 43.691406 -26.609375 44.765625 -30.203125 C 45.847656 -33.796875 46.988281 -37.394531 48.1875 -41 C 48.425781 -41.59375 48.601562 -42.160156 48.71875 -42.703125 C 48.84375 -43.242188 48.785156 -43.929688 48.546875 -44.765625 C 47.828125 -44.648438 47.109375 -44.234375 46.390625 -43.515625 C 46.148438 -43.273438 45.878906 -42.972656 45.578125 -42.609375 C 45.273438 -42.253906 45.003906 -41.957031 44.765625 -41.71875 C 43.210938 -40.28125 41.625 -38.835938 40 -37.390625 C 38.382812 -35.953125 36.796875 -34.515625 35.234375 -33.078125 C 33.679688 -31.640625 32.066406 -30.203125 30.390625 -28.765625 C 28.710938 -27.328125 27.03125 -25.945312 25.34375 -24.625 C 24.144531 -23.664062 22.4375 -22.378906 20.21875 -20.765625 C 18.007812 -19.148438 15.734375 -17.710938 13.390625 -16.453125 C 11.054688 -15.191406 9.171875 -14.503906 7.734375 -14.390625 C 5.816406 -14.390625 4.226562 -14.75 2.96875 -15.46875 C 1.707031 -16.1875 0.835938 -17.5625 0.359375 -19.59375 C -0.00390625 -21.269531 -0.125 -22.914062 0 -24.53125 C 0.125 -26.15625 0.363281 -27.804688 0.71875 -29.484375 C 3.832031 -41.234375 10.722656 -49.863281 21.390625 -55.375 C 22.710938 -55.976562 24.0625 -56.488281 25.4375 -56.90625 C 26.820312 -57.320312 28.234375 -57.53125 29.671875 -57.53125 C 32.785156 -57.53125 35.539062 -56.628906 37.9375 -54.828125 C 40.332031 -53.035156 41.53125 -50.398438 41.53125 -46.921875 C 41.65625 -46.804688 41.957031 -46.75 42.4375 -46.75 C 43.03125 -46.75 43.507812 -46.925781 43.875 -47.28125 C 43.988281 -47.519531 44.226562 -47.820312 44.59375 -48.1875 C 45.1875 -48.78125 45.78125 -49.347656 46.375 -49.890625 C 46.976562 -50.429688 47.582031 -50.941406 48.1875 -51.421875 C 48.78125 -52.023438 49.347656 -52.566406 49.890625 -53.046875 C 50.429688 -53.523438 51.003906 -54.003906 51.609375 -54.484375 C 52.085938 -54.960938 52.6875 -55.203125 53.40625 -55.203125 C 53.882812 -55.203125 54.363281 -55.082031 54.84375 -54.84375 C 56.039062 -54.125 56.519531 -53.101562 56.28125 -51.78125 C 56.15625 -51.0625 56.003906 -50.34375 55.828125 -49.625 C 55.648438 -48.90625 55.441406 -48.1875 55.203125 -47.46875 C 55.078125 -46.75 54.894531 -46.03125 54.65625 -45.3125 C 54.414062 -44.59375 54.175781 -43.929688 53.9375 -43.328125 C 51.894531 -37.578125 50.035156 -31.851562 48.359375 -26.15625 C 46.679688 -20.46875 45.066406 -14.742188 43.515625 -8.984375 C 43.273438 -8.390625 43.09375 -7.820312 42.96875 -7.28125 C 42.851562 -6.738281 42.914062 -6.171875 43.15625 -5.578125 C 44.113281 -5.816406 44.832031 -6.175781 45.3125 -6.65625 C 45.789062 -7.375 46.269531 -7.972656 46.75 -8.453125 C 51.539062 -13.484375 56.484375 -18.363281 61.578125 -23.09375 C 66.671875 -27.832031 71.859375 -32.476562 77.140625 -37.03125 L 79.828125 -39.203125 C 80.546875 -39.441406 80.90625 -39.5625 80.90625 -39.5625 C 81.625 -39.5625 82.164062 -39.257812 82.53125 -38.65625 C 83.25 -37.8125 83.25 -36.910156 82.53125 -35.953125 C 82.289062 -35.597656 81.929688 -35.179688 81.453125 -34.703125 C 81.210938 -34.460938 81 -34.25 80.8125 -34.0625 C 80.632812 -33.882812 80.425781 -33.675781 80.1875 -33.4375 C 77.1875 -30.6875 74.21875 -27.988281 71.28125 -25.34375 C 68.351562 -22.707031 65.328125 -20.015625 62.203125 -17.265625 C 60.765625 -15.941406 58.726562 -13.988281 56.09375 -11.40625 C 53.457031 -8.832031 50.726562 -6.015625 47.90625 -2.953125 C 45.09375 0.0976562 42.609375 3.0625 40.453125 5.9375 C 38.296875 8.8125 36.914062 11.148438 36.3125 12.953125 C 35.71875 14.503906 35.148438 16.085938 34.609375 17.703125 C 34.066406 19.328125 33.5 20.976562 32.90625 22.65625 C 32.425781 24.207031 31.882812 25.789062 31.28125 27.40625 C 30.6875 29.03125 30.085938 30.679688 29.484375 32.359375 C 29.003906 33.921875 28.015625 36.410156 26.515625 39.828125 C 25.015625 43.242188 23.335938 46.78125 21.484375 50.4375 C 19.628906 54.09375 17.710938 57.207031 15.734375 59.78125 C 13.753906 62.351562 11.984375 63.640625 10.421875 63.640625 Z M 11.6875 56.28125 C 11.800781 56.28125 11.859375 56.28125 11.859375 56.28125 C 11.859375 56.28125 11.921875 56.28125 12.046875 56.28125 C 12.046875 56.15625 12.101562 56.09375 12.21875 56.09375 C 12.820312 55.5 13.1875 55.019531 13.3125 54.65625 C 16.0625 50.21875 18.515625 45.691406 20.671875 41.078125 C 22.828125 36.460938 24.75 31.703125 26.4375 26.796875 C 26.550781 26.671875 26.609375 26.367188 26.609375 25.890625 C 26.609375 25.523438 26.3125 25.222656 25.71875 24.984375 C 23.789062 27.265625 21.867188 30.019531 19.953125 33.25 C 18.035156 36.488281 16.328125 39.816406 14.828125 43.234375 C 13.328125 46.648438 12.21875 49.800781 11.5 52.6875 C 11.382812 52.925781 11.296875 53.164062 11.234375 53.40625 C 11.171875 53.644531 11.140625 53.882812 11.140625 54.125 C 11.140625 54.71875 11.082031 55.195312 10.96875 55.5625 C 10.96875 55.5625 11.085938 55.679688 11.328125 55.921875 C 11.441406 56.035156 11.5 56.09375 11.5 56.09375 C 11.5 56.09375 11.5625 56.15625 11.6875 56.28125 Z M 7.015625 -19.0625 C 7.253906 -19.0625 7.492188 -19.085938 7.734375 -19.140625 C 7.972656 -19.203125 8.269531 -19.296875 8.625 -19.421875 C 11.382812 -20.734375 13.90625 -22.171875 16.1875 -23.734375 C 19.300781 -25.890625 22.328125 -28.222656 25.265625 -30.734375 C 28.203125 -33.253906 31.109375 -35.773438 33.984375 -38.296875 C 36.253906 -40.210938 37.210938 -42.191406 36.859375 -44.234375 L 36.859375 -47.28125 C 36.617188 -49.320312 35.78125 -50.734375 34.34375 -51.515625 C 32.90625 -52.296875 31.285156 -52.6875 29.484375 -52.6875 C 28.523438 -52.6875 27.625 -52.566406 26.78125 -52.328125 C 25.945312 -52.085938 25.050781 -51.785156 24.09375 -51.421875 C 13.78125 -46.390625 7.425781 -38.179688 5.03125 -26.796875 C 4.675781 -25.472656 4.617188 -23.734375 4.859375 -21.578125 C 5.097656 -19.898438 5.816406 -19.0625 7.015625 -19.0625 Z M 7.015625 -19.0625 "/></g></g></g><g fill="#000000" fill-opacity="1"><g transform="translate(732.527171, 152.423735)"><g/></g></g></svg>