<?xml version="1.0" encoding="utf-8"?>
<!-- Generator: Adobe Illustrator 24.3.0, SVG Export Plug-In . SVG Version: 6.00 Build 0)  -->
<svg version="1.1" id="Layer_1" xmlns="http://www.w3.org/2000/svg" xmlns:xlink="http://www.w3.org/1999/xlink" x="0px" y="0px"
	 viewBox="0 0 520 520" style="enable-background:new 0 0 520 520;" xml:space="preserve">
<style type="text/css">
	.st0{fill:#CCCAC6;}
</style>
<g>
	<g>
		<path class="st0" d="M499.73,83.43l0.3,300.92l0.07,37.62l0.03,18.81l0.01,4.7c-0.01,0.78,0.04,1.55-0.07,2.4
			c-0.12,0.83-0.4,1.63-0.82,2.35c-0.84,1.45-2.24,2.53-3.82,3.05c-0.78,0.26-1.63,0.37-2.44,0.37l-2.35,0l-75.23,0.13l-150.46,0.27
			l-150.46,0.12l-37.62,0.03l-18.81,0.01l-9.4,0.01l-4.7,0c-0.4,0-0.76,0.01-1.2-0.01c-0.45-0.01-0.89-0.07-1.34-0.14
			c-0.88-0.18-1.73-0.51-2.5-0.97c-1.54-0.93-2.75-2.43-3.26-4.19c-0.13-0.44-0.21-0.89-0.25-1.35c-0.03-0.48-0.03-0.88-0.03-1.26
			l0-2.35l0-9.4l0.01-18.81l0.03-37.62c0.08-100.31,0.07-200.62,0.42-300.92l0-0.05l0.01-0.05c0.22-1.46,1.13-2.75,2.24-3.6
			c1.11-0.87,2.37-1.41,3.63-1.85c2.46-0.86,4.88-1.79,7.32-2.67l14.61-5.39l29.22-10.79l0.08-0.03l0.09,0l208.25,0.82l104.12,0.3
			l26.03,0.08l6.51,0.02c1.08,0.02,2.19,0.05,3.23,0.42c1.03,0.36,2,0.86,2.99,1.3c3.96,1.77,7.95,3.48,11.92,5.22
			c2,0.85,3.96,1.78,5.98,2.55l6.13,2.18l12.26,4.36l12.26,4.36c1.02,0.37,2.05,0.71,3.06,1.1c1,0.4,2.02,0.87,2.74,1.69
			c0.75,0.81,0.99,1.94,1.08,3.01C499.69,81.26,499.69,82.34,499.73,83.43z M499.73,83.43c-0.04-1.08-0.04-2.17-0.13-3.25
			c-0.09-1.07-0.33-2.19-1.08-3c-0.72-0.82-1.75-1.29-2.74-1.69c-1.01-0.39-2.04-0.73-3.06-1.1l-12.27-4.34l-12.27-4.34l-6.14-2.17
			c-2.03-0.77-3.99-1.7-5.99-2.55c-3.98-1.74-7.97-3.44-11.93-5.2c-0.99-0.44-1.96-0.93-2.98-1.29c-1.02-0.36-2.12-0.39-3.2-0.41
			l-6.51-0.01l-26.03-0.04l-104.12-0.16L93.02,53.77l0.17-0.03l-29.2,10.9l-14.6,5.45c-2.44,0.9-4.86,1.84-7.31,2.7
			c-1.18,0.42-2.34,0.93-3.27,1.68c-0.94,0.73-1.61,1.72-1.79,2.85l0.01-0.1l0.28,300.92l0.03,37.62l0.01,18.81l0,9.4l0,2.35
			c-0.01,0.84,0.01,1.39,0.2,2.05c0.36,1.26,1.24,2.36,2.38,3.05c0.57,0.35,1.2,0.6,1.86,0.73c0.33,0.05,0.66,0.1,1,0.11
			c0.34,0.02,0.77,0,1.15,0.01l4.7,0l9.4,0.01l18.81,0.01l37.62,0.03l150.46,0.12l150.46,0.27l75.23,0.13l2.35,0
			c0.76,0,1.48-0.09,2.18-0.32c1.4-0.45,2.64-1.41,3.38-2.68c0.37-0.63,0.62-1.33,0.73-2.05c0.1-0.7,0.06-1.51,0.07-2.29l0.01-4.7
			l0.03-18.81l0.07-37.62L499.73,83.43z"/>
	</g>
	<g>
		<path class="st0" d="M60.82,74.97l103.45,0.39l103.09,0.25l102.81,0.33l102.76,0.48l-0.41,1.91l-44.38-19.58l0.39,0.08
			l-161.9-0.33l-80.95-0.29l-80.95-0.41l0.08-0.02L60.82,74.97z M60.82,74.97l43.82-17.59l0.04-0.02l0.04,0l80.95-0.26l80.95-0.14
			l161.9-0.05l0.2,0l0.19,0.08l44.41,19.52l4.42,1.94l-4.82-0.03l-103.29-0.74l-103.24-0.89l-102.96-0.97L60.82,74.97z"/>
	</g>
	<g>
		<path class="st0" d="M61.99,88.39c1.26,0,2.54,0.56,3.33,1.56c0.4,0.49,0.69,1.08,0.81,1.7c0.12,0.63,0.06,1.27,0.08,1.9l0.02,7.6
			l0.04,15.2l0.07,30.4l0.35,60.8l0.36,60.8l0.07,30.4l0.04,15.2l0.02,7.6l0,0.95c0.01,0.29-0.02,0.77-0.09,1.14
			c-0.15,0.79-0.51,1.52-1,2.13c-0.98,1.24-2.54,1.94-4.09,1.94c-1.55,0-3.11-0.7-4.1-1.94c-0.49-0.61-0.86-1.35-1-2.13
			c-0.08-0.37-0.1-0.85-0.09-1.14l0-0.95l0.02-7.6l0.04-15.2l0.07-30.4l0.35-60.8l0.36-60.8l0.07-30.4l0.04-15.2l0.02-7.6
			c0.02-0.63-0.04-1.27,0.08-1.9c0.12-0.63,0.41-1.21,0.81-1.7C59.46,88.96,60.73,88.39,61.99,88.39z M61.99,88.39
			c-1.26,0.01-2.53,0.58-3.32,1.57c-0.39,0.49-0.69,1.07-0.8,1.7c-0.12,0.62-0.06,1.26-0.07,1.89l0.02,7.6l0.04,15.2l0.07,30.4
			l0.36,60.8l0.35,60.8l0.07,30.4l0.04,15.2l0.02,7.6l0,0.95c0,0.34,0.01,0.5,0.06,0.75c0.09,0.46,0.31,0.89,0.61,1.27
			c0.6,0.76,1.58,1.19,2.56,1.19c0.98,0,1.96-0.44,2.56-1.19c0.3-0.37,0.52-0.81,0.61-1.27c0.04-0.25,0.06-0.41,0.06-0.75l0-0.95
			l0.02-7.6l0.04-15.2l0.07-30.4l0.36-60.8l0.35-60.8l0.07-30.4l0.04-15.2l0.02-7.6c-0.01-0.63,0.05-1.27-0.07-1.89
			c-0.11-0.62-0.41-1.2-0.8-1.7C64.52,88.97,63.26,88.4,61.99,88.39z"/>
	</g>
	<g>
		<path class="st0" d="M77.15,88.39c1.26,0,2.54,0.56,3.33,1.56c0.4,0.49,0.69,1.08,0.81,1.7c0.12,0.63,0.06,1.27,0.08,1.9l0.02,7.6
			l0.04,15.2l0.07,30.4l0.35,60.8l0.36,60.8l0.07,30.4l0.04,15.2l0.02,7.6l0,0.95c0.01,0.29-0.02,0.77-0.09,1.14
			c-0.15,0.79-0.51,1.52-1,2.13c-0.98,1.24-2.54,1.94-4.09,1.94c-1.55,0-3.11-0.7-4.1-1.94c-0.49-0.61-0.86-1.35-1-2.13
			c-0.08-0.37-0.1-0.85-0.09-1.14l0-0.95l0.02-7.6l0.04-15.2l0.07-30.4l0.35-60.8l0.36-60.8l0.07-30.4l0.04-15.2l0.02-7.6
			c0.02-0.63-0.04-1.27,0.08-1.9c0.12-0.63,0.41-1.21,0.81-1.7C74.62,88.96,75.89,88.39,77.15,88.39z M77.15,88.39
			c-1.26,0.01-2.53,0.58-3.32,1.57c-0.39,0.49-0.69,1.07-0.8,1.7c-0.12,0.62-0.06,1.26-0.07,1.89l0.02,7.6l0.04,15.2l0.07,30.4
			l0.36,60.8l0.35,60.8l0.07,30.4l0.04,15.2l0.02,7.6l0,0.95c0,0.34,0.01,0.5,0.06,0.75c0.09,0.46,0.31,0.89,0.61,1.26
			c0.6,0.76,1.58,1.19,2.56,1.19c0.98,0,1.96-0.44,2.56-1.19c0.3-0.37,0.52-0.81,0.61-1.27c0.04-0.25,0.06-0.41,0.06-0.75l0-0.95
			l0.02-7.6l0.04-15.2l0.07-30.4l0.36-60.8l0.35-60.8l0.07-30.4l0.04-15.2l0.02-7.6c-0.01-0.63,0.05-1.27-0.07-1.89
			c-0.11-0.62-0.41-1.2-0.8-1.7C79.68,88.97,78.42,88.4,77.15,88.39z"/>
	</g>
	<g>
		<path class="st0" d="M92.31,88.39c1.26,0,2.54,0.56,3.33,1.56c0.4,0.49,0.69,1.08,0.81,1.7c0.12,0.63,0.06,1.27,0.08,1.9l0.02,7.6
			l0.04,15.2l0.07,30.4l0.35,60.8l0.36,60.8l0.07,30.4l0.04,15.2l0.02,7.6l0,0.95c0.01,0.29-0.02,0.77-0.09,1.14
			c-0.15,0.79-0.51,1.52-1,2.13c-0.98,1.24-2.54,1.94-4.09,1.94c-1.55,0-3.11-0.7-4.1-1.94c-0.49-0.61-0.86-1.35-1-2.13
			c-0.08-0.37-0.1-0.85-0.09-1.14l0-0.95l0.02-7.6l0.04-15.2l0.07-30.4l0.35-60.8l0.36-60.8l0.07-30.4l0.04-15.2l0.02-7.6
			c0.02-0.63-0.04-1.27,0.08-1.9c0.12-0.63,0.41-1.21,0.81-1.7C89.78,88.96,91.05,88.39,92.31,88.39z M92.31,88.39
			c-1.26,0.01-2.53,0.58-3.32,1.57c-0.39,0.49-0.69,1.07-0.8,1.7c-0.12,0.62-0.06,1.26-0.07,1.89l0.02,7.6l0.04,15.2l0.07,30.4
			l0.36,60.8l0.35,60.8l0.07,30.4l0.04,15.2l0.02,7.6l0,0.95c0,0.34,0.01,0.5,0.06,0.75c0.09,0.46,0.31,0.89,0.61,1.27
			c0.6,0.76,1.58,1.19,2.56,1.19c0.98,0,1.96-0.44,2.56-1.19c0.3-0.37,0.52-0.81,0.61-1.27c0.04-0.25,0.06-0.41,0.06-0.75l0-0.95
			l0.02-7.6l0.04-15.2l0.07-30.4l0.36-60.8l0.35-60.8l0.07-30.4l0.04-15.2l0.02-7.6c-0.01-0.63,0.05-1.27-0.07-1.89
			c-0.11-0.62-0.41-1.2-0.8-1.7C94.84,88.97,93.58,88.4,92.31,88.39z"/>
	</g>
	<g>
		<path class="st0" d="M107.47,88.39c1.26,0,2.54,0.56,3.33,1.56c0.4,0.49,0.69,1.08,0.81,1.7c0.12,0.63,0.06,1.27,0.08,1.9
			l0.02,7.6l0.04,15.2l0.07,30.4l0.35,60.8l0.36,60.8l0.07,30.4l0.04,15.2l0.02,7.6l0,0.95c0.01,0.29-0.02,0.77-0.09,1.14
			c-0.15,0.79-0.51,1.52-1,2.13c-0.98,1.24-2.54,1.94-4.09,1.94c-1.55,0-3.11-0.7-4.1-1.94c-0.49-0.61-0.86-1.35-1-2.13
			c-0.08-0.37-0.1-0.85-0.09-1.14l0-0.95l0.02-7.6l0.04-15.2l0.07-30.4l0.35-60.8l0.36-60.8l0.07-30.4l0.04-15.2l0.02-7.6
			c0.02-0.63-0.04-1.27,0.08-1.9c0.12-0.63,0.41-1.21,0.81-1.7C104.94,88.96,106.21,88.39,107.47,88.39z M107.47,88.39
			c-1.26,0.01-2.53,0.58-3.32,1.57c-0.39,0.49-0.69,1.07-0.8,1.7c-0.12,0.62-0.06,1.26-0.07,1.89l0.02,7.6l0.04,15.2l0.07,30.4
			l0.36,60.8l0.35,60.8l0.07,30.4l0.04,15.2l0.02,7.6l0,0.95c0,0.34,0.01,0.5,0.06,0.75c0.09,0.46,0.31,0.89,0.61,1.27
			c0.6,0.76,1.58,1.19,2.56,1.19c0.98,0,1.96-0.44,2.56-1.19c0.3-0.37,0.52-0.81,0.61-1.27c0.04-0.25,0.06-0.41,0.06-0.75l0-0.95
			l0.02-7.6l0.04-15.2l0.07-30.4l0.36-60.8l0.35-60.8l0.07-30.4l0.04-15.2l0.02-7.6c-0.01-0.63,0.05-1.27-0.07-1.89
			c-0.11-0.62-0.41-1.2-0.8-1.7C110.01,88.97,108.74,88.4,107.47,88.39z"/>
	</g>
	<g>
		<path class="st0" d="M122.64,88.39c1.26,0,2.54,0.56,3.33,1.56c0.4,0.49,0.69,1.08,0.81,1.7c0.12,0.63,0.06,1.27,0.08,1.9
			l0.02,7.6l0.04,15.2l0.07,30.4l0.35,60.8l0.36,60.8l0.07,30.4l0.04,15.2l0.02,7.6l0,0.95c0.01,0.29-0.02,0.77-0.09,1.14
			c-0.15,0.79-0.51,1.52-1,2.13c-0.98,1.24-2.54,1.94-4.09,1.94c-1.55,0-3.11-0.7-4.1-1.94c-0.49-0.61-0.86-1.35-1-2.13
			c-0.08-0.37-0.1-0.85-0.09-1.14l0-0.95l0.02-7.6l0.04-15.2l0.07-30.4l0.35-60.8l0.36-60.8l0.07-30.4l0.04-15.2l0.02-7.6
			c0.02-0.63-0.04-1.27,0.08-1.9c0.12-0.63,0.41-1.21,0.81-1.7C120.1,88.96,121.37,88.39,122.64,88.39z M122.64,88.39
			c-1.26,0.01-2.53,0.58-3.32,1.57c-0.39,0.49-0.69,1.07-0.8,1.7c-0.12,0.62-0.06,1.26-0.07,1.89l0.02,7.6l0.04,15.2l0.07,30.4
			l0.36,60.8l0.35,60.8l0.07,30.4l0.04,15.2l0.02,7.6l0,0.95c0,0.34,0.01,0.5,0.06,0.75c0.09,0.46,0.31,0.89,0.61,1.27
			c0.6,0.76,1.58,1.19,2.56,1.19c0.98,0,1.96-0.44,2.56-1.19c0.3-0.37,0.52-0.81,0.61-1.27c0.04-0.25,0.06-0.41,0.06-0.75l0-0.95
			l0.02-7.6l0.04-15.2l0.07-30.4l0.36-60.8l0.35-60.8l0.07-30.4l0.04-15.2l0.02-7.6c-0.01-0.63,0.05-1.27-0.07-1.89
			c-0.11-0.62-0.41-1.2-0.8-1.7C125.17,88.97,123.9,88.4,122.64,88.39z"/>
	</g>
	<g>
		<path class="st0" d="M137.8,88.39c1.26,0,2.54,0.56,3.33,1.56c0.4,0.49,0.69,1.08,0.81,1.7c0.12,0.63,0.06,1.27,0.08,1.9l0.02,7.6
			l0.04,15.2l0.07,30.4l0.35,60.8l0.36,60.8l0.07,30.4l0.04,15.2l0.02,7.6l0,0.95c0.01,0.29-0.02,0.77-0.09,1.14
			c-0.15,0.79-0.51,1.52-1,2.13c-0.98,1.24-2.54,1.94-4.09,1.94c-1.55,0-3.11-0.7-4.1-1.94c-0.49-0.61-0.86-1.35-1-2.13
			c-0.08-0.37-0.1-0.85-0.09-1.14l0-0.95l0.02-7.6l0.04-15.2l0.07-30.4l0.35-60.8l0.36-60.8l0.07-30.4l0.04-15.2l0.02-7.6
			c0.02-0.63-0.04-1.27,0.08-1.9c0.12-0.63,0.41-1.21,0.81-1.7C135.26,88.96,136.53,88.39,137.8,88.39z M137.8,88.39
			c-1.26,0.01-2.53,0.58-3.32,1.57c-0.39,0.49-0.69,1.07-0.8,1.7c-0.12,0.62-0.06,1.26-0.07,1.89l0.02,7.6l0.04,15.2l0.07,30.4
			l0.36,60.8l0.35,60.8l0.07,30.4l0.04,15.2l0.02,7.6l0,0.95c0,0.34,0.01,0.5,0.06,0.75c0.09,0.46,0.31,0.89,0.61,1.27
			c0.6,0.76,1.58,1.19,2.56,1.19c0.98,0,1.96-0.44,2.56-1.19c0.3-0.37,0.52-0.81,0.61-1.27c0.04-0.25,0.06-0.41,0.06-0.75l0-0.95
			l0.02-7.6l0.04-15.2l0.07-30.4l0.36-60.8l0.35-60.8l0.07-30.4l0.04-15.2l0.02-7.6c-0.01-0.63,0.05-1.27-0.07-1.89
			c-0.11-0.62-0.41-1.2-0.8-1.7C140.33,88.97,139.06,88.4,137.8,88.39z"/>
	</g>
	<g>
		<path class="st0" d="M152.96,88.39c1.26,0,2.54,0.56,3.33,1.56c0.4,0.49,0.69,1.08,0.81,1.7c0.12,0.63,0.06,1.27,0.08,1.9
			l0.02,7.6l0.04,15.2l0.07,30.4l0.35,60.8l0.36,60.8l0.07,30.4l0.04,15.2l0.02,7.6l0,0.95c0.01,0.29-0.02,0.77-0.09,1.14
			c-0.15,0.79-0.51,1.52-1,2.13c-0.98,1.24-2.54,1.94-4.09,1.94c-1.55,0-3.11-0.7-4.1-1.94c-0.49-0.61-0.86-1.35-1-2.13
			c-0.08-0.37-0.1-0.85-0.09-1.14l0-0.95l0.02-7.6l0.04-15.2l0.07-30.4l0.35-60.8l0.36-60.8l0.07-30.4l0.04-15.2l0.02-7.6
			c0.02-0.63-0.04-1.27,0.08-1.9c0.12-0.63,0.41-1.21,0.81-1.7C150.42,88.96,151.69,88.39,152.96,88.39z M152.96,88.39
			c-1.26,0.01-2.53,0.58-3.32,1.57c-0.39,0.49-0.69,1.07-0.8,1.7c-0.12,0.62-0.06,1.26-0.07,1.89l0.02,7.6l0.04,15.2l0.07,30.4
			l0.36,60.8l0.35,60.8l0.07,30.4l0.04,15.2l0.02,7.6l0,0.95c0,0.34,0.01,0.5,0.06,0.75c0.09,0.46,0.31,0.89,0.61,1.27
			c0.6,0.76,1.58,1.19,2.56,1.19c0.98,0,1.96-0.44,2.56-1.19c0.3-0.37,0.52-0.81,0.61-1.27c0.04-0.25,0.06-0.41,0.06-0.75l0-0.95
			l0.02-7.6l0.04-15.2l0.07-30.4l0.36-60.8l0.35-60.8l0.07-30.4l0.04-15.2l0.02-7.6c-0.01-0.63,0.05-1.27-0.07-1.89
			c-0.11-0.62-0.41-1.2-0.8-1.7C155.49,88.97,154.22,88.4,152.96,88.39z"/>
	</g>
	<g>
		<path class="st0" d="M168.12,88.39c1.26,0,2.54,0.56,3.33,1.56c0.4,0.49,0.69,1.08,0.81,1.7c0.12,0.63,0.06,1.27,0.08,1.9
			l0.02,7.6l0.04,15.2l0.07,30.4l0.35,60.8l0.36,60.8l0.07,30.4l0.04,15.2l0.02,7.6l0,0.95c0.01,0.29-0.02,0.77-0.09,1.14
			c-0.15,0.79-0.51,1.52-1,2.13c-0.98,1.24-2.54,1.94-4.09,1.94c-1.55,0-3.11-0.7-4.1-1.94c-0.49-0.61-0.86-1.35-1-2.13
			c-0.08-0.37-0.1-0.85-0.09-1.14l0-0.95l0.02-7.6l0.04-15.2l0.07-30.4l0.35-60.8l0.36-60.8l0.07-30.4l0.04-15.2l0.02-7.6
			c0.02-0.63-0.04-1.27,0.08-1.9c0.12-0.63,0.41-1.21,0.81-1.7C165.58,88.96,166.85,88.39,168.12,88.39z M168.12,88.39
			c-1.26,0.01-2.53,0.58-3.32,1.57c-0.39,0.49-0.69,1.07-0.8,1.7c-0.12,0.62-0.06,1.26-0.07,1.89l0.02,7.6l0.04,15.2l0.07,30.4
			l0.36,60.8l0.35,60.8l0.07,30.4l0.04,15.2l0.02,7.6l0,0.95c0,0.34,0.01,0.5,0.06,0.75c0.09,0.46,0.31,0.89,0.61,1.27
			c0.6,0.76,1.58,1.19,2.56,1.19c0.98,0,1.96-0.44,2.56-1.19c0.3-0.37,0.52-0.81,0.61-1.27c0.04-0.25,0.06-0.41,0.06-0.75l0-0.95
			l0.02-7.6l0.04-15.2l0.07-30.4l0.36-60.8l0.35-60.8l0.07-30.4l0.04-15.2l0.02-7.6c-0.01-0.63,0.05-1.27-0.07-1.89
			c-0.11-0.62-0.41-1.2-0.8-1.7C170.65,88.97,169.38,88.4,168.12,88.39z"/>
	</g>
	<g>
		<path class="st0" d="M183.28,88.39c1.26,0,2.54,0.56,3.33,1.56c0.4,0.49,0.69,1.08,0.81,1.7c0.12,0.63,0.06,1.27,0.08,1.9
			l0.02,7.6l0.04,15.2l0.07,30.4l0.35,60.8l0.36,60.8l0.07,30.4l0.04,15.2l0.02,7.6l0,0.95c0.01,0.29-0.02,0.77-0.09,1.14
			c-0.15,0.79-0.51,1.52-1,2.13c-0.98,1.24-2.54,1.94-4.09,1.94c-1.55,0-3.11-0.7-4.1-1.94c-0.49-0.61-0.86-1.35-1-2.13
			c-0.08-0.37-0.1-0.85-0.09-1.14l0-0.95l0.02-7.6l0.04-15.2l0.07-30.4l0.35-60.8l0.36-60.8l0.07-30.4l0.04-15.2l0.02-7.6
			c0.02-0.63-0.04-1.27,0.08-1.9c0.12-0.63,0.41-1.21,0.81-1.7C180.74,88.96,182.01,88.39,183.28,88.39z M183.28,88.39
			c-1.26,0.01-2.53,0.58-3.32,1.57c-0.39,0.49-0.69,1.07-0.8,1.7c-0.12,0.62-0.06,1.26-0.07,1.89l0.02,7.6l0.04,15.2l0.07,30.4
			l0.36,60.8l0.35,60.8l0.07,30.4l0.04,15.2l0.02,7.6l0,0.95c0,0.34,0.01,0.5,0.06,0.75c0.09,0.46,0.31,0.89,0.61,1.27
			c0.6,0.76,1.58,1.19,2.56,1.19c0.98,0,1.96-0.44,2.56-1.19c0.3-0.37,0.52-0.81,0.61-1.27c0.04-0.25,0.06-0.41,0.06-0.75l0-0.95
			l0.02-7.6l0.04-15.2l0.07-30.4l0.36-60.8l0.35-60.8l0.07-30.4l0.04-15.2l0.02-7.6c-0.01-0.63,0.05-1.27-0.07-1.89
			c-0.11-0.62-0.41-1.2-0.8-1.7C185.81,88.97,184.54,88.4,183.28,88.39z"/>
	</g>
	<g>
		<path class="st0" d="M198.44,88.39c1.26,0,2.54,0.56,3.33,1.56c0.4,0.49,0.69,1.08,0.81,1.7c0.12,0.63,0.06,1.27,0.08,1.9
			l0.02,7.6l0.04,15.2l0.07,30.4l0.35,60.8l0.36,60.8l0.07,30.4l0.04,15.2l0.02,7.6l0,0.95c0.01,0.29-0.02,0.77-0.09,1.14
			c-0.15,0.79-0.51,1.52-1,2.13c-0.98,1.24-2.54,1.94-4.09,1.94c-1.55,0-3.11-0.7-4.1-1.94c-0.49-0.61-0.86-1.35-1-2.13
			c-0.08-0.37-0.1-0.85-0.09-1.14l0-0.95l0.02-7.6l0.04-15.2l0.07-30.4l0.35-60.8l0.36-60.8l0.07-30.4l0.04-15.2l0.02-7.6
			c0.02-0.63-0.04-1.27,0.08-1.9c0.12-0.63,0.41-1.21,0.81-1.7C195.9,88.96,197.17,88.39,198.44,88.39z M198.44,88.39
			c-1.26,0.01-2.53,0.58-3.32,1.57c-0.39,0.49-0.69,1.07-0.8,1.7c-0.12,0.62-0.06,1.26-0.07,1.89l0.02,7.6l0.04,15.2l0.07,30.4
			l0.36,60.8l0.35,60.8l0.07,30.4l0.04,15.2l0.02,7.6l0,0.95c0,0.34,0.01,0.5,0.06,0.75c0.09,0.46,0.31,0.89,0.61,1.27
			c0.6,0.76,1.58,1.19,2.56,1.19c0.98,0,1.96-0.44,2.56-1.19c0.3-0.37,0.52-0.81,0.61-1.27c0.04-0.25,0.06-0.41,0.06-0.75l0-0.95
			l0.02-7.6l0.04-15.2l0.07-30.4l0.36-60.8l0.35-60.8l0.07-30.4l0.04-15.2l0.02-7.6c-0.01-0.63,0.05-1.27-0.07-1.89
			c-0.11-0.62-0.41-1.2-0.8-1.7C200.97,88.97,199.7,88.4,198.44,88.39z"/>
	</g>
	<g>
		<path class="st0" d="M213.6,88.39c1.26,0,2.54,0.56,3.33,1.56c0.4,0.49,0.69,1.08,0.81,1.7c0.12,0.63,0.06,1.27,0.08,1.9l0.02,7.6
			l0.04,15.2l0.07,30.4l0.35,60.8l0.36,60.8l0.07,30.4l0.04,15.2l0.02,7.6l0,0.95c0.01,0.29-0.02,0.77-0.09,1.14
			c-0.15,0.79-0.51,1.52-1,2.13c-0.98,1.24-2.54,1.94-4.09,1.94c-1.55,0-3.11-0.7-4.1-1.94c-0.49-0.61-0.86-1.35-1-2.13
			c-0.08-0.37-0.1-0.85-0.09-1.14l0-0.95l0.02-7.6l0.04-15.2l0.07-30.4l0.35-60.8l0.36-60.8l0.07-30.4l0.04-15.2l0.02-7.6
			c0.02-0.63-0.04-1.27,0.08-1.9c0.12-0.63,0.41-1.21,0.81-1.7C211.06,88.96,212.34,88.39,213.6,88.39z M213.6,88.39
			c-1.26,0.01-2.53,0.58-3.32,1.57c-0.39,0.49-0.69,1.07-0.8,1.7c-0.12,0.62-0.06,1.26-0.07,1.89l0.02,7.6l0.04,15.2l0.07,30.4
			l0.36,60.8l0.35,60.8l0.07,30.4l0.04,15.2l0.02,7.6l0,0.95c0,0.34,0.01,0.5,0.06,0.75c0.09,0.46,0.31,0.89,0.61,1.27
			c0.6,0.76,1.58,1.19,2.56,1.19c0.98,0,1.96-0.44,2.56-1.19c0.3-0.37,0.52-0.81,0.61-1.27c0.04-0.25,0.06-0.41,0.06-0.75l0-0.95
			l0.02-7.6l0.04-15.2l0.07-30.4l0.36-60.8l0.35-60.8l0.07-30.4l0.04-15.2l0.02-7.6c-0.01-0.63,0.05-1.27-0.07-1.89
			c-0.11-0.62-0.41-1.2-0.8-1.7C216.13,88.97,214.86,88.4,213.6,88.39z"/>
	</g>
	<g>
		<path class="st0" d="M228.76,88.39c1.26,0,2.54,0.56,3.33,1.56c0.4,0.49,0.69,1.08,0.81,1.7c0.12,0.63,0.06,1.27,0.08,1.9
			l0.02,7.6l0.04,15.2l0.07,30.4l0.35,60.8l0.36,60.8l0.07,30.4l0.04,15.2l0.02,7.6l0,0.95c0.01,0.29-0.02,0.77-0.09,1.14
			c-0.15,0.79-0.51,1.52-1,2.13c-0.98,1.24-2.54,1.94-4.09,1.94c-1.55,0-3.11-0.7-4.1-1.94c-0.49-0.61-0.86-1.35-1-2.13
			c-0.08-0.37-0.1-0.85-0.09-1.14l0-0.95l0.02-7.6l0.04-15.2l0.07-30.4l0.35-60.8l0.36-60.8l0.07-30.4l0.04-15.2l0.02-7.6
			c0.02-0.63-0.04-1.27,0.08-1.9c0.12-0.63,0.41-1.21,0.81-1.7C226.22,88.96,227.5,88.39,228.76,88.39z M228.76,88.39
			c-1.26,0.01-2.53,0.58-3.32,1.57c-0.39,0.49-0.69,1.07-0.8,1.7c-0.12,0.62-0.06,1.26-0.07,1.89l0.02,7.6l0.04,15.2l0.07,30.4
			l0.36,60.8l0.35,60.8l0.07,30.4l0.04,15.2l0.02,7.6l0,0.95c0,0.34,0.01,0.5,0.06,0.75c0.09,0.46,0.31,0.89,0.61,1.26
			c0.6,0.76,1.58,1.19,2.56,1.19c0.98,0,1.96-0.44,2.56-1.19c0.3-0.37,0.52-0.81,0.61-1.27c0.04-0.25,0.06-0.41,0.06-0.75l0-0.95
			l0.02-7.6l0.04-15.2l0.07-30.4l0.36-60.8l0.35-60.8l0.07-30.4l0.04-15.2l0.02-7.6c-0.01-0.63,0.05-1.27-0.07-1.89
			c-0.11-0.62-0.41-1.2-0.8-1.7C231.29,88.97,230.03,88.4,228.76,88.39z"/>
	</g>
	<g>
		<path class="st0" d="M243.92,88.39c1.26,0,2.54,0.56,3.33,1.56c0.4,0.49,0.69,1.08,0.81,1.7c0.12,0.63,0.06,1.27,0.08,1.9
			l0.02,7.6l0.04,15.2l0.07,30.4l0.35,60.8l0.36,60.8l0.07,30.4l0.04,15.2l0.02,7.6l0,0.95c0.01,0.29-0.02,0.77-0.09,1.14
			c-0.15,0.79-0.51,1.52-1,2.13c-0.98,1.24-2.54,1.94-4.09,1.94c-1.55,0-3.11-0.7-4.1-1.94c-0.49-0.61-0.86-1.35-1-2.13
			c-0.08-0.37-0.1-0.85-0.09-1.14l0-0.95l0.02-7.6l0.04-15.2l0.07-30.4l0.35-60.8l0.36-60.8l0.07-30.4l0.04-15.2l0.02-7.6
			c0.02-0.63-0.04-1.27,0.08-1.9c0.12-0.63,0.41-1.21,0.81-1.7C241.38,88.96,242.66,88.39,243.92,88.39z M243.92,88.39
			c-1.26,0.01-2.53,0.58-3.32,1.57c-0.39,0.49-0.69,1.07-0.8,1.7c-0.12,0.62-0.06,1.26-0.07,1.89l0.02,7.6l0.04,15.2l0.07,30.4
			l0.36,60.8l0.35,60.8l0.07,30.4l0.04,15.2l0.02,7.6l0,0.95c0,0.34,0.01,0.5,0.06,0.75c0.09,0.46,0.31,0.89,0.61,1.26
			c0.6,0.76,1.58,1.19,2.56,1.19c0.98,0,1.96-0.44,2.56-1.19c0.3-0.37,0.52-0.81,0.61-1.27c0.04-0.25,0.06-0.41,0.06-0.75l0-0.95
			l0.02-7.6l0.04-15.2l0.07-30.4l0.36-60.8l0.35-60.8l0.07-30.4l0.04-15.2l0.02-7.6c-0.01-0.63,0.05-1.27-0.07-1.89
			c-0.11-0.62-0.41-1.2-0.8-1.7C246.45,88.97,245.19,88.4,243.92,88.39z"/>
	</g>
	<g>
		<path class="st0" d="M259.08,88.39c1.26,0,2.54,0.56,3.33,1.56c0.4,0.49,0.69,1.08,0.81,1.7c0.12,0.63,0.06,1.27,0.08,1.9
			l0.02,7.6l0.04,15.2l0.07,30.4l0.35,60.8l0.36,60.8l0.07,30.4l0.04,15.2l0.02,7.6l0,0.95c0.01,0.29-0.02,0.77-0.09,1.14
			c-0.15,0.79-0.51,1.52-1,2.13c-0.98,1.24-2.54,1.94-4.09,1.94c-1.55,0-3.11-0.7-4.1-1.94c-0.49-0.61-0.86-1.35-1-2.13
			c-0.08-0.37-0.1-0.85-0.09-1.14l0-0.95l0.02-7.6l0.04-15.2l0.07-30.4l0.35-60.8l0.36-60.8l0.07-30.4l0.04-15.2l0.02-7.6
			c0.02-0.63-0.04-1.27,0.08-1.9c0.12-0.63,0.41-1.21,0.81-1.7C256.55,88.96,257.82,88.39,259.08,88.39z M259.08,88.39
			c-1.26,0.01-2.53,0.58-3.32,1.57c-0.39,0.49-0.69,1.07-0.8,1.7c-0.12,0.62-0.06,1.26-0.07,1.89l0.02,7.6l0.04,15.2l0.07,30.4
			l0.36,60.8l0.35,60.8l0.07,30.4l0.04,15.2l0.02,7.6l0,0.95c0,0.34,0.01,0.5,0.06,0.75c0.09,0.46,0.31,0.89,0.61,1.27
			c0.6,0.76,1.58,1.19,2.56,1.19c0.98,0,1.96-0.44,2.56-1.19c0.3-0.37,0.52-0.81,0.61-1.27c0.04-0.25,0.06-0.41,0.06-0.75l0-0.95
			l0.02-7.6l0.04-15.2l0.07-30.4l0.36-60.8l0.35-60.8l0.07-30.4l0.04-15.2l0.02-7.6c-0.01-0.63,0.05-1.27-0.07-1.89
			c-0.11-0.62-0.41-1.2-0.8-1.7C261.61,88.97,260.35,88.4,259.08,88.39z"/>
	</g>
	<g>
		<path class="st0" d="M274.24,88.39c1.26,0,2.54,0.56,3.33,1.56c0.4,0.49,0.69,1.08,0.81,1.7c0.12,0.63,0.06,1.27,0.08,1.9
			l0.02,7.6l0.04,15.2l0.07,30.4l0.35,60.8l0.36,60.8l0.07,30.4l0.04,15.2l0.02,7.6l0,0.95c0.01,0.29-0.02,0.77-0.09,1.14
			c-0.15,0.79-0.51,1.52-1,2.13c-0.98,1.24-2.54,1.94-4.09,1.94c-1.55,0-3.11-0.7-4.1-1.94c-0.49-0.61-0.86-1.35-1-2.13
			c-0.08-0.37-0.1-0.85-0.09-1.14l0-0.95l0.02-7.6l0.04-15.2l0.07-30.4l0.35-60.8l0.36-60.8l0.07-30.4l0.04-15.2l0.02-7.6
			c0.02-0.63-0.04-1.27,0.08-1.9c0.12-0.63,0.41-1.21,0.81-1.7C271.71,88.96,272.98,88.39,274.24,88.39z M274.24,88.39
			c-1.26,0.01-2.53,0.58-3.32,1.57c-0.39,0.49-0.69,1.07-0.8,1.7c-0.12,0.62-0.06,1.26-0.07,1.89l0.02,7.6l0.04,15.2l0.07,30.4
			l0.36,60.8l0.35,60.8l0.07,30.4l0.04,15.2l0.02,7.6l0,0.95c0,0.34,0.01,0.5,0.06,0.75c0.09,0.46,0.31,0.89,0.61,1.27
			c0.6,0.76,1.58,1.19,2.56,1.19c0.98,0,1.96-0.44,2.56-1.19c0.3-0.37,0.52-0.81,0.61-1.27c0.04-0.25,0.06-0.41,0.06-0.75l0-0.95
			l0.02-7.6l0.04-15.2l0.07-30.4l0.36-60.8l0.35-60.8l0.07-30.4l0.04-15.2l0.02-7.6c-0.01-0.63,0.05-1.27-0.07-1.89
			c-0.11-0.62-0.41-1.2-0.8-1.7C276.77,88.97,275.51,88.4,274.24,88.39z"/>
	</g>
	<g>
		<path class="st0" d="M289.4,88.39c1.26,0,2.54,0.56,3.33,1.56c0.4,0.49,0.69,1.08,0.81,1.7c0.12,0.63,0.06,1.27,0.08,1.9l0.02,7.6
			l0.04,15.2l0.07,30.4l0.35,60.8l0.36,60.8l0.07,30.4l0.04,15.2l0.02,7.6l0,0.95c0.01,0.29-0.02,0.77-0.09,1.14
			c-0.15,0.79-0.51,1.52-1,2.13c-0.98,1.24-2.54,1.94-4.09,1.94c-1.55,0-3.11-0.7-4.1-1.94c-0.49-0.61-0.86-1.35-1-2.13
			c-0.08-0.37-0.1-0.85-0.09-1.14l0-0.95l0.02-7.6l0.04-15.2l0.07-30.4l0.35-60.8l0.36-60.8l0.07-30.4l0.04-15.2l0.02-7.6
			c0.02-0.63-0.04-1.27,0.08-1.9c0.12-0.63,0.41-1.21,0.81-1.7C286.87,88.96,288.14,88.39,289.4,88.39z M289.4,88.39
			c-1.26,0.01-2.53,0.58-3.32,1.57c-0.39,0.49-0.69,1.07-0.8,1.7c-0.12,0.62-0.06,1.26-0.07,1.89l0.02,7.6l0.04,15.2l0.07,30.4
			l0.36,60.8l0.35,60.8l0.07,30.4l0.04,15.2l0.02,7.6l0,0.95c0,0.34,0.01,0.5,0.06,0.75c0.09,0.46,0.31,0.89,0.61,1.27
			c0.6,0.76,1.58,1.19,2.56,1.19c0.98,0,1.96-0.44,2.56-1.19c0.3-0.37,0.52-0.81,0.61-1.27c0.04-0.25,0.06-0.41,0.06-0.75l0-0.95
			l0.02-7.6l0.04-15.2l0.07-30.4l0.36-60.8l0.35-60.8l0.07-30.4l0.04-15.2l0.02-7.6c-0.01-0.63,0.05-1.27-0.07-1.89
			c-0.11-0.62-0.41-1.2-0.8-1.7C291.93,88.97,290.67,88.4,289.4,88.39z"/>
	</g>
	<g>
		<path class="st0" d="M304.56,88.39c1.26,0,2.54,0.56,3.33,1.56c0.4,0.49,0.69,1.08,0.81,1.7c0.12,0.63,0.06,1.27,0.08,1.9
			l0.02,7.6l0.04,15.2l0.07,30.4l0.35,60.8l0.36,60.8l0.07,30.4l0.04,15.2l0.02,7.6l0,0.95c0.01,0.29-0.02,0.77-0.09,1.14
			c-0.15,0.79-0.51,1.52-1,2.13c-0.98,1.24-2.54,1.94-4.09,1.94c-1.55,0-3.11-0.7-4.1-1.94c-0.49-0.61-0.86-1.35-1-2.13
			c-0.08-0.37-0.1-0.85-0.09-1.14l0-0.95l0.02-7.6l0.04-15.2l0.07-30.4l0.35-60.8l0.36-60.8l0.07-30.4l0.04-15.2l0.02-7.6
			c0.02-0.63-0.04-1.27,0.08-1.9c0.12-0.63,0.41-1.21,0.81-1.7C302.03,88.96,303.3,88.39,304.56,88.39z M304.56,88.39
			c-1.26,0.01-2.53,0.58-3.32,1.57c-0.39,0.49-0.69,1.07-0.8,1.7c-0.12,0.62-0.06,1.26-0.07,1.89l0.02,7.6l0.04,15.2l0.07,30.4
			l0.36,60.8l0.35,60.8l0.07,30.4l0.04,15.2l0.02,7.6l0,0.95c0,0.34,0.01,0.5,0.06,0.75c0.09,0.46,0.31,0.89,0.61,1.27
			c0.6,0.76,1.58,1.19,2.56,1.19c0.98,0,1.96-0.44,2.56-1.19c0.3-0.37,0.52-0.81,0.61-1.27c0.04-0.25,0.06-0.41,0.06-0.75l0-0.95
			l0.02-7.6l0.04-15.2l0.07-30.4l0.36-60.8l0.35-60.8l0.07-30.4l0.04-15.2l0.02-7.6c-0.01-0.63,0.05-1.27-0.07-1.89
			c-0.11-0.62-0.41-1.2-0.8-1.7C307.09,88.97,305.83,88.4,304.56,88.39z"/>
	</g>
	<g>
		<path class="st0" d="M319.72,88.39c1.26,0,2.54,0.56,3.33,1.56c0.4,0.49,0.69,1.08,0.81,1.7c0.12,0.63,0.06,1.27,0.08,1.9
			l0.02,7.6l0.04,15.2l0.07,30.4l0.35,60.8l0.36,60.8l0.07,30.4l0.04,15.2l0.02,7.6l0,0.95c0.01,0.29-0.02,0.77-0.09,1.14
			c-0.15,0.79-0.51,1.52-1,2.13c-0.98,1.24-2.54,1.94-4.09,1.94c-1.55,0-3.11-0.7-4.1-1.94c-0.49-0.61-0.86-1.35-1-2.13
			c-0.08-0.37-0.1-0.85-0.09-1.14l0-0.95l0.02-7.6l0.04-15.2l0.07-30.4l0.35-60.8l0.36-60.8l0.07-30.4l0.04-15.2l0.02-7.6
			c0.02-0.63-0.04-1.27,0.08-1.9c0.12-0.63,0.41-1.21,0.81-1.7C317.19,88.96,318.46,88.39,319.72,88.39z M319.72,88.39
			c-1.26,0.01-2.53,0.58-3.32,1.57c-0.39,0.49-0.69,1.07-0.8,1.7c-0.12,0.62-0.06,1.26-0.07,1.89l0.02,7.6l0.04,15.2l0.07,30.4
			l0.36,60.8l0.35,60.8l0.07,30.4l0.04,15.2l0.02,7.6l0,0.95c0,0.34,0.01,0.5,0.06,0.75c0.09,0.46,0.31,0.89,0.61,1.27
			c0.6,0.76,1.58,1.19,2.56,1.19c0.98,0,1.96-0.44,2.56-1.19c0.3-0.37,0.52-0.81,0.61-1.27c0.04-0.25,0.06-0.41,0.06-0.75l0-0.95
			l0.02-7.6l0.04-15.2l0.07-30.4l0.36-60.8l0.35-60.8l0.07-30.4l0.04-15.2l0.02-7.6c-0.01-0.63,0.05-1.27-0.07-1.89
			c-0.11-0.62-0.41-1.2-0.8-1.7C322.26,88.97,320.99,88.4,319.72,88.39z"/>
	</g>
	<g>
		<path class="st0" d="M334.89,88.39c1.26,0,2.54,0.56,3.33,1.56c0.4,0.49,0.69,1.08,0.81,1.7c0.12,0.63,0.06,1.27,0.08,1.9
			l0.02,7.6l0.04,15.2l0.07,30.4l0.35,60.8l0.36,60.8l0.07,30.4l0.04,15.2l0.02,7.6l0,0.95c0.01,0.29-0.02,0.77-0.09,1.14
			c-0.15,0.79-0.51,1.52-1,2.13c-0.98,1.24-2.54,1.94-4.09,1.94c-1.55,0-3.11-0.7-4.1-1.94c-0.49-0.61-0.86-1.35-1-2.13
			c-0.08-0.37-0.1-0.85-0.09-1.14l0-0.95l0.02-7.6l0.04-15.2l0.07-30.4l0.35-60.8l0.36-60.8l0.07-30.4l0.04-15.2l0.02-7.6
			c0.02-0.63-0.04-1.27,0.08-1.9c0.12-0.63,0.41-1.21,0.81-1.7C332.35,88.96,333.62,88.39,334.89,88.39z M334.89,88.39
			c-1.26,0.01-2.53,0.58-3.32,1.57c-0.39,0.49-0.69,1.07-0.8,1.7c-0.12,0.62-0.06,1.26-0.07,1.89l0.02,7.6l0.04,15.2l0.07,30.4
			l0.36,60.8l0.35,60.8l0.07,30.4l0.04,15.2l0.02,7.6l0,0.95c0,0.34,0.01,0.5,0.06,0.75c0.09,0.46,0.31,0.89,0.61,1.27
			c0.6,0.76,1.58,1.19,2.56,1.19c0.98,0,1.96-0.44,2.56-1.19c0.3-0.37,0.52-0.81,0.61-1.27c0.04-0.25,0.06-0.41,0.06-0.75l0-0.95
			l0.02-7.6l0.04-15.2l0.07-30.4l0.36-60.8l0.35-60.8l0.07-30.4l0.04-15.2l0.02-7.6c-0.01-0.63,0.05-1.27-0.07-1.89
			c-0.11-0.62-0.41-1.2-0.8-1.7C337.42,88.97,336.15,88.4,334.89,88.39z"/>
	</g>
	<g>
		<path class="st0" d="M350.05,88.39c1.26,0,2.54,0.56,3.33,1.56c0.4,0.49,0.69,1.08,0.81,1.7c0.12,0.63,0.06,1.27,0.08,1.9
			l0.02,7.6l0.04,15.2l0.07,30.4l0.35,60.8l0.36,60.8l0.07,30.4l0.04,15.2l0.02,7.6l0,0.95c0.01,0.29-0.02,0.77-0.09,1.14
			c-0.15,0.79-0.51,1.52-1,2.13c-0.98,1.24-2.54,1.94-4.09,1.94c-1.55,0-3.11-0.7-4.1-1.94c-0.49-0.61-0.86-1.35-1-2.13
			c-0.08-0.37-0.1-0.85-0.09-1.14l0-0.95l0.02-7.6l0.04-15.2l0.07-30.4l0.35-60.8l0.36-60.8l0.07-30.4l0.04-15.2l0.02-7.6
			c0.02-0.63-0.04-1.27,0.08-1.9c0.12-0.63,0.41-1.21,0.81-1.7C347.51,88.96,348.78,88.39,350.05,88.39z M350.05,88.39
			c-1.26,0.01-2.53,0.58-3.32,1.57c-0.39,0.49-0.69,1.07-0.8,1.7c-0.12,0.62-0.06,1.26-0.07,1.89l0.02,7.6l0.04,15.2l0.07,30.4
			l0.36,60.8l0.35,60.8l0.07,30.4l0.04,15.2l0.02,7.6l0,0.95c0,0.34,0.01,0.5,0.06,0.75c0.09,0.46,0.31,0.89,0.61,1.27
			c0.6,0.76,1.58,1.19,2.56,1.19c0.98,0,1.96-0.44,2.56-1.19c0.3-0.37,0.52-0.81,0.61-1.27c0.04-0.25,0.06-0.41,0.06-0.75l0-0.95
			l0.02-7.6l0.04-15.2l0.07-30.4l0.36-60.8l0.35-60.8l0.07-30.4l0.04-15.2l0.02-7.6c-0.01-0.63,0.05-1.27-0.07-1.89
			c-0.11-0.62-0.41-1.2-0.8-1.7C352.58,88.97,351.31,88.4,350.05,88.39z"/>
	</g>
	<g>
		<path class="st0" d="M365.21,88.39c1.26,0,2.54,0.56,3.33,1.56c0.4,0.49,0.69,1.08,0.81,1.7c0.12,0.63,0.06,1.27,0.08,1.9
			l0.02,7.6l0.04,15.2l0.07,30.4l0.35,60.8l0.36,60.8l0.07,30.4l0.04,15.2l0.02,7.6l0,0.95c0.01,0.29-0.02,0.77-0.09,1.14
			c-0.15,0.79-0.51,1.52-1,2.13c-0.98,1.24-2.54,1.94-4.09,1.94c-1.55,0-3.11-0.7-4.1-1.94c-0.49-0.61-0.86-1.35-1-2.13
			c-0.08-0.37-0.1-0.85-0.09-1.14l0-0.95l0.02-7.6l0.04-15.2l0.07-30.4l0.35-60.8l0.36-60.8l0.07-30.4l0.04-15.2l0.02-7.6
			c0.02-0.63-0.04-1.27,0.08-1.9c0.12-0.63,0.41-1.21,0.81-1.7C362.67,88.96,363.94,88.39,365.21,88.39z M365.21,88.39
			c-1.26,0.01-2.53,0.58-3.32,1.57c-0.39,0.49-0.69,1.07-0.8,1.7c-0.12,0.62-0.06,1.26-0.07,1.89l0.02,7.6l0.04,15.2l0.07,30.4
			l0.36,60.8l0.35,60.8l0.07,30.4l0.04,15.2l0.02,7.6l0,0.95c0,0.34,0.01,0.5,0.06,0.75c0.09,0.46,0.31,0.89,0.61,1.27
			c0.6,0.76,1.58,1.19,2.56,1.19c0.98,0,1.96-0.44,2.56-1.19c0.3-0.37,0.52-0.81,0.61-1.27c0.04-0.25,0.06-0.41,0.06-0.75l0-0.95
			l0.02-7.6l0.04-15.2l0.07-30.4l0.36-60.8l0.35-60.8l0.07-30.4l0.04-15.2l0.02-7.6c-0.01-0.63,0.05-1.27-0.07-1.89
			c-0.11-0.62-0.41-1.2-0.8-1.7C367.74,88.97,366.47,88.4,365.21,88.39z"/>
	</g>
	<g>
		<path class="st0" d="M380.37,88.39c1.26,0,2.54,0.56,3.33,1.56c0.4,0.49,0.69,1.08,0.81,1.7c0.12,0.63,0.06,1.27,0.08,1.9
			l0.02,7.6l0.04,15.2l0.07,30.4l0.35,60.8l0.36,60.8l0.07,30.4l0.04,15.2l0.02,7.6l0,0.95c0.01,0.29-0.02,0.77-0.09,1.14
			c-0.15,0.79-0.51,1.52-1,2.13c-0.98,1.24-2.54,1.94-4.09,1.94c-1.55,0-3.11-0.7-4.1-1.94c-0.49-0.61-0.86-1.35-1-2.13
			c-0.08-0.37-0.1-0.85-0.09-1.14l0-0.95l0.02-7.6l0.04-15.2l0.07-30.4l0.35-60.8l0.36-60.8l0.07-30.4l0.04-15.2l0.02-7.6
			c0.02-0.63-0.04-1.27,0.08-1.9c0.12-0.63,0.41-1.21,0.81-1.7C377.83,88.96,379.1,88.39,380.37,88.39z M380.37,88.39
			c-1.26,0.01-2.53,0.58-3.32,1.57c-0.39,0.49-0.69,1.07-0.8,1.7c-0.12,0.62-0.06,1.26-0.07,1.89l0.02,7.6l0.04,15.2l0.07,30.4
			l0.36,60.8l0.35,60.8l0.07,30.4l0.04,15.2l0.02,7.6l0,0.95c0,0.34,0.01,0.5,0.06,0.75c0.09,0.46,0.31,0.89,0.61,1.27
			c0.6,0.76,1.58,1.19,2.56,1.19c0.98,0,1.96-0.44,2.56-1.19c0.3-0.37,0.52-0.81,0.61-1.27c0.04-0.25,0.06-0.41,0.06-0.75l0-0.95
			l0.02-7.6l0.04-15.2l0.07-30.4l0.36-60.8l0.35-60.8l0.07-30.4l0.04-15.2l0.02-7.6c-0.01-0.63,0.05-1.27-0.07-1.89
			c-0.11-0.62-0.41-1.2-0.8-1.7C382.9,88.97,381.63,88.4,380.37,88.39z"/>
	</g>
	<g>
		<path class="st0" d="M395.53,88.39c1.26,0,2.54,0.56,3.33,1.56c0.4,0.49,0.69,1.08,0.81,1.7c0.12,0.63,0.06,1.27,0.08,1.9
			l0.02,7.6l0.04,15.2l0.07,30.4l0.35,60.8l0.36,60.8l0.07,30.4l0.04,15.2l0.02,7.6l0,0.95c0.01,0.29-0.02,0.77-0.09,1.14
			c-0.15,0.79-0.51,1.52-1,2.13c-0.98,1.24-2.54,1.94-4.09,1.94c-1.55,0-3.11-0.7-4.1-1.94c-0.49-0.61-0.86-1.35-1-2.13
			c-0.08-0.37-0.1-0.85-0.09-1.14l0-0.95l0.02-7.6l0.04-15.2l0.07-30.4l0.35-60.8l0.36-60.8l0.07-30.4l0.04-15.2l0.02-7.6
			c0.02-0.63-0.04-1.27,0.08-1.9c0.12-0.63,0.41-1.21,0.81-1.7C392.99,88.96,394.26,88.39,395.53,88.39z M395.53,88.39
			c-1.26,0.01-2.53,0.58-3.32,1.57c-0.39,0.49-0.69,1.07-0.8,1.7c-0.12,0.62-0.06,1.26-0.07,1.89l0.02,7.6l0.04,15.2l0.07,30.4
			l0.36,60.8l0.35,60.8l0.07,30.4l0.04,15.2l0.02,7.6l0,0.95c0,0.34,0.01,0.5,0.06,0.75c0.09,0.46,0.31,0.89,0.61,1.26
			c0.6,0.76,1.58,1.19,2.56,1.19c0.98,0,1.96-0.44,2.56-1.19c0.3-0.37,0.52-0.81,0.61-1.27c0.04-0.25,0.06-0.41,0.06-0.75l0-0.95
			l0.02-7.6l0.04-15.2l0.07-30.4l0.36-60.8l0.35-60.8l0.07-30.4l0.04-15.2l0.02-7.6c-0.01-0.63,0.05-1.27-0.07-1.89
			c-0.11-0.62-0.41-1.2-0.8-1.7C398.06,88.97,396.79,88.4,395.53,88.39z"/>
	</g>
	<g>
		<path class="st0" d="M410.69,88.39c1.26,0,2.54,0.56,3.33,1.56c0.4,0.49,0.69,1.08,0.81,1.7c0.12,0.63,0.06,1.27,0.08,1.9
			l0.02,7.6l0.04,15.2l0.07,30.4l0.35,60.8l0.36,60.8l0.07,30.4l0.04,15.2l0.02,7.6l0,0.95c0.01,0.29-0.02,0.77-0.09,1.14
			c-0.15,0.79-0.51,1.52-1,2.13c-0.98,1.24-2.54,1.94-4.09,1.94c-1.55,0-3.11-0.7-4.1-1.94c-0.49-0.61-0.86-1.35-1-2.13
			c-0.08-0.37-0.1-0.85-0.09-1.14l0-0.95l0.02-7.6l0.04-15.2l0.07-30.4l0.35-60.8l0.36-60.8l0.07-30.4l0.04-15.2l0.02-7.6
			c0.02-0.63-0.04-1.27,0.08-1.9c0.12-0.63,0.41-1.21,0.81-1.7C408.15,88.96,409.42,88.39,410.69,88.39z M410.69,88.39
			c-1.26,0.01-2.53,0.58-3.32,1.57c-0.39,0.49-0.69,1.07-0.8,1.7c-0.12,0.62-0.06,1.26-0.07,1.89l0.02,7.6l0.04,15.2l0.07,30.4
			l0.36,60.8l0.35,60.8l0.07,30.4l0.04,15.2l0.02,7.6l0,0.95c0,0.34,0.01,0.5,0.06,0.75c0.09,0.46,0.31,0.89,0.61,1.27
			c0.6,0.76,1.58,1.19,2.56,1.19c0.98,0,1.96-0.44,2.56-1.19c0.3-0.37,0.52-0.81,0.61-1.27c0.04-0.25,0.06-0.41,0.06-0.75l0-0.95
			l0.02-7.6l0.04-15.2l0.07-30.4l0.36-60.8l0.35-60.8l0.07-30.4l0.04-15.2l0.02-7.6c-0.01-0.63,0.05-1.27-0.07-1.89
			c-0.11-0.62-0.41-1.2-0.8-1.7C413.22,88.97,411.95,88.4,410.69,88.39z"/>
	</g>
	<g>
		<path class="st0" d="M425.85,88.39c1.26,0,2.54,0.56,3.33,1.56c0.4,0.49,0.69,1.08,0.81,1.7c0.12,0.63,0.06,1.27,0.08,1.9
			l0.02,7.6l0.04,15.2l0.07,30.4l0.35,60.8l0.36,60.8l0.07,30.4l0.04,15.2l0.02,7.6l0,0.95c0.01,0.29-0.02,0.77-0.09,1.14
			c-0.15,0.79-0.51,1.52-1,2.13c-0.98,1.24-2.54,1.94-4.09,1.94c-1.55,0-3.11-0.7-4.1-1.94c-0.49-0.61-0.86-1.35-1-2.13
			c-0.08-0.37-0.1-0.85-0.09-1.14l0-0.95l0.02-7.6l0.04-15.2l0.07-30.4l0.35-60.8l0.36-60.8l0.07-30.4l0.04-15.2l0.02-7.6
			c0.02-0.63-0.04-1.27,0.08-1.9c0.12-0.63,0.41-1.21,0.81-1.7C423.31,88.96,424.59,88.39,425.85,88.39z M425.85,88.39
			c-1.26,0.01-2.53,0.58-3.32,1.57c-0.39,0.49-0.69,1.07-0.8,1.7c-0.12,0.62-0.06,1.26-0.07,1.89l0.02,7.6l0.04,15.2l0.07,30.4
			l0.36,60.8l0.35,60.8l0.07,30.4l0.04,15.2l0.02,7.6l0,0.95c0,0.34,0.01,0.5,0.06,0.75c0.09,0.46,0.31,0.89,0.61,1.27
			c0.6,0.76,1.58,1.19,2.56,1.19c0.98,0,1.96-0.44,2.56-1.19c0.3-0.37,0.52-0.81,0.61-1.27c0.04-0.25,0.06-0.41,0.06-0.75l0-0.95
			l0.02-7.6l0.04-15.2l0.07-30.4l0.36-60.8l0.35-60.8l0.07-30.4l0.04-15.2l0.02-7.6c-0.01-0.63,0.05-1.27-0.07-1.89
			c-0.11-0.62-0.41-1.2-0.8-1.7C428.38,88.97,427.11,88.4,425.85,88.39z"/>
	</g>
	<g>
		<path class="st0" d="M441.01,88.39c1.26,0,2.54,0.56,3.33,1.56c0.4,0.49,0.69,1.08,0.81,1.7c0.12,0.63,0.06,1.27,0.08,1.9
			l0.02,7.6l0.04,15.2l0.07,30.4l0.35,60.8l0.36,60.8l0.07,30.4l0.04,15.2l0.02,7.6l0,0.95c0.01,0.29-0.02,0.77-0.09,1.14
			c-0.15,0.79-0.51,1.52-1,2.13c-0.98,1.24-2.54,1.94-4.09,1.94c-1.55,0-3.11-0.7-4.1-1.94c-0.49-0.61-0.86-1.35-1-2.13
			c-0.08-0.37-0.1-0.85-0.09-1.14l0-0.95l0.02-7.6l0.04-15.2l0.07-30.4l0.35-60.8l0.36-60.8l0.07-30.4l0.04-15.2l0.02-7.6
			c0.02-0.63-0.04-1.27,0.08-1.9c0.12-0.63,0.41-1.21,0.81-1.7C438.47,88.96,439.75,88.39,441.01,88.39z M441.01,88.39
			c-1.26,0.01-2.53,0.58-3.32,1.57c-0.39,0.49-0.69,1.07-0.8,1.7c-0.12,0.62-0.06,1.26-0.07,1.89l0.02,7.6l0.04,15.2l0.07,30.4
			l0.36,60.8l0.35,60.8l0.07,30.4l0.04,15.2l0.02,7.6l0,0.95c0,0.34,0.01,0.5,0.06,0.75c0.09,0.46,0.31,0.89,0.61,1.27
			c0.6,0.76,1.58,1.19,2.56,1.19c0.98,0,1.96-0.44,2.56-1.19c0.3-0.37,0.52-0.81,0.61-1.27c0.04-0.25,0.06-0.41,0.06-0.75l0-0.95
			l0.02-7.6l0.04-15.2l0.07-30.4l0.36-60.8l0.35-60.8l0.07-30.4l0.04-15.2l0.02-7.6c-0.01-0.63,0.05-1.27-0.07-1.89
			c-0.11-0.62-0.41-1.2-0.8-1.7C443.54,88.97,442.28,88.4,441.01,88.39z"/>
	</g>
	<g>
		<path class="st0" d="M471.33,88.39c1.26,0,2.54,0.56,3.33,1.56c0.4,0.49,0.69,1.08,0.81,1.7c0.12,0.63,0.06,1.27,0.08,1.9
			l0.02,7.6l0.04,15.2l0.07,30.4l0.35,60.8l0.36,60.8l0.07,30.4l0.04,15.2l0.02,7.6l0,0.95c0.01,0.29-0.02,0.77-0.09,1.14
			c-0.15,0.79-0.51,1.52-1,2.13c-0.98,1.24-2.54,1.94-4.09,1.94c-1.55,0-3.11-0.7-4.1-1.94c-0.49-0.61-0.86-1.35-1-2.13
			c-0.08-0.37-0.1-0.85-0.09-1.14l0-0.95l0.02-7.6l0.04-15.2l0.07-30.4l0.35-60.8l0.36-60.8l0.07-30.4l0.04-15.2l0.02-7.6
			c0.02-0.63-0.04-1.27,0.08-1.9c0.12-0.63,0.41-1.21,0.81-1.7C468.8,88.96,470.07,88.39,471.33,88.39z M471.33,88.39
			c-1.26,0.01-2.53,0.58-3.32,1.57c-0.39,0.49-0.69,1.07-0.8,1.7c-0.12,0.62-0.06,1.26-0.07,1.89l0.02,7.6l0.04,15.2l0.07,30.4
			l0.36,60.8l0.35,60.8l0.07,30.4l0.04,15.2l0.02,7.6l0,0.95c0,0.34,0.01,0.5,0.06,0.75c0.09,0.46,0.31,0.89,0.61,1.27
			c0.6,0.76,1.58,1.19,2.56,1.19c0.98,0,1.96-0.44,2.56-1.19c0.3-0.37,0.52-0.81,0.61-1.27c0.04-0.25,0.06-0.41,0.06-0.75l0-0.95
			l0.02-7.6l0.04-15.2l0.07-30.4l0.36-60.8l0.35-60.8l0.07-30.4l0.04-15.2l0.02-7.6c-0.01-0.63,0.05-1.27-0.07-1.89
			c-0.11-0.62-0.41-1.2-0.8-1.7C473.86,88.97,472.6,88.4,471.33,88.39z"/>
	</g>
	<g>
		<path class="st0" d="M456.17,88.39c1.26,0,2.54,0.56,3.33,1.56c0.4,0.49,0.69,1.08,0.81,1.7c0.12,0.63,0.06,1.27,0.08,1.9
			l0.02,7.6l0.04,15.2l0.07,30.4l0.35,60.8l0.36,60.8l0.07,30.4l0.04,15.2l0.02,7.6l0,0.95c0.01,0.29-0.02,0.77-0.09,1.14
			c-0.15,0.79-0.51,1.52-1,2.13c-0.98,1.24-2.54,1.94-4.09,1.94c-1.55,0-3.11-0.7-4.1-1.94c-0.49-0.61-0.86-1.35-1-2.13
			c-0.08-0.37-0.1-0.85-0.09-1.14l0-0.95l0.02-7.6l0.04-15.2l0.07-30.4l0.35-60.8l0.36-60.8l0.07-30.4l0.04-15.2l0.02-7.6
			c0.02-0.63-0.04-1.27,0.08-1.9c0.12-0.63,0.41-1.21,0.81-1.7C453.63,88.96,454.91,88.39,456.17,88.39z M456.17,88.39
			c-1.26,0.01-2.53,0.58-3.32,1.57c-0.39,0.49-0.69,1.07-0.8,1.7c-0.12,0.62-0.06,1.26-0.07,1.89l0.02,7.6l0.04,15.2l0.07,30.4
			l0.36,60.8l0.35,60.8l0.07,30.4l0.04,15.2l0.02,7.6l0,0.95c0,0.34,0.01,0.5,0.06,0.75c0.09,0.46,0.31,0.89,0.61,1.27
			c0.6,0.76,1.58,1.19,2.56,1.19c0.98,0,1.96-0.44,2.56-1.19c0.3-0.37,0.52-0.81,0.61-1.27c0.04-0.25,0.06-0.41,0.06-0.75l0-0.95
			l0.02-7.6l0.04-15.2l0.07-30.4l0.36-60.8l0.35-60.8l0.07-30.4l0.04-15.2l0.02-7.6c-0.01-0.63,0.05-1.27-0.07-1.89
			c-0.11-0.62-0.41-1.2-0.8-1.7C458.7,88.97,457.44,88.4,456.17,88.39z"/>
	</g>
	<g>
		<path class="st0" d="M476.03,453.24l0.03,6.92c0,0.58,0.02,1.16-0.01,1.74c-0.04,0.58-0.17,1.15-0.4,1.69
			c-0.48,1.06-1.31,1.96-2.33,2.52c-0.51,0.28-1.07,0.48-1.64,0.59c-0.58,0.12-1.16,0.1-1.74,0.11l-3.46,0.02l-6.92,0.03
			l-27.69,0.12l-55.37,0.25l-110.74,0.28l-110.74,0.14l-55.37,0.05l-27.69,0.02l-6.92,0.01l-3.46,0c-0.53,0-1.23,0.02-1.91-0.11
			c-0.67-0.13-1.31-0.36-1.91-0.68c-1.2-0.64-2.19-1.69-2.76-2.95c-0.28-0.63-0.44-1.32-0.49-2.01c-0.03-0.37-0.02-0.64-0.02-0.93
			l0-0.87l0.01-6.92l0-0.99l0.99,0l210.56,0.29L476.03,453.24z M476.03,453.24l-210.56,0.7l-209.98,0.29l0.99-0.99l0.01,6.92l0,0.87
			c0,0.29,0,0.6,0.02,0.8c0.03,0.46,0.14,0.91,0.32,1.33c0.38,0.84,1.05,1.57,1.88,2.01c0.42,0.22,0.87,0.38,1.33,0.48
			c0.46,0.09,0.92,0.08,1.54,0.08l3.46,0l6.92,0.01l27.69,0.02l55.37,0.05l110.74,0.14l110.74,0.28l55.37,0.25l27.69,0.12l6.92,0.03
			l3.46,0.02c0.58,0,1.15,0.02,1.71-0.09c0.56-0.11,1.1-0.3,1.61-0.57c1.01-0.53,1.83-1.41,2.31-2.45c0.23-0.52,0.37-1.09,0.41-1.66
			c0.04-0.57,0.01-1.15,0.02-1.72L476.03,453.24z"/>
	</g>
</g>
</svg>
