<?xml version="1.0" encoding="utf-8"?>
<!-- Generator: Adobe Illustrator 24.3.0, SVG Export Plug-In . SVG Version: 6.00 Build 0)  -->
<svg version="1.1" id="Layer_1" xmlns="http://www.w3.org/2000/svg" xmlns:xlink="http://www.w3.org/1999/xlink" x="0px" y="0px"
	 viewBox="0 0 520 520" style="enable-background:new 0 0 520 520;" xml:space="preserve">
<style type="text/css">
	.st0{fill:#DAD5C4;}
</style>
<g>
	<path class="st0" d="M261.3,381.11c-0.98,0-1.95,0-2.93,0c-0.76-0.06-1.52-0.12-2.28-0.17c-7.2-0.5-14.03-2.37-20.48-5.65
		c-9.97-5.07-17.74-12.52-23.23-22.35c-4.73-8.46-6.99-17.58-6.99-27.29c0-30.43,0-60.87,0-91.3c0-7.82,1.48-15.33,4.63-22.48
		c4.28-9.73,10.81-17.57,19.53-23.54c5.63-3.85,11.77-6.51,18.4-8.02c5.25-1.19,10.57-1.6,15.95-1.19c3.99,0.3,7.92,0.97,11.74,2.15
		c13.29,4.12,23.63,12.17,30.96,24.1c4.63,7.54,7.19,15.79,7.84,24.64c0.05,0.72,0.11,1.43,0.17,2.15c0,31.95,0,63.89,0,95.84
		c-0.03,0.19-0.07,0.38-0.08,0.58c-0.19,4.24-0.84,8.4-2.03,12.47c-3.99,13.73-12.01,24.39-24.03,31.93
		c-7.54,4.73-15.79,7.34-24.65,7.95C262.98,380.99,262.14,381.05,261.3,381.11z M212.79,279.96c0,15.2,0,30.4,0,45.6
		c0,7.37,1.44,14.42,4.65,21.04c5.5,11.35,14.05,19.41,25.7,24.02c6.7,2.65,13.66,3.6,20.83,2.99c7.21-0.61,13.93-2.78,20.12-6.54
		c6.42-3.9,11.68-9.04,15.7-15.45c4.82-7.69,7.36-16.1,7.38-25.2c0.05-30.73,0.02-61.46,0.02-92.19c0-5.25-0.78-10.39-2.46-15.37
		c-3.09-9.16-8.36-16.78-15.95-22.66c-9.7-7.52-20.71-10.77-32.92-9.77c-4.73,0.39-9.28,1.49-13.65,3.33
		c-10.86,4.57-18.96,12.2-24.33,22.76c-3.5,6.88-5.1,14.25-5.1,21.98C212.8,249.66,212.79,264.81,212.79,279.96z"/>
	<path class="st0" d="M288.17,332.04c0.01,0.72-0.23,1.21-0.64,1.62c-5.96,6.07-11.93,12.13-17.89,18.2
		c-2.57,2.61-5.14,5.23-7.71,7.84c-1.25,1.27-2.63,1.27-3.88,0c-8.4-8.56-16.81-17.11-25.2-25.68c-0.35-0.35-0.71-0.75-0.9-1.19
		c-0.29-0.71-0.05-1.39,0.49-1.93c1.75-1.77,3.5-3.53,5.26-5.29c0.97-0.97,2.23-0.97,3.2,0.01c4.11,4.15,8.22,8.3,12.33,12.45
		c1.7,1.72,3.41,3.44,5.11,5.16c1.15,1.16,2.35,1.17,3.49,0.02c5.78-5.83,11.56-11.67,17.34-17.51c1.13-1.14,2.32-1.15,3.44-0.01
		c1.6,1.62,3.2,3.23,4.81,4.84C287.87,331.02,288.17,331.51,288.17,332.04z"/>
</g>
</svg>
