<?xml version="1.0" encoding="utf-8"?>
<!-- Generator: Adobe Illustrator 24.3.0, SVG Export Plug-In . SVG Version: 6.00 Build 0)  -->
<svg version="1.1" id="Layer_1" xmlns="http://www.w3.org/2000/svg" xmlns:xlink="http://www.w3.org/1999/xlink" x="0px" y="0px"
	 viewBox="0 0 520 520" style="enable-background:new 0 0 520 520;" xml:space="preserve">
<style type="text/css">
	.st0{fill:#CCCAC6;}
</style>
<g>
	<g>
		<path class="st0" d="M110.01,22.86c-6.28,0.25-12.56,0.41-18.82,0.89c-3.12,0.26-6.27,0.56-9.31,1.36
			c-1.5,0.41-3.03,0.94-4.24,1.95c-0.6,0.5-1.07,1.16-1.29,1.91c-0.22,0.75-0.19,1.55-0.03,2.32l0,0l0,0
			c0.63,27.04,0.73,54.08,1.11,81.12c0.11,27.03,1.58,54.1,5.65,80.84c2.07,13.35,4.83,26.62,8.67,39.57
			c3.82,12.95,8.82,25.59,15.4,37.38l2.51,4.4c0.85,1.46,1.83,2.83,2.74,4.25c0.95,1.39,1.81,2.85,2.82,4.19l3.05,4.03l1.53,2.01
			l1.7,1.87c1.14,1.24,2.3,2.47,3.47,3.68c2.34,2.43,4.77,4.77,7.26,7.05c9.96,9.12,21.26,16.65,32.9,23.47l0.65,0.38l-0.67,0.34
			c-6.05,3.05-11.86,6.56-17.27,10.61c-5.42,4.05-10.42,8.64-14.98,13.64c-9.12,10.01-16.6,21.45-23.35,33.14
			c-5.97,12.08-10.22,25.18-11.44,38.63c-0.62,6.72-0.58,13.5,0.23,20.2c0.25,1.67,0.41,3.35,0.74,5c0.33,1.65,0.51,3.37,1.1,4.82
			c1.21,3,3.43,5.59,5.85,7.86c4.92,4.54,10.77,8.03,16.78,11.08c6.04,3.01,12.32,5.56,18.72,7.74c12.81,4.38,26.03,7.49,39.4,9.72
			c13.35,2.35,26.81,4.04,40.33,5.09c13.52,1.01,27.09,1.37,40.64,1.14c27.11-0.45,54.17-3.31,80.89-7.92l5-0.88l2.5-0.44l2.47-0.55
			c3.3-0.74,6.6-1.51,9.88-2.34c6.57-1.65,13.08-3.51,19.49-5.67c6.4-2.17,12.7-4.64,18.69-7.7c5.95-3.07,11.72-6.72,16.14-11.64
			c1.08-1.24,2.09-2.54,2.94-3.94c0.4-0.71,0.83-1.41,1.15-2.15c0.41-0.78,0.54-1.33,0.69-2.16c0.25-1.59,0.34-3.28,0.42-4.96
			c0.07-1.68,0.1-3.37,0.1-5.05c0-1.69-0.01-3.38-0.06-5.07c-0.06-1.67-0.08-3.42-0.25-5l-0.82-4.97c-0.3-1.66-0.66-3.31-0.99-4.96
			c-1.43-6.59-3.34-13.07-5.86-19.32c-2.49-6.26-5.66-12.23-9.22-17.96c-3.57-5.73-7.54-11.21-11.64-16.61
			c-2.07-2.7-4.07-5.41-6.31-7.92c-2.21-2.53-4.53-4.98-6.99-7.29c-9.79-9.29-21.18-16.77-32.91-23.5l-1.3-0.75l1.3-0.76
			c11.57-6.74,22.37-14.84,31.84-24.29l3.54-3.56l3.31-3.77c2.27-2.46,4.25-5.16,6.3-7.8c1.06-1.3,1.98-2.7,2.91-4.08l2.82-4.16
			c0.88-1.42,1.71-2.88,2.57-4.31c0.83-1.45,1.76-2.85,2.48-4.36c6.32-11.81,10.97-24.48,14.21-37.49c0.78-3.26,1.47-6.54,2.16-9.83
			l1.73-9.93c1.21-6.62,2.19-13.26,2.95-19.94c1.53-13.35,2.22-26.79,2.33-40.24c0.07-6.73-0.07-13.44-0.21-20.18l-0.3-20.19
			c-0.17-13.46-0.35-26.92-0.78-40.37c-0.22-6.72-0.51-13.45-0.88-20.16c-0.19-3.36-0.39-6.72-0.63-10.07
			c-0.05-0.84-0.13-1.68-0.14-2.54c-0.01-0.84-0.03-1.67-0.13-2.48c-0.19-1.59-0.8-3.27-2.26-3.87l-0.01,0l-0.05-0.03
			c-1.31-0.74-2.95-1.1-4.5-1.45c-1.58-0.34-3.17-0.61-4.77-0.86c-3.2-0.49-6.42-0.89-9.65-1.24c-6.45-0.7-12.92-1.25-19.39-1.74
			c-12.95-0.96-25.92-1.68-38.89-2.29c-25.95-1.2-51.92-1.91-77.89-2.36c-25.97-0.43-51.95-0.57-77.92-0.37
			C161.94,21.3,135.96,21.82,110.01,22.86z M110.01,22.86c25.95-1.08,51.93-1.64,77.9-1.88c25.98-0.23,51.95-0.14,77.93,0.26
			c25.97,0.4,51.94,1.11,77.9,2.22c12.98,0.56,25.95,1.24,38.91,2.15c6.48,0.47,12.96,0.99,19.42,1.67
			c3.23,0.35,6.46,0.73,9.68,1.21c1.61,0.24,3.22,0.51,4.81,0.85c1.59,0.37,3.2,0.67,4.73,1.53l-0.06-0.03
			c0.86,0.35,1.54,1.06,1.94,1.86c0.41,0.8,0.61,1.67,0.73,2.52c0.11,0.86,0.13,1.71,0.15,2.55c0.01,0.83,0.09,1.66,0.15,2.5
			c0.25,3.36,0.46,6.72,0.66,10.08c0.39,6.72,0.7,13.45,0.95,20.18c0.48,13.46,0.71,26.92,0.92,40.38l0.37,20.19
			c0.17,6.72,0.33,13.47,0.28,20.2c-0.06,13.48-0.7,26.96-2.19,40.37c-0.74,6.7-1.7,13.39-2.89,20.01l-1.7,9.97
			c-0.69,3.3-1.37,6.61-2.14,9.9c-3.21,13.12-7.86,25.92-14.21,37.88c-0.73,1.53-1.66,2.95-2.49,4.42c-0.86,1.46-1.7,2.93-2.58,4.37
			l-2.83,4.21c-0.94,1.41-1.87,2.82-2.93,4.14c-2.07,2.68-4.06,5.42-6.35,7.92l-3.34,3.83l-3.56,3.62
			c-9.55,9.6-20.48,17.79-32.15,24.61l-0.01-1.5c11.81,6.75,23.32,14.28,33.29,23.7c2.5,2.34,4.86,4.82,7.12,7.4
			c2.28,2.56,4.33,5.32,6.4,8.01c4.12,5.41,8.14,10.93,11.76,16.73c3.62,5.8,6.85,11.87,9.4,18.23c2.56,6.35,4.52,12.94,5.98,19.62
			c0.34,1.68,0.7,3.34,1.01,5.03l0.84,5.08c0.19,1.8,0.21,3.45,0.27,5.17c0.05,1.71,0.07,3.41,0.07,5.12c0,1.71-0.03,3.42-0.09,5.13
			c-0.07,1.72-0.16,3.43-0.43,5.19c-0.11,0.46-0.13,0.87-0.31,1.38c-0.14,0.53-0.35,0.88-0.53,1.29c-0.35,0.81-0.81,1.57-1.25,2.34
			c-0.91,1.51-2,2.9-3.14,4.22c-2.34,2.6-5,4.86-7.84,6.83c-2.83,1.98-5.81,3.71-8.86,5.28c-6.11,3.13-12.5,5.61-18.96,7.8
			c-6.47,2.18-13.03,4.03-19.64,5.69c-3.3,0.83-6.61,1.61-9.95,2.35l-2.5,0.55l-2.52,0.44l-5.03,0.88
			c-26.82,4.59-53.97,7.43-81.19,7.84c-13.61,0.21-27.23-0.17-40.8-1.21c-13.57-1.07-27.09-2.79-40.49-5.17
			c-13.41-2.28-26.72-5.46-39.61-9.92c-6.45-2.22-12.77-4.82-18.88-7.89c-6.07-3.11-12-6.66-17.07-11.38
			c-2.49-2.37-4.83-5.06-6.16-8.39c-0.67-1.71-0.82-3.42-1.15-5.09c-0.33-1.68-0.48-3.38-0.73-5.08
			c-0.79-6.79-0.81-13.67-0.16-20.47c0.64-6.81,2.05-13.53,4.06-20.05c2-6.54,4.59-12.85,7.65-18.98
			c3.4-5.92,7.04-11.67,10.92-17.27c3.89-5.59,8.08-10.98,12.7-16c4.62-5.02,9.68-9.64,15.16-13.7c5.47-4.07,11.35-7.58,17.44-10.63
			l-0.02,0.72c-11.64-6.88-22.96-14.48-32.94-23.68c-2.49-2.29-4.93-4.65-7.27-7.1c-1.18-1.22-2.33-2.46-3.47-3.71l-1.71-1.89
			l-1.53-2.03l-3.06-4.07c-1.02-1.35-1.88-2.82-2.82-4.22c-0.91-1.43-1.89-2.81-2.74-4.28l-2.5-4.42
			c-6.57-11.85-11.53-24.54-15.31-37.53c-3.79-12.99-6.53-26.27-8.59-39.64c-4.03-26.76-5.47-53.85-5.54-80.88
			c-0.35-27.04-0.4-54.08-1-81.12l0,0c-0.16-0.77-0.19-1.58,0.03-2.34c0.22-0.76,0.7-1.43,1.3-1.93c1.22-1.01,2.75-1.54,4.26-1.95
			c3.05-0.79,6.19-1.09,9.31-1.35C97.45,23.26,103.73,23.11,110.01,22.86z"/>
	</g>
	<g>
		<path class="st0" d="M164.95,324.24c1.35,1.42,3.04,2.44,4.77,3.31c1.73,0.88,3.55,1.59,5.38,2.23c3.67,1.28,7.46,2.23,11.26,3.05
			c7.6,1.67,15.32,2.81,23.06,3.69c15.48,1.75,31.07,2.67,46.65,2.79c15.58,0.25,31.19-0.27,46.69-1.82
			c7.75-0.77,15.47-1.86,23.07-3.54c3.8-0.82,7.58-1.8,11.25-3.09c3.67-1.29,7.27-2.84,10.5-5.04c-1.55,1.19-3.23,2.21-4.95,3.14
			c-1.75,0.88-3.53,1.7-5.36,2.4c-3.65,1.44-7.41,2.57-11.21,3.54c-7.61,1.89-15.36,3.16-23.13,4.11
			c-7.77,0.99-15.59,1.51-23.41,1.88c-7.82,0.35-15.65,0.49-23.47,0.42c-7.83-0.12-15.65-0.45-23.46-0.96
			c-7.81-0.55-15.61-1.21-23.36-2.3c-7.75-1.07-15.49-2.38-23.1-4.26c-3.79-0.97-7.57-2.07-11.22-3.5c-1.82-0.71-3.63-1.5-5.34-2.46
			C167.88,326.84,166.23,325.72,164.95,324.24z"/>
	</g>
	<g>
		<path class="st0" d="M249.96,26.47c26.65,0.3,53.29,0.83,79.93,1.71c13.32,0.45,26.64,0.92,39.95,1.62
			c6.65,0.35,13.31,0.75,19.96,1.27c3.32,0.26,6.65,0.56,9.96,0.93c1.66,0.19,3.32,0.4,4.97,0.67c0.83,0.13,1.66,0.29,2.49,0.48
			c0.41,0.1,0.83,0.2,1.25,0.35c0.21,0.07,0.42,0.15,0.64,0.25c0.21,0.11,0.46,0.22,0.7,0.55c0.06,0.12,0.11,0.26,0.12,0.39
			c-0.01,0.13-0.05,0.28-0.11,0.41c-0.11,0.16-0.27,0.32-0.37,0.38c-0.24,0.16-0.45,0.24-0.67,0.33c-0.43,0.15-0.84,0.27-1.26,0.36
			c-0.83,0.2-1.66,0.34-2.5,0.46c-1.66,0.25-3.32,0.44-4.99,0.61c-3.33,0.33-6.65,0.57-9.98,0.78c-6.66,0.42-13.32,0.71-19.98,0.95
			c-13.32,0.47-26.65,0.78-39.98,0.94c-26.66,0.3-53.31,0.25-79.97-0.04c-26.65-0.39-53.3-1.02-79.94-2
			c-13.32-0.5-26.63-1.15-39.94-1.96c-6.65-0.41-13.3-0.87-19.95-1.46c-3.32-0.29-6.64-0.62-9.96-1.03
			c-1.66-0.21-3.32-0.43-4.97-0.72c-0.83-0.14-1.65-0.3-2.48-0.5c-0.41-0.1-0.83-0.21-1.25-0.36c-0.21-0.07-0.42-0.15-0.64-0.26
			c-0.21-0.11-0.46-0.22-0.7-0.56c-0.06-0.12-0.11-0.26-0.12-0.4c0.01-0.13,0.05-0.29,0.11-0.41c0.11-0.16,0.27-0.32,0.37-0.38
			c0.24-0.16,0.45-0.24,0.67-0.33c0.43-0.15,0.85-0.26,1.26-0.35c0.84-0.19,1.67-0.32,2.5-0.44c1.66-0.24,3.33-0.41,4.99-0.56
			c3.33-0.3,6.66-0.51,9.99-0.69c6.66-0.36,13.32-0.58,19.98-0.77c13.32-0.36,26.65-0.5,39.97-0.6
			C196.66,25.93,223.31,26.08,249.96,26.47z M249.96,26.47c-26.65-0.29-53.3-0.34-79.94-0.04c-13.32,0.17-26.64,0.47-39.96,0.94
			c-6.66,0.24-13.31,0.54-19.95,0.95c-3.32,0.21-6.64,0.45-9.95,0.78c-1.65,0.17-3.3,0.35-4.94,0.6c-0.82,0.12-1.63,0.26-2.42,0.45
			c-0.4,0.09-0.78,0.2-1.14,0.33c-0.16,0.07-0.34,0.14-0.45,0.22c-0.08,0.04-0.05,0.06-0.07,0.05c0.03-0.03,0.04-0.08,0.02-0.11
			c0.02-0.03,0-0.08-0.02-0.1c0.01,0,0.13,0.11,0.29,0.18c0.16,0.08,0.33,0.14,0.52,0.2c0.37,0.12,0.76,0.23,1.16,0.32
			c0.79,0.18,1.6,0.33,2.42,0.47c1.63,0.27,3.28,0.47,4.93,0.66c3.3,0.37,6.61,0.67,9.93,0.93c6.63,0.52,13.28,0.92,19.93,1.27
			c13.3,0.7,26.61,1.17,39.92,1.62c26.63,0.89,53.27,1.41,79.91,1.72c26.64,0.38,53.28,0.54,79.93,0.33
			c13.32-0.1,26.64-0.24,39.95-0.6c6.66-0.18,13.31-0.41,19.96-0.77c3.32-0.18,6.64-0.39,9.95-0.69c1.65-0.15,3.3-0.32,4.94-0.55
			c0.82-0.12,1.63-0.25,2.42-0.43c0.4-0.09,0.78-0.19,1.14-0.32c0.17-0.07,0.34-0.14,0.45-0.21c0.08-0.04,0.05-0.06,0.07-0.05
			c-0.03,0.03-0.03,0.08-0.02,0.11c-0.02,0.03,0,0.08,0.02,0.1c-0.01,0-0.13-0.11-0.29-0.18c-0.16-0.08-0.33-0.15-0.52-0.21
			c-0.37-0.13-0.76-0.23-1.15-0.33c-0.79-0.19-1.6-0.35-2.42-0.49c-1.63-0.28-3.27-0.51-4.92-0.71c-3.3-0.4-6.61-0.73-9.93-1.02
			c-6.63-0.58-13.28-1.04-19.92-1.45c-13.3-0.81-26.61-1.46-39.92-1.96C303.25,27.48,276.61,26.86,249.96,26.47z"/>
	</g>
</g>
</svg>
