<?xml version="1.0" encoding="utf-8"?>
<!-- Generator: Adobe Illustrator 24.3.0, SVG Export Plug-In . SVG Version: 6.00 Build 0)  -->
<svg version="1.1" id="Layer_1" xmlns="http://www.w3.org/2000/svg" xmlns:xlink="http://www.w3.org/1999/xlink" x="0px" y="0px"
	 viewBox="0 0 520 520" style="enable-background:new 0 0 520 520;" xml:space="preserve">
<style type="text/css">
	.st0{fill:#CCCAC6;}
</style>
<g>
	<path class="st0" d="M163.49,37.02c-2.28-0.01-4.55-0.16-6.82-0.31c-0.57-0.03-1.14-0.06-1.71-0.06c-0.56,0.02-1.15,0.03-1.66,0.3
		c-0.53,0.27-0.71,0.89-0.73,1.44l0.03,1.71l0.2,13.66l0.39,27.33l0.78,54.65l1.62,109.3l1.71,109.3l0.86,54.65l0.43,27.32
		l1.62,27.26l0,0.03l0,0.04c-0.03,1.6,0.03,3.23,0.55,4.61c0.26,0.68,0.65,1.26,1.18,1.67c0.52,0.41,1.2,0.63,1.92,0.72l0.05,0.01
		l0.05,0.01l53.1,13.7l26.54,6.87l13.27,3.44c1.09,0.27,2.25,0.58,3.27,0.77c0.51,0.08,0.95,0.1,1.47,0.05
		c0.52-0.05,1.07-0.14,1.62-0.24l6.74-1.22l53.96-9.76l26.98-4.88l13.49-2.44l6.75-1.22l3.37-0.61c1.04-0.17,1.86-0.53,2.29-1.17
		c0.48-0.63,0.46-1.54,0.49-2.76l0.12-3.43l0.24-6.85l0.47-13.7l0.95-27.41l1.9-54.81l3.86-109.62l3.95-109.61l1.97-54.8l0.99-27.4
		l0.5-13.7c0.06-1.12,0.07-2.28-0.3-3.28c-0.2-0.49-0.49-0.92-0.93-1.2c-0.44-0.26-0.95-0.45-1.5-0.53
		c-2.2-0.32-4.52-0.16-6.81-0.27L163.49,37.02z M163.49,37.02l219.25,7.05c1.14,0.03,2.28,0.04,3.42,0.05
		c1.14,0.02,2.29,0.01,3.46,0.2c0.58,0.08,1.17,0.28,1.71,0.6c0.54,0.35,0.91,0.89,1.14,1.46c0.42,1.16,0.4,2.35,0.35,3.5
		l-0.44,13.71l-0.86,27.41l-1.73,54.81l-3.46,109.62l-3.55,109.62l-1.8,54.81l-0.9,27.4l-0.45,13.7l-0.23,6.85l-0.11,3.43
		c-0.03,0.57-0.01,1.11-0.09,1.82c-0.08,0.68-0.31,1.4-0.75,2.03c-0.88,1.3-2.39,1.81-3.57,2l-3.37,0.6l-6.75,1.21l-13.5,2.42
		l-26.99,4.83l-53.98,9.67l-6.75,1.21c-0.57,0.1-1.15,0.2-1.77,0.26c-0.62,0.07-1.32,0.04-1.94-0.07c-1.22-0.24-2.28-0.53-3.4-0.81
		l-13.27-3.46l-26.53-6.92l-53.06-13.89l0.1,0.02c-0.91-0.11-1.88-0.41-2.66-1.03c-0.79-0.61-1.33-1.47-1.65-2.33
		c-0.64-1.74-0.66-3.49-0.63-5.18l0,0.06l-1.5-27.3l-0.31-27.33l-0.61-54.66l-1.22-109.31l-1.32-109.31l-0.69-54.65l-0.34-27.33
		l-0.17-13.66l-0.02-1.71c0.02-0.56,0.21-1.19,0.75-1.46c0.52-0.27,1.11-0.27,1.67-0.3c0.57-0.01,1.14,0.02,1.71,0.06
		C158.94,36.85,161.21,37.01,163.49,37.02z"/>
</g>
<g>
	<path class="st0" d="M163.49,37.02c-2.1-0.01-4.2-0.13-6.29-0.28c-1.04-0.05-2.1-0.17-3.14-0.02c-0.51,0.06-1.06,0.29-1.29,0.77
		c-0.23,0.48-0.2,1.02-0.19,1.54l0,0l26.27,114.13l26.4,114.1l52.82,228.2l-0.66-0.67l2,0.48c0.66,0.15,1.22,0.25,1.81,0.22
		c1.21-0.08,2.61-0.39,3.96-0.62l-0.7,0.64l31.7-111.39l31.9-111.34l64.1-222.59l-0.01,0.07c0.07-1.19,0.11-2.41-0.21-3.49
		c-0.28-1.12-1.27-1.73-2.44-1.89c-1.15-0.2-2.37-0.19-3.58-0.21c-1.21-0.01-2.44-0.03-3.66-0.08l-14.59-0.52l-29.17-1.04
		l-58.34-2.02L163.49,37.02z M163.49,37.02l116.7,3.77l58.35,1.86l29.18,0.9L382.3,44c1.21,0.04,2.42,0.05,3.64,0.06
		c1.22,0.02,2.44,0,3.69,0.2c0.62,0.09,1.27,0.3,1.83,0.69c0.59,0.38,0.93,1.03,1.13,1.64c0.37,1.26,0.32,2.52,0.26,3.75l0,0.03
		l-0.01,0.04l-63.08,222.88l-31.68,111.4L266.2,496.02l-0.15,0.54l-0.55,0.1l-2.04,0.36c-0.69,0.11-1.39,0.24-2.16,0.27
		c-0.79,0.04-1.6-0.11-2.28-0.27l-2.02-0.49l-0.54-0.13l-0.12-0.53l-51.82-228.43L178.6,153.22L152.55,39.04l0,0
		c-0.01-0.52-0.04-1.07,0.2-1.55c0.24-0.49,0.8-0.72,1.31-0.78c1.04-0.14,2.1-0.03,3.14,0.03
		C159.29,36.88,161.39,37.01,163.49,37.02z"/>
</g>
</svg>
