<?xml version="1.0" encoding="utf-8"?>
<!-- Generator: Adobe Illustrator 24.3.0, SVG Export Plug-In . SVG Version: 6.00 Build 0)  -->
<svg version="1.1" id="Layer_1" xmlns="http://www.w3.org/2000/svg" xmlns:xlink="http://www.w3.org/1999/xlink" x="0px" y="0px"
	 viewBox="0 0 520 520" style="enable-background:new 0 0 520 520;" xml:space="preserve">
<style type="text/css">
	.st0{fill:#F3F1F0;}
</style>
<g>
	<g>
		<path class="st0" d="M260.51,497.04c-2.45,0-4.9-0.15-7.32-0.55c-2.4-0.43-4.83-1.02-6.94-2.3c-1.04-0.63-2.03-1.42-2.67-2.49
			c-0.66-1.05-0.9-2.3-0.84-3.53c0.09-1.23,0.6-2.41,1.41-3.34c0.8-0.94,1.84-1.64,2.92-2.2l-0.02,0.03l-1.33-11.26l0,0.01
			c-1.16-4.03-2.91-7.89-5.34-11.31c-2.42-3.43-5.45-6.38-8.76-8.95l0,0l0,0c-2.75-2.84-5.92-5.23-8.93-7.8
			c-1.5-1.28-2.99-2.6-4.33-4.07c-1.31-1.46-2.56-3.13-2.88-5.15l0.03,0.05c-1.04-1.03-1.72-2.46-1.75-3.94l0.09,0.09
			c-3.02-0.12-6.04-0.72-8.85-1.86c-2.82-1.12-5.43-2.71-7.81-4.58c-2.39-1.86-4.56-3.98-6.58-6.22c-2.04-2.22-3.99-4.53-5.83-6.93
			c-3.7-4.77-6.99-9.87-9.91-15.15c-2.92-5.29-5.48-10.77-7.77-16.36l0-0.01l0-0.01c-8.29-29.86-10.6-61.45-6.19-92.17l15.52-91.62
			l3.88-22.91c1.27-7.63,2.61-15.28,4.17-22.88c3.08-15.2,6.88-30.24,10.76-45.23c1.94-7.5,3.88-14.99,5.74-22.5l1.38-5.64
			c0.47-1.88,0.85-3.79,1.43-5.64l3.24-11.16l6.48-22.32l1.62-5.58c0.28-0.94,0.52-1.84,0.84-2.81c0.32-0.97,0.7-1.91,1.17-2.81
			c1.84-3.66,4.91-6.58,8.36-8.59l0.03-0.02l0.03-0.01c6.87-3.45,14.25-5.86,21.8-7.21c3.78-0.68,7.59-1.12,11.42-1.34
			c1.91-0.11,3.83-0.16,5.74-0.18l5.71,0.05c3.82,0.07,7.66,0.3,11.47,0.89c1.9,0.3,3.8,0.66,5.67,1.18
			c1.87,0.49,3.72,1.12,5.51,1.9c1.8,0.75,3.52,1.71,5.15,2.79c1.64,1.1,3.13,2.24,4.62,3.56c0.73,0.67,1.43,1.41,2.04,2.25
			c0.6,0.83,1.1,1.73,1.5,2.63c0.81,1.79,1.45,3.57,2.15,5.33l0.02,0.04l0.01,0.04l7.09,24.32c2.42,8.09,4.7,16.23,6.92,24.39
			c4.43,16.31,8.46,32.73,12.15,49.22c3.65,16.5,6.96,33.07,9.82,49.74c2.62,16.68,5.68,33.29,8.4,49.96
			c2.74,16.67,5.18,33.4,6.78,50.23c0.76,8.42,1.38,16.85,1.63,25.3c0.23,8.45,0.21,16.91-0.25,25.35
			c-0.51,8.44-1.43,16.86-2.88,25.19c-1.47,8.33-3.62,16.54-6.4,24.52c-5.47,16-14.41,30.81-26.11,43.02l-0.01,0.01l-0.01,0.01
			c-2.81,2.09-5.68,4.12-8.74,5.83c-3.06,1.7-6.34,3.11-9.82,3.65l0.08-0.08c-0.2,0.94-0.48,1.9-1.07,2.7
			c-0.58,0.79-1.34,1.41-2.06,2.04l0.03-0.05c-0.62,2.39-1.85,4.6-3.49,6.44c-1.63,1.85-3.61,3.35-5.63,4.72
			c-2.03,1.37-4.13,2.64-6.11,4.08c-1.99,1.42-3.8,3.09-5.36,4.97c-3.13,3.77-5.3,8.26-6.84,12.9c-1.55,4.65-2.49,9.48-3.12,14.34
			l0,0.03h-0.03h0l0.01-0.06c1.17,0.5,2.31,1.14,3.2,2.07c0.9,0.91,1.5,2.11,1.69,3.38c0.18,1.27,0.03,2.58-0.45,3.76
			c-0.49,1.18-1.37,2.19-2.43,2.9c-2.14,1.43-4.69,2.05-7.2,2.42C265.62,496.93,263.06,497.04,260.51,497.04z M260.51,497.04
			c2.55-0.01,5.11-0.12,7.63-0.5c2.51-0.38,5.05-1.01,7.18-2.43c1.06-0.71,1.93-1.71,2.41-2.88c0.47-1.17,0.61-2.48,0.44-3.74
			c-0.19-1.26-0.79-2.45-1.68-3.35c-0.89-0.92-2.02-1.55-3.19-2.05l-0.14-0.06h0.15h0l-0.03,0.03c0.62-4.86,1.55-9.7,3.09-14.36
			c1.53-4.65,3.7-9.15,6.83-12.95c1.56-1.9,3.38-3.57,5.38-5.01c1.98-1.45,4.08-2.72,6.11-4.09c2.02-1.37,3.98-2.87,5.59-4.71
			c1.62-1.82,2.83-4.01,3.44-6.38l0.01-0.03l0.02-0.02c0.72-0.63,1.47-1.25,2.03-2.02c0.56-0.76,0.83-1.7,1.03-2.63l0.01-0.07
			l0.07-0.01c3.45-0.54,6.71-1.94,9.75-3.65c3.05-1.71,5.91-3.74,8.7-5.84l-0.01,0.01c11.64-12.21,20.57-26.98,25.92-42.98
			c2.74-7.97,4.84-16.17,6.26-24.48c1.41-8.32,2.28-16.71,2.75-25.13c0.42-8.42,0.4-16.86,0.12-25.29
			c-0.29-8.43-0.95-16.84-1.76-25.24c-1.68-16.79-4.21-33.49-7.03-50.13c-2.81-16.64-5.96-33.25-8.66-49.92
			c-2.94-16.61-6.34-33.15-10.06-49.61c-3.72-16.46-7.77-32.85-12.23-49.12c-2.23-8.14-4.53-16.25-6.96-24.34l-7.14-24.31l0.03,0.08
			c-0.7-1.77-1.36-3.56-2.12-5.22c-0.74-1.67-1.75-3.05-3.11-4.26c-1.35-1.19-2.88-2.37-4.39-3.37c-1.53-1.01-3.15-1.9-4.85-2.61
			c-6.82-2.91-14.42-3.64-21.92-3.77c-3.79-0.03-7.56-0.11-11.31,0.13c-3.75,0.21-7.49,0.62-11.18,1.28
			c-7.38,1.31-14.58,3.65-21.29,7l0.06-0.03c-3.22,1.88-5.98,4.51-7.65,7.8c-0.42,0.81-0.78,1.67-1.06,2.54
			c-0.29,0.87-0.55,1.84-0.82,2.75l-1.63,5.57l-6.52,22.28l-3.26,11.14c-0.59,1.85-0.96,3.74-1.44,5.61l-1.39,5.64
			c-1.88,7.52-3.84,15.01-5.79,22.51c-3.9,14.98-7.74,29.97-10.91,45.11c-1.6,7.57-2.96,15.17-4.28,22.8l-4,22.88l-15.98,91.52
			c-4.55,30.57-2.41,62.1,5.71,91.95l-0.01-0.02c2.26,5.59,4.78,11.08,7.69,16.35c2.91,5.28,6.18,10.36,9.86,15.13
			c1.83,2.4,3.77,4.7,5.8,6.93c2.02,2.24,4.17,4.36,6.54,6.21c2.36,1.86,4.95,3.45,7.74,4.56c2.79,1.14,5.77,1.74,8.78,1.86l0.09,0
			l0,0.09c0.03,1.44,0.68,2.81,1.69,3.82l0.02,0.02l0.01,0.03c0.31,1.94,1.53,3.6,2.83,5.06c1.32,1.46,2.81,2.77,4.31,4.06
			c3,2.58,6.17,4.96,8.92,7.82l-0.01-0.01c3.31,2.58,6.35,5.55,8.77,8.99c2.43,3.43,4.19,7.31,5.33,11.35l0,0l0,0l1.3,11.27l0,0.02
			l-0.02,0.01c-1.08,0.56-2.11,1.25-2.91,2.18c-0.8,0.92-1.31,2.09-1.4,3.31c-0.06,1.21,0.17,2.46,0.83,3.5
			c0.63,1.06,1.62,1.85,2.65,2.48c2.1,1.28,4.53,1.88,6.92,2.31C255.61,496.88,258.06,497.04,260.51,497.04z"/>
	</g>
	<g>
		<path class="st0" d="M273.31,482.06c-2.24-0.02-4.43-0.12-6.61-0.17c-2.18-0.04-4.35-0.07-6.51-0.01
			c-2.17,0.03-4.33,0.15-6.5,0.29l-6.59,0.49c2.03-0.95,4.19-1.59,6.38-2.04c2.19-0.46,4.43-0.68,6.67-0.74
			c2.24-0.03,4.49,0.1,6.69,0.46C269.05,480.69,271.23,481.23,273.31,482.06z"/>
	</g>
	<g>
		<path class="st0" d="M303.81,434.59c-3.66-0.49-7.31-0.82-11-0.94c-1.83-0.12-3.67-0.16-5.51-0.22c-1.84-0.07-3.68-0.12-5.51-0.15
			c-7.35-0.15-14.71-0.23-22.07-0.22c-7.36-0.01-14.72,0.06-22.08,0.16c-3.68,0.07-7.36,0.13-11.04,0.26
			c-3.68,0.09-7.35,0.28-11.03,0.64c7.24-1.48,14.64-2.03,22.01-2.46c7.37-0.42,14.75-0.58,22.13-0.6
			c7.38,0.02,14.76,0.2,22.14,0.66C289.21,432.21,296.63,432.82,303.81,434.59z"/>
	</g>
	<g>
		<path class="st0" d="M306.91,429.9c-0.73-0.67-1.67-1.02-2.59-1.32c-0.93-0.3-1.88-0.54-2.84-0.72c-1.92-0.38-3.87-0.63-5.82-0.83
			c-3.9-0.42-7.83-0.64-11.75-0.83c-7.85-0.33-15.72-0.43-23.59-0.36c-7.87,0.04-15.73,0.25-23.58,0.63
			c-3.92,0.21-7.85,0.46-11.76,0.86c-1.95,0.19-3.9,0.43-5.83,0.78c-0.96,0.18-1.92,0.39-2.85,0.67c-0.47,0.14-0.93,0.3-1.37,0.52
			c-0.43,0.21-0.88,0.48-1.06,0.95c0.13-0.49,0.58-0.82,0.99-1.08c0.42-0.27,0.88-0.47,1.34-0.67c0.93-0.37,1.88-0.65,2.84-0.9
			c1.92-0.5,3.87-0.89,5.82-1.23c3.91-0.65,7.84-1.1,11.78-1.45c7.88-0.71,15.78-1,23.68-1.07c7.9-0.02,15.81,0.16,23.7,0.81
			c3.94,0.32,7.88,0.75,11.79,1.41c1.95,0.35,3.9,0.75,5.81,1.28c0.96,0.26,1.91,0.57,2.82,0.95
			C305.32,428.69,306.24,429.15,306.91,429.9z"/>
	</g>
</g>
</svg>
