<?xml version="1.0" encoding="utf-8"?>
<!-- Generator: Adobe Illustrator 24.3.0, SVG Export Plug-In . SVG Version: 6.00 Build 0)  -->
<svg version="1.1" id="Layer_1" xmlns="http://www.w3.org/2000/svg" xmlns:xlink="http://www.w3.org/1999/xlink" x="0px" y="0px"
	 viewBox="0 0 520 520" style="enable-background:new 0 0 520 520;" xml:space="preserve">
<style type="text/css">
	.st0{fill:#F3F1F0;}
</style>
<g>
	<g>
		<g>
			<path class="st0" d="M74.18,373.24c-7.54-9.15-16.2-17.3-23.59-26.59c-3.68-4.64-7.05-9.56-9.6-14.93
				c-2.56-5.35-4.2-11.16-4.61-17.09l0-0.01l0-0.01c1.6-15.84,3.75-31.64,6.65-47.3c2.92-15.65,6.44-31.21,10.78-46.53
				c4.32-15.33,9.26-30.49,15.04-45.34c1.46-3.71,2.89-7.43,4.44-11.09c1.52-3.68,3.05-7.36,4.74-10.98
				c1.7-3.61,3.53-7.18,5.92-10.43c2.32-3.25,5.57-6.07,9.53-7.23c0.5-0.12,1-0.2,1.5-0.3l0.75-0.14c0.25-0.03,0.51-0.02,0.76-0.04
				c1.02-0.04,2.03-0.07,3.02-0.08l5.97-0.08l11.94-0.16l23.88-0.32l47.76-0.64l95.53-1.27l47.76-0.57l23.88-0.28
				c7.97-0.12,15.98,0.05,23.95,0.7c3.99,0.33,7.97,0.78,11.92,1.38c3.97,0.6,7.88,1.36,11.79,2.1c7.83,1.5,15.64,3.17,23.37,5.2
				c1.93,0.51,3.86,1.04,5.78,1.6l2.87,0.86c0.95,0.29,1.96,0.61,2.94,1.07c0.97,0.45,1.98,1.11,2.71,2
				c0.75,0.87,1.24,1.8,1.74,2.65c0.49,0.86,0.98,1.7,1.51,2.51l1.62,2.51c2.15,3.37,4.18,6.86,5.91,10.51
				c0.86,1.82,1.65,3.69,2.35,5.58l2.02,5.63c5.29,15.05,10,30.3,14.03,45.73c4.02,15.43,7.37,31.08,9.32,46.93
				c2.15,15.73,4.55,31.62,4.26,47.65c-0.18,7.99-0.92,16.09-3.54,23.78c-1.3,3.83-3.25,7.51-5.96,10.6
				c-2.71,3.1-6.41,5.31-10.35,6.42l-0.06,0.02l-0.07,0.01L310.09,370.8l-154.26,13.61l-0.01,0l-0.01,0
				c-3.54-0.17-7.08,0.14-10.6,0.5l-10.57,1.2c-7.04,0.78-14.14,1.36-21.23,1.14c-7.08-0.21-14.18-1.22-20.91-3.48
				C85.76,381.54,79.53,377.89,74.18,373.24z M74.18,373.24c5.36,4.64,11.6,8.28,18.34,10.49c6.73,2.25,13.83,3.24,20.9,3.44
				c7.09,0.2,14.17-0.38,21.22-1.18l10.57-1.22c3.52-0.37,7.07-0.69,10.63-0.52l-0.01,0l154.21-14.12l154.2-14.24l-0.12,0.02
				c3.69-1.07,7.1-3.12,9.62-6.04c2.53-2.91,4.38-6.41,5.61-10.11c2.5-7.44,3.2-15.41,3.34-23.3c0.1-7.91-0.42-15.84-1.26-23.73
				c-0.42-3.95-0.91-7.89-1.45-11.82c-0.52-3.93-1.21-7.88-1.64-11.83c-1.97-15.76-5.33-31.32-9.36-46.69
				c-4.04-15.37-8.77-30.57-14.07-45.55l-2.02-5.61c-0.68-1.84-1.45-3.64-2.29-5.42c-1.68-3.55-3.67-6.95-5.81-10.28l-1.62-2.5
				c-0.56-0.85-1.07-1.74-1.56-2.61c-0.49-0.86-0.96-1.7-1.51-2.34c-0.54-0.65-1.24-1.12-2.06-1.51c-0.82-0.39-1.71-0.69-2.67-0.97
				l-2.84-0.86c-1.9-0.56-3.81-1.09-5.73-1.6c-7.67-2.03-15.44-3.7-23.24-5.22c-3.91-0.74-7.81-1.51-11.72-2.11
				c-3.91-0.6-7.85-1.05-11.8-1.38c-7.9-0.66-15.83-0.84-23.78-0.74l-23.89,0.24l-47.77,0.48l-95.54,0.81l-47.77,0.41l-23.88,0.2
				l-11.94,0.1l-5.97,0.05c-1,0-1.98,0.03-2.95,0.06c-0.24,0.01-0.49,0-0.73,0.03l-0.71,0.13c-0.47,0.09-0.95,0.17-1.43,0.27
				c-3.74,1.08-6.86,3.74-9.16,6.92c-2.35,3.16-4.19,6.7-5.9,10.28c-1.69,3.59-3.24,7.26-4.78,10.93
				c-1.57,3.66-3.02,7.36-4.49,11.06c-5.84,14.8-10.86,29.93-15.25,45.23c-4.38,15.31-7.91,30.84-10.87,46.49
				c-2.92,15.65-5.11,31.43-6.74,47.27l0-0.01c0.4,5.91,2.02,11.71,4.56,17.05c2.53,5.36,5.89,10.29,9.56,14.93
				C58.01,355.9,66.65,364.08,74.18,373.24z"/>
		</g>
	</g>
	<g>
		<g>
			<path class="st0" d="M114.99,150.01c-3.52-0.72-7.02-1.57-10.43-2.69c-3.42-1.11-6.74-2.51-9.92-4.2l0,0l0,0
				c-0.45-0.41-0.88-0.85-1.19-1.39c-0.15-0.27-0.27-0.57-0.23-0.89c0.03-0.31,0.22-0.61,0.48-0.78c0.5-0.38,1.11-0.53,1.71-0.66
				c0.6-0.13,1.21-0.19,1.81-0.24l0,0c27.57-0.19,55.15-0.28,82.72-0.56l82.71-0.72l82.71-0.65l20.68-0.13
				c1.73,0.01,3.43-0.19,5.18-0.18c0.87-0.03,1.74-0.03,2.61-0.01c0.87,0,1.74,0.03,2.61,0.08c3.48,0.15,6.96,0.55,10.39,1.13
				c3.43,0.58,6.82,1.35,10.18,2.14l10.07,2.34l20.12,4.81l-0.07-0.01c0.75,0.13,1.5,0.25,2.28,0.43c0.39,0.09,0.77,0.18,1.24,0.37
				c0.14,0.07,0.24,0.09,0.48,0.28c0.04,0.04,0.09,0.07,0.2,0.2c0.09,0.13,0.15,0.18,0.21,0.41c0.07,0.22,0.02,0.56-0.05,0.69
				c-0.06,0.15-0.18,0.31-0.28,0.39c-0.27,0.22-0.43,0.27-0.57,0.32c-0.13,0.04-0.26,0.08-0.36,0.11c-1.68,0.34-3.12,0.38-4.66,0.49
				c-3.02,0.17-6.03,0.24-9.04,0.32l-9.01,0.22l-4.49,0.15l-2.24,0.12c-0.78,0.05-1.51,0.02-2.27,0.04l-36.07,0.27l-72.15,0.36
				l-72.14,0.36l-72.14,0.52l0,0l0,0C135.69,152.44,125.2,152.23,114.99,150.01z M114.99,150.01c10.22,2.18,20.7,2.36,31.07,3.31
				l-0.01,0l72.13-0.83l72.12-0.99l72.12-0.99l36.06-0.4c0.74-0.02,1.52,0,2.24-0.05l2.26-0.13l4.52-0.17l9.02-0.25
				c3-0.09,6-0.17,8.98-0.35c1.46-0.1,3.03-0.18,4.3-0.45c0.08-0.02,0.13-0.04,0.18-0.05c0.04-0.01,0.05-0.04-0.07,0.07
				c-0.07,0.05-0.16,0.17-0.2,0.28c-0.04,0.09-0.11,0.37-0.04,0.55c0.06,0.18,0.07,0.2,0.14,0.29l0.1,0.1
				c0.09,0.06,0.01,0.01-0.01,0c-0.23-0.09-0.58-0.19-0.92-0.26c-0.69-0.16-1.42-0.28-2.15-0.4l-0.03-0.01l-0.03-0.01l-20.12-4.75
				l-10.07-2.38c-3.35-0.8-6.69-1.57-10.05-2.15c-3.36-0.58-6.75-0.98-10.15-1.14c-0.85-0.05-1.7-0.08-2.55-0.08
				c-0.85-0.02-1.7-0.02-2.56,0c-1.7-0.02-3.43,0.17-5.15,0.16l-20.68,0.06l-82.74,0.08l-82.73,0c-27.58-0.03-55.15,0.12-82.73,0.17
				l0,0c-0.6,0.05-1.21,0.11-1.8,0.23c-0.59,0.12-1.19,0.28-1.67,0.64c-0.53,0.33-0.58,1.07-0.24,1.57c0.3,0.52,0.73,0.96,1.17,1.37
				l-0.01-0.01c3.17,1.69,6.48,3.11,9.89,4.23C107.98,148.42,111.47,149.28,114.99,150.01z"/>
		</g>
	</g>
</g>
</svg>
