<?xml version="1.0" encoding="utf-8"?>
<!-- Generator: Adobe Illustrator 24.3.0, SVG Export Plug-In . SVG Version: 6.00 Build 0)  -->
<svg version="1.1" id="Layer_1" xmlns="http://www.w3.org/2000/svg" xmlns:xlink="http://www.w3.org/1999/xlink" x="0px" y="0px"
	 viewBox="0 0 520 520" style="enable-background:new 0 0 520 520;" xml:space="preserve">
<style type="text/css">
	.st0{fill:#F3F1F0;}
</style>
<g>
	<g>
		<path class="st0" d="M97.61,46.27c-0.94,1.28-1.13,2.92-1.04,4.45c0.08,1.56,0.37,3.09,0.74,4.6c0.74,3.03,1.76,5.98,2.73,8.93
			l0,0.01l0,0.01l2.72,20.62l-0.04-0.09c0.61,0.73,0.88,1.57,1.21,2.39c0.3,0.83,0.58,1.66,0.83,2.5c0.51,1.68,0.97,3.37,1.41,5.07
			c0.87,3.39,1.68,6.8,2.45,10.22c1.54,6.83,2.97,13.69,4.37,20.55c2.78,13.73,5.4,27.49,7.96,41.26c5.1,27.54,9.9,55.14,14.6,82.75
			c1.16,6.91,2.36,13.8,3.46,20.73c1.04,6.95,1.78,13.92,2.5,20.89c1.41,13.94,2.58,27.9,3.72,41.86l3.29,41.88l1.72,20.93
			c0.31,3.48,0.62,6.97,0.98,10.44c0.18,1.74,0.36,3.48,0.58,5.2c0.1,0.87,0.23,1.72,0.35,2.57c0.06,0.43,0.15,0.84,0.22,1.25
			c0.07,0.45,0.18,0.74,0.26,1.05l0.09,0.29l0.59,4.45l-0.03,0.39c-0.01,0.12-0.02,0.24-0.05,0.36l-0.02,0.51
			c-0.02,0.34-0.01,0.7,0,1.06c0,0.72,0.05,1.45,0.09,2.18c0.09,1.46,0.19,2.93,0.31,4.4l0.78,8.83l0.41,4.42
			c0.06,0.74,0.13,1.47,0.17,2.26c0.03,0.73,0.06,1.45,0.13,2.16c0.13,1.42,0.37,2.83,0.81,4.13c0.44,1.3,1.1,2.49,2.05,3.33
			l-0.06-0.05c3.57,2.62,7.68,4.52,11.9,6.1c4.23,1.57,8.58,2.83,12.98,3.94c4.39,1.1,8.86,2.11,13.29,2.96l6.73,1.02l6.77,0.87
			c18.07,2.11,36.28,3.07,54.48,2.99c18.2-0.07,36.41-1.04,54.43-3.56c9.04-1.12,17.98-2.68,26.7-5.16
			c2.18-0.62,4.34-1.29,6.48-2.02c1.07-0.37,2.13-0.73,3.21-1.14c1.07-0.43,2.18-0.75,3.11-1.19c1.92-0.89,3.54-2.33,4.78-4.09
			c1.25-1.76,2.14-3.79,2.85-5.89l-0.03,0.11l2.51-12.67l0.09,0.6c-0.55-1.22-0.61-2.22-0.75-3.28c-0.12-1.04-0.17-2.07-0.2-3.09
			c-0.07-2.05-0.06-4.08-0.01-6.12c0.08-4.06,0.29-8.11,0.54-12.16c0.5-8.09,1.17-16.16,1.9-24.22c1.47-16.12,3.2-32.22,5.04-48.29
			c1.86-16.08,3.85-32.14,5.94-48.18c2.11-16.05,4.27-32.08,6.77-48.08c0.63-3.99,1.31-8.01,2.13-11.97l2.37-11.9l4.89-23.77
			c3.29-15.84,6.65-31.67,9.82-47.53c3.16-15.86,6.1-31.77,8.59-47.76l0.93-5.99l0.85-6.01c0.59-4,1.08-8.02,1.58-12.03
			c0.54-4.01,0.91-8.04,1.36-12.06c0.2-2.01,0.41-4.04,0.94-6c0.5-1.96,1.18-3.87,1.78-5.8l0,0.01l0.58-4.28
			c0.1-0.71,0.2-1.43,0.23-2.15c0.02-0.36,0.04-0.72-0.05-1.07c-0.07-0.38-0.45-0.57-0.8-0.62c0.35,0.05,0.73,0.24,0.8,0.62
			c0.09,0.35,0.07,0.72,0.06,1.08c-0.02,0.72-0.12,1.43-0.21,2.15l-0.54,4.29l0,0l0,0c-0.58,1.94-1.25,3.85-1.74,5.81
			c-0.51,1.96-0.71,3.97-0.9,5.98c-0.42,4.02-0.77,8.05-1.27,12.07c-0.47,4.02-0.93,8.04-1.49,12.04l-0.8,6.02l-0.88,6
			c-2.37,16.01-5.19,31.95-8.23,47.84c-3.04,15.89-6.29,31.75-9.53,47.6l-4.79,23.79l-2.32,11.91c-0.8,3.97-1.46,7.93-2.07,11.93
			c-2.43,15.98-4.52,32.03-6.56,48.07c-2.03,16.05-3.94,32.11-5.74,48.18c-1.81,16.07-3.52,32.16-4.97,48.26
			c-0.72,8.05-1.37,16.11-1.86,24.17c-0.24,4.03-0.44,8.06-0.52,12.09c-0.04,2.01-0.04,4.02,0.02,6.02c0.03,1,0.08,1.99,0.19,2.96
			c0.1,0.94,0.25,1.99,0.55,2.62l0.15,0.31l-0.06,0.29l-2.49,12.67l-0.01,0.06l-0.02,0.05c-0.75,2.21-1.7,4.41-3.09,6.38
			c-1.38,1.97-3.27,3.67-5.5,4.7c-0.55,0.27-1.13,0.48-1.67,0.67l-1.6,0.59c-1.05,0.4-2.15,0.78-3.23,1.16
			c-2.17,0.75-4.37,1.42-6.57,2.05c-8.82,2.53-17.91,4.12-26.96,5.26c-18.11,2.56-36.41,3.55-54.68,3.65
			c-9.14,0.04-18.28-0.21-27.4-0.72c-9.12-0.51-18.24-1.27-27.32-2.36l-6.8-0.88l-6.8-1.04c-4.52-0.88-8.96-1.89-13.41-3.01
			c-4.44-1.12-8.85-2.41-13.18-4.02c-4.31-1.62-8.56-3.58-12.35-6.37l-0.03-0.02l-0.03-0.03c-1.28-1.14-2.07-2.64-2.57-4.13
			c-0.5-1.5-0.76-3.03-0.9-4.55c-0.07-0.76-0.11-1.52-0.13-2.27c-0.04-0.69-0.1-1.43-0.16-2.16l-0.4-4.41l-0.77-8.85
			c-0.12-1.48-0.22-2.96-0.3-4.45c-0.03-0.75-0.08-1.49-0.08-2.25c-0.01-0.38-0.02-0.75,0-1.16l0.03-0.6
			c0.03-0.25,0.07-0.49,0.12-0.74l-0.03,0.39l-0.59-4.45l0.09,0.29c-0.19-0.52-0.36-1.07-0.41-1.49c-0.08-0.45-0.18-0.9-0.24-1.34
			c-0.13-0.88-0.26-1.76-0.36-2.63c-0.22-1.75-0.4-3.49-0.58-5.24c-0.36-3.49-0.66-6.98-0.97-10.47l-1.69-20.95l-3.21-41.89
			c-1.09-13.96-2.2-27.92-3.55-41.85c-0.69-6.96-1.4-13.93-2.4-20.83c-1.07-6.9-2.24-13.82-3.37-20.72
			c-4.57-27.63-9.3-55.24-14.22-82.81c-2.46-13.79-4.98-27.56-7.65-41.3c-1.34-6.87-2.72-13.73-4.21-20.57
			c-0.75-3.42-1.52-6.83-2.37-10.23c-0.43-1.7-0.87-3.39-1.37-5.06c-0.25-0.84-0.51-1.67-0.8-2.49c-0.31-0.8-0.61-1.66-1.12-2.29
			l-0.04-0.05l0-0.04L99.9,64.29l0,0.01c-0.95-2.97-1.95-5.92-2.67-8.96c-0.35-1.52-0.64-3.06-0.7-4.62
			C96.47,49.18,96.67,47.53,97.61,46.27z"/>
	</g>
	<g>
		<path class="st0" d="M260.14,67.14c27.75-0.07,55.51-0.95,83.17-3.11c13.83-1.11,27.63-2.58,41.33-4.72
			c6.84-1.09,13.67-2.35,20.37-4.07c3.34-0.87,6.67-1.84,9.85-3.14c1.58-0.66,3.15-1.38,4.54-2.32c0.7-0.46,1.36-0.99,1.88-1.59
			c0.52-0.6,0.88-1.3,0.89-2.02c-0.01-0.71-0.38-1.41-0.9-2c-0.52-0.6-1.18-1.12-1.88-1.57c-1.4-0.92-2.97-1.63-4.55-2.27
			c-3.19-1.27-6.52-2.21-9.86-3.05c-6.71-1.65-13.53-2.85-20.38-3.88c-13.7-2.04-27.51-3.33-41.33-4.38
			c-27.65-2.06-55.39-2.85-83.12-2.82c-27.73-0.02-55.47,0.76-83.12,2.82c-13.82,1.05-27.63,2.35-41.33,4.38
			c-6.85,1.03-13.67,2.23-20.38,3.88c-3.35,0.84-6.68,1.78-9.86,3.05c-1.58,0.64-3.15,1.35-4.55,2.27c-0.7,0.45-1.36,0.97-1.88,1.57
			c-0.52,0.59-0.89,1.29-0.9,2c0.01,0.71,0.37,1.41,0.89,2.01c0.52,0.61,1.17,1.13,1.87,1.59c1.4,0.94,2.96,1.66,4.54,2.32
			c3.18,1.3,6.51,2.27,9.85,3.14c6.7,1.72,13.53,2.98,20.37,4.07c13.7,2.15,27.5,3.61,41.33,4.72
			C204.64,66.18,232.39,67.07,260.14,67.14z M260.14,67.14c-27.75,0.03-55.51-0.76-83.19-2.82c-13.84-1.05-27.67-2.35-41.4-4.39
			c-6.87-1.03-13.72-2.23-20.47-3.9c-3.37-0.85-6.73-1.8-9.99-3.09c-1.62-0.66-3.24-1.38-4.73-2.36c-0.75-0.48-1.47-1.05-2.09-1.75
			c-0.61-0.69-1.13-1.61-1.15-2.65c0.01-1.05,0.52-1.97,1.13-2.67c0.61-0.71,1.33-1.28,2.08-1.77c1.49-1,3.1-1.74,4.72-2.41
			c3.25-1.33,6.61-2.3,9.98-3.19c6.75-1.73,13.6-2.99,20.46-4.09c13.74-2.15,27.56-3.62,41.41-4.73c27.7-2.16,55.48-3.05,83.25-3.11
			c27.77,0.07,55.55,0.95,83.25,3.12c13.84,1.11,27.67,2.58,41.41,4.73c6.86,1.09,13.71,2.36,20.46,4.09
			c3.37,0.88,6.73,1.86,9.98,3.18c1.62,0.67,3.23,1.41,4.72,2.41c0.75,0.49,1.47,1.06,2.08,1.77c0.6,0.7,1.12,1.62,1.13,2.67
			c-0.02,1.04-0.54,1.96-1.14,2.65c-0.62,0.7-1.34,1.27-2.09,1.75c-1.5,0.98-3.11,1.71-4.73,2.36c-3.26,1.29-6.62,2.24-9.99,3.09
			c-6.76,1.67-13.61,2.87-20.47,3.9c-13.74,2.04-27.57,3.34-41.4,4.39C315.65,66.38,287.89,67.17,260.14,67.14z"/>
	</g>
	<g>
		<path class="st0" d="M260.14,59.7c23.46-0.06,46.92-0.64,70.34-2.03c11.71-0.71,23.4-1.67,35.04-3.05
			c5.82-0.7,11.63-1.5,17.37-2.6c2.87-0.55,5.73-1.18,8.52-1.99c1.39-0.41,2.77-0.88,4.07-1.47c0.64-0.3,1.28-0.63,1.82-1.04
			c0.55-0.39,0.97-0.92,0.97-1.37c-0.01-0.46-0.44-0.97-0.99-1.36c-0.54-0.4-1.18-0.72-1.82-1.01c-1.3-0.58-2.68-1.03-4.08-1.42
			c-2.8-0.78-5.66-1.38-8.53-1.89c-5.75-1.03-11.56-1.77-17.38-2.41c-11.64-1.26-23.34-2.06-35.04-2.71
			c-23.4-1.29-46.86-1.77-70.3-1.73c-23.44-0.03-46.89,0.45-70.3,1.74c-11.7,0.66-23.4,1.44-35.04,2.71
			c-5.82,0.64-11.63,1.38-17.38,2.41c-2.87,0.52-5.73,1.11-8.53,1.89c-1.39,0.4-2.78,0.84-4.08,1.42c-0.64,0.29-1.28,0.61-1.82,1.01
			c-0.55,0.39-0.97,0.9-0.99,1.35c0.01,0.45,0.42,0.98,0.97,1.37c0.54,0.41,1.17,0.73,1.82,1.03c1.3,0.59,2.68,1.06,4.07,1.47
			c2.79,0.81,5.65,1.44,8.52,1.99c5.75,1.1,11.56,1.89,17.37,2.6c11.64,1.38,23.34,2.34,35.04,3.05
			C213.22,59.06,236.68,59.64,260.14,59.7z M260.14,59.7c-23.46,0.04-46.93-0.44-70.36-1.73c-11.71-0.65-23.42-1.44-35.1-2.71
			c-5.83-0.64-11.66-1.38-17.45-2.42c-2.89-0.52-5.78-1.12-8.63-1.92c-1.42-0.41-2.84-0.86-4.21-1.47
			c-0.69-0.31-1.37-0.65-2.01-1.12c-0.32-0.24-0.63-0.51-0.9-0.85c-0.26-0.35-0.48-0.8-0.49-1.31c0.01-0.51,0.23-0.96,0.48-1.32
			c0.27-0.34,0.57-0.62,0.89-0.86c0.64-0.48,1.32-0.82,2-1.14c1.37-0.63,2.79-1.1,4.21-1.52c2.85-0.83,5.73-1.46,8.62-2.01
			c5.78-1.1,11.61-1.9,17.44-2.61c11.67-1.38,23.38-2.34,35.1-3.05c23.44-1.39,46.92-1.97,70.4-2.02
			c23.48,0.06,46.95,0.64,70.4,2.03c11.72,0.72,23.43,1.68,35.1,3.05c5.83,0.71,11.66,1.51,17.44,2.61
			c2.89,0.55,5.77,1.18,8.62,2.01c1.42,0.42,2.83,0.89,4.21,1.52c0.68,0.32,1.37,0.66,2,1.14c0.32,0.24,0.62,0.52,0.89,0.86
			c0.26,0.35,0.47,0.8,0.48,1.31c-0.02,0.51-0.23,0.96-0.49,1.31c-0.27,0.34-0.58,0.61-0.9,0.85c-0.64,0.47-1.32,0.81-2.01,1.12
			c-1.38,0.61-2.79,1.07-4.21,1.47c-2.85,0.8-5.73,1.39-8.63,1.92c-5.79,1.04-11.62,1.78-17.45,2.42
			c-11.67,1.27-23.38,2.06-35.1,2.71C307.07,59.26,283.6,59.74,260.14,59.7z"/>
	</g>
</g>
</svg>
