<?xml version="1.0" encoding="utf-8"?>
<!-- Generator: Adobe Illustrator 24.3.0, SVG Export Plug-In . SVG Version: 6.00 Build 0)  -->
<svg version="1.1" id="Layer_1" xmlns="http://www.w3.org/2000/svg" xmlns:xlink="http://www.w3.org/1999/xlink" x="0px" y="0px"
	 viewBox="0 0 520 520" style="enable-background:new 0 0 520 520;" xml:space="preserve">
<style type="text/css">
	.st0{fill:#F3F1F0;}
</style>
<g>
	<g>
		<path class="st0" d="M90.44,46.62c-1.15,0.37-2.26,0.9-3.17,1.7c-0.91,0.8-1.56,1.87-1.88,3.04l0,0
			c-2.62,17.8-4.69,35.69-7.86,53.41c-3.13,17.72-5.44,35.58-7.2,53.49c-3.52,35.82-5.17,71.8-6.52,107.76
			c-0.16,4.49-0.41,8.99-0.24,13.49c0.07,4.5,0.12,8.99,0.27,13.49c0.12,4.5,0.24,8.99,0.45,13.49c0.17,4.49,0.37,8.99,0.63,13.48
			c0.96,17.97,2.38,35.91,4.16,53.81c1.77,17.91,3.93,35.77,6.22,53.62l3.52,26.76l1.79,13.38c0.29,2.16,0.87,4.34,2.26,5.88
			c1.38,1.56,3.56,2.07,5.7,1.95l0.54-0.03l0.07,0.55c0.28,2.11,0.62,4.26,1.45,6.14c0.41,0.93,0.97,1.79,1.73,2.34
			c0.75,0.57,1.68,0.81,2.66,0.76l0.02,0l0.03,0l38.01,0.8l19.01,0.4c6.34,0.12,12.67,0.13,19.01,0.2l76.04,0.72l76.03,0.77
			l38.02,0.38l19.01,0.19c3.17,0.02,6.34,0.09,9.5,0.07l9.48-0.3l0.1,0l0.12,0.02c1.12,0.2,2.25,0.27,3.27,0.07
			c1.02-0.2,1.94-0.67,2.62-1.45c0.69-0.77,1.19-1.77,1.55-2.84c0.36-1.08,0.59-2.23,0.76-3.4l0.13-0.94l0.95,0.09
			c1.63,0.16,3.27,0,4.25-0.9c0.99-0.9,1.37-2.53,1.49-4.17l0-0.05l0.01-0.04l17.13-103.88c5.95-34.57,7.19-69.72,7.33-104.77
			l0.03-26.32l0-13.16l0.02-6.57c0-2.19,0.06-4.38-0.08-6.57c-0.71-17.5-1.79-35.03-3.12-52.51c-1.32-17.49-2.88-34.97-4.52-52.44
			l-2.51-26.2c-0.24-2.18-0.37-4.37-0.69-6.54l-0.92-6.51l-1.84-13.03l0-0.02l0-0.02c-0.05-1.05-0.39-2.06-1-2.9
			c-0.61-0.85-1.46-1.53-2.38-2.12c-1.85-1.17-3.96-1.95-5.98-2.97l-11.92-6.23l0.1,0.04c-5.43-1.16-11.12-1.22-16.5,0.2l0.04-0.01
			c-11.94,4.85-23.99,9.43-36.22,13.51c-6.11,2.04-12.27,3.94-18.47,5.71l-4.66,1.29l-4.7,1.12c-1.57,0.39-3.14,0.71-4.72,1.06
			c-1.58,0.34-3.15,0.7-4.73,0.99c-25.27,5.09-51.19,7-76.91,5.32c-6.44-0.36-12.83-1.32-19.15-2.55
			c-6.33-1.22-12.6-2.71-18.83-4.34c-6.23-1.64-12.42-3.42-18.58-5.31c-3.08-0.94-6.15-1.91-9.21-2.9c-3.07-0.99-6.13-1.99-9.15-3.1
			c-12.13-4.35-23.95-9.53-35.5-15.21c-2.95-1.27-6.2-1.9-9.41-1.61c-1.6,0.14-3.18,0.5-4.7,1.02c-1.52,0.54-2.98,1.23-4.46,1.84
			L90.44,46.62z M90.44,46.62l17.76-7.6c1.49-0.62,2.94-1.31,4.46-1.85c1.52-0.53,3.1-0.9,4.71-1.03c3.22-0.29,6.48,0.33,9.44,1.6
			c11.56,5.67,23.39,10.82,35.52,15.16c3.03,1.1,6.09,2.1,9.15,3.08c3.07,0.98,6.14,1.96,9.22,2.89c6.16,1.88,12.35,3.65,18.58,5.28
			c6.23,1.62,12.5,3.1,18.82,4.31c6.32,1.21,12.7,2.16,19.13,2.51c25.7,1.63,51.61-0.27,76.82-5.48c1.58-0.3,3.15-0.67,4.72-1.01
			c1.57-0.35,3.14-0.68,4.71-1.07l4.69-1.14l4.64-1.31c6.18-1.78,12.33-3.71,18.43-5.77c12.2-4.12,24.22-8.74,36.13-13.63l0.02-0.01
			l0.02-0.01c5.49-1.47,11.31-1.43,16.83-0.27l0.05,0.01l0.05,0.02l11.94,6.18c1.97,0.99,4.11,1.76,6.07,2.99
			c0.97,0.61,1.91,1.36,2.62,2.33c0.71,0.97,1.12,2.17,1.18,3.36l0-0.03l1.89,13.03l0.94,6.52c0.34,2.17,0.47,4.36,0.72,6.54
			l2.61,26.2c1.71,17.47,3.34,34.94,4.73,52.44c1.39,17.5,2.55,35.01,3.32,52.57c0.14,2.2,0.1,4.39,0.11,6.59l0,6.59l0.05,13.16
			l0.07,26.33c-0.07,35.08-1.27,70.37-7.19,105.05l-16.97,103.92l0.01-0.09c-0.07,0.93-0.21,1.88-0.51,2.84
			c-0.3,0.94-0.81,1.92-1.63,2.67c-0.83,0.74-1.88,1.16-2.87,1.33c-1,0.17-1.97,0.15-2.91,0.07l1.08-0.85
			c-0.18,1.25-0.43,2.52-0.85,3.76c-0.42,1.24-1.02,2.49-1.98,3.55c-0.94,1.07-2.32,1.79-3.69,2.05c-1.38,0.27-2.75,0.16-4.03-0.07
			l0.22,0.02l-9.52,0.28c-3.17,0.02-6.34-0.06-9.51-0.08l-19.01-0.22l-38.03-0.44l-76.05-0.88l-76.05-0.93
			c-6.34-0.1-12.68-0.13-19.01-0.27l-19.01-0.47l-38.01-0.95l0.04,0c-1.18,0.07-2.48-0.25-3.46-1.01c-0.99-0.75-1.64-1.79-2.1-2.83
			c-0.91-2.11-1.24-4.32-1.52-6.49l0.62,0.52c-1.17,0.05-2.38-0.04-3.54-0.41c-1.16-0.36-2.26-1.03-3.07-1.95
			c-1.65-1.86-2.23-4.26-2.53-6.51l-1.74-13.39l-3.42-26.78c-2.22-17.86-4.31-35.74-6.02-53.67c-1.71-17.92-3.07-35.88-3.96-53.86
			c-0.24-4.49-0.42-8.99-0.58-13.49c-0.19-4.5-0.29-9-0.4-13.49c-0.14-4.5-0.17-9-0.22-13.5c-0.15-4.5,0.12-9,0.3-13.5
			c1.47-35.96,3.13-71.94,6.72-107.76c1.79-17.91,4.13-35.77,7.28-53.49c3.19-17.71,5.29-35.6,7.93-53.4l0,0
			c0.32-1.17,0.97-2.25,1.88-3.04C88.18,47.51,89.3,46.99,90.44,46.62z"/>
	</g>
	<g>
		<path class="st0" d="M85.39,51.36c1.18-1.2,2.52-2.25,4.02-3.06c1.52-0.76,3.15-1.26,4.83-1.55c3.37-0.5,6.8-0.15,10.11,0.54
			c6.64,1.41,12.95,3.96,19.21,6.46c6.26,2.53,12.44,5.21,18.75,7.56c3.15,1.18,6.32,2.3,9.53,3.29c3.25,0.92,6.43,2.05,9.63,3.12
			c3.19,1.11,6.41,2.08,9.63,3.05c1.61,0.48,3.21,1,4.83,1.45l4.87,1.33l4.86,1.34l4.9,1.2l4.9,1.19l4.93,1.05
			c13.16,2.79,26.49,4.73,39.89,5.79c13.4,1.04,26.87,1.29,40.31,0.73c13.44-0.55,26.86-1.87,40.16-3.79
			c13.27-2.08,26.38-5.27,39.19-9.38c12.82-4.1,25.37-9.05,37.72-14.45l-0.05,0.03c4-2.62,8.43-4.67,13.15-5.53
			c4.7-0.88,9.67-0.41,14.01,1.54c-4.4-1.84-9.33-2.13-13.94-1.18c-4.64,0.94-8.96,3.06-12.85,5.72l-0.02,0.01l-0.03,0.01
			c-12.23,5.7-24.76,10.81-37.59,15.08c-12.82,4.26-25.94,7.74-39.33,9.85c-26.73,3.95-53.91,5.57-80.9,3.28
			c-26.97-2.24-53.62-8.07-79.12-16.97c-3.19-1.1-6.35-2.27-9.58-3.23c-3.23-1.04-6.4-2.21-9.55-3.43
			c-6.3-2.46-12.48-5.17-18.67-7.84c-6.19-2.63-12.42-5.29-18.96-6.81c-1.63-0.39-3.29-0.64-4.96-0.82
			c-1.67-0.13-3.35-0.13-5.01,0.07c-1.66,0.24-3.28,0.69-4.81,1.4C87.97,49.18,86.61,50.19,85.39,51.36z"/>
	</g>
	<g>
		<path class="st0" d="M108,46.13l8.34-3.99l4.17-1.99l2.08-1c0.35-0.17,0.7-0.33,1.04-0.51c0.16-0.11,0.4-0.13,0.58-0.03l0.53,0.24
			c5.6,2.57,11.25,5.02,16.94,7.36c11.39,4.69,22.94,8.98,34.6,12.94c11.64,4.02,23.62,7,35.69,9.39c6.04,1.19,12.11,2.21,18.2,3.08
			c6.08,0.86,12.22,1.31,18.36,1.43c12.29,0.26,24.59-0.58,36.8-1.97c12.22-1.39,24.29-3.72,36.32-6.36
			c6.03-1.28,11.97-2.72,17.85-4.48c5.88-1.76,11.69-3.76,17.46-5.88c5.77-2.12,11.51-4.35,17.27-6.55l4.32-1.64l2.15-0.81
			c0.68-0.26,1.38-0.58,2.07-0.89c1.39-0.63,2.81-1.29,4.28-1.87c0.74-0.29,1.5-0.55,2.31-0.75c0.81-0.2,1.66-0.36,2.67-0.22
			l0.16,0.02l0.16,0.09l13.75,7.66l0.09,0.05l0.06,0.05c0.21,0.19,0.43,0.38,0.62,0.7c0.2,0.31,0.35,0.82,0.24,1.29
			c-0.1,0.47-0.35,0.8-0.56,1.01c-0.22,0.23-0.44,0.39-0.65,0.53c-0.87,0.54-1.64,0.77-2.37,1.11l-4.47,1.94l-8.94,3.88
			c-5.93,2.62-12,5.12-18.13,7.33c-12.26,4.43-24.74,8.27-37.52,11.02c-3.2,0.69-6.41,1.25-9.62,1.78
			c-3.21,0.54-6.43,1.05-9.65,1.51c-6.45,0.92-12.92,1.7-19.43,2.19c-6.5,0.54-13.03,0.67-19.53,0.72
			c-6.5,0.07-13.01,0.1-19.52-0.02c-13.01-0.21-26.03-1.12-38.92-2.95l-4.83-0.72c-1.61-0.26-3.2-0.66-4.79-0.98
			c-3.18-0.69-6.35-1.41-9.51-2.17c-6.33-1.51-12.62-3.18-18.86-4.99l-9.36-2.74c-3.11-0.93-6.22-1.91-9.3-2.94
			c-6.17-2.05-12.28-4.28-18.35-6.61c-6.07-2.33-12.1-4.75-18.16-7.12c-3.03-1.18-6.06-2.36-9.1-3.5l-4.57-1.69l-2.29-0.83
			c-0.38-0.14-0.77-0.27-1.13-0.45c-0.09-0.05-0.18-0.1-0.24-0.19c-0.05-0.11,0.06-0.19,0.14-0.24
			C107.63,46.29,107.82,46.21,108,46.13z M108,46.13c-0.18,0.09-0.37,0.17-0.54,0.28c-0.08,0.05-0.18,0.14-0.14,0.24
			c0.05,0.09,0.15,0.14,0.24,0.18c0.37,0.18,0.75,0.3,1.14,0.44l2.29,0.82l4.58,1.67c3.05,1.13,6.08,2.29,9.12,3.46
			c6.06,2.35,12.1,4.75,18.18,7.05c6.08,2.31,12.19,4.51,18.37,6.54c3.09,1.01,6.19,1.98,9.31,2.9l9.37,2.7
			c6.24,1.81,12.55,3.38,18.88,4.84c3.17,0.73,6.34,1.42,9.52,2.08c1.6,0.31,3.17,0.69,4.77,0.93l4.82,0.67
			c12.88,1.7,25.86,2.49,38.85,2.57c6.49,0.05,12.99-0.03,19.49-0.17c6.5-0.12,12.97-0.31,19.43-0.9
			c12.91-1.13,25.76-3.24,38.45-5.79c12.64-2.77,25.06-6.65,37.23-11.09c6.1-2.23,12.05-4.71,18-7.36l8.94-3.92l4.47-1.96
			c0.74-0.34,1.54-0.62,2.04-0.95c0.27-0.15,0.41-0.4,0.34-0.26c-0.02,0.08,0.02,0.17,0.01,0.13c-0.01-0.03-0.1-0.12-0.19-0.2
			l0.15,0.1l-13.72-7.71l0.31,0.11c-0.52-0.08-1.22,0.01-1.9,0.18c-0.69,0.17-1.39,0.4-2.08,0.67c-1.4,0.53-2.78,1.17-4.19,1.81
			c-0.71,0.32-1.42,0.63-2.17,0.92l-2.17,0.81l-4.32,1.62c-5.76,2.17-11.51,4.38-17.31,6.49c-5.8,2.1-11.65,4.09-17.58,5.85
			c-5.92,1.75-11.97,3.2-18.01,4.41c-24.09,5.23-48.78,8.31-73.48,7.66c-6.17-0.18-12.34-0.69-18.45-1.61
			c-6.1-0.93-12.17-2.01-18.2-3.26c-12.07-2.49-24.02-5.65-35.66-9.68c-11.65-4.01-23.19-8.34-34.56-13.08
			c-5.69-2.37-11.33-4.84-16.92-7.43c-0.35-0.12-0.7-0.46-1.05-0.21c-0.34,0.18-0.69,0.34-1.04,0.5l-2.09,0.99l-4.17,1.98L108,46.13
			z"/>
	</g>
</g>
</svg>
