<?xml version="1.0" encoding="utf-8"?>
<!-- Generator: Adobe Illustrator 24.3.0, SVG Export Plug-In . SVG Version: 6.00 Build 0)  -->
<svg version="1.1" id="Layer_1" xmlns="http://www.w3.org/2000/svg" xmlns:xlink="http://www.w3.org/1999/xlink" x="0px" y="0px"
	 viewBox="0 0 520 520" style="enable-background:new 0 0 520 520;" xml:space="preserve">
<style type="text/css">
	.st0{fill:#F3F1F0;}
</style>
<g>
	<g>
		<g>
			<path class="st0" d="M402.09,388.25c2.43-0.4,4.79-1.2,6.96-2.36c2.16-1.18,4.11-2.72,5.86-4.46c1.74-1.75,3.26-3.7,4.63-5.74
				l4.01-6.2c5.32-8.29,10.44-16.7,15.28-25.28c9.67-17.15,18.4-34.88,25.04-53.43c3.37-9.25,6.36-18.64,8.91-28.15
				c1.28-4.75,2.47-9.53,3.53-14.34c0.27-1.2,0.53-2.4,0.78-3.61c0.23-1.21,0.55-2.4,0.71-3.62l0.55-3.65l0.48-3.66
				c1.15-9.76,1.49-19.67-0.05-29.39c-1.55-9.7-5.17-19.03-10.68-27.15l0.03,0.04c-2.32-2.4-4.74-4.7-7.33-6.8
				c-2.61-2.08-5.3-4.06-8.14-5.81c-5.66-3.53-11.73-6.4-17.99-8.73c-3.13-1.17-6.3-2.24-9.51-3.18c-1.6-0.49-3.21-0.92-4.81-1.37
				l-4.9-1.01c-6.57-1.3-13.17-2.42-19.8-3.38c-13.26-1.92-26.59-3.27-39.94-4.42c-13.35-1.12-26.73-2.01-40.11-2.65
				c-26.77-1.29-53.58-1.75-80.38-1.7c-26.77,0.1-53.55,2.12-79.97,6.4c-6.61,1.05-13.18,2.3-19.74,3.64
				c-3.27,0.71-6.56,1.38-9.84,2.05c-3.27,0.68-6.52,1.46-9.75,2.27c-12.93,3.3-25.67,7.58-37.92,12.79
				c-6.01,2.78-11.81,6.13-16.93,10.3c-2.58,2.06-4.97,4.35-7.12,6.85c-2.14,2.5-4.09,5.17-5.69,8.04c-1.6,2.88-2.89,5.91-3.91,9.04
				c-0.99,3.15-1.72,6.4-2.29,9.66c-0.57,3.26-0.91,6.57-1.08,9.89c-0.18,3.32-0.18,6.64-0.01,9.96c0.3,6.65,1.25,13.26,2.57,19.79
				c0.65,3.26,1.52,6.48,2.4,9.71c0.88,3.22,1.82,6.43,2.81,9.63c3.94,12.78,8.71,25.3,14.03,37.59c2.65,6.15,5.47,12.22,8.39,18.25
				c2.92,6.03,5.94,12.01,9.12,17.89c6.49,11.7,13.76,22.98,21.96,33.55l0.03,0.03l0.02,0.04c1.49,2.7,3.72,4.97,6.39,6.54
				c2.67,1.59,5.66,2.61,8.75,3.21c6.2,1.29,12.46,2.37,18.73,3.3c12.55,1.85,25.19,3.12,37.85,4.09
				c12.66,0.97,25.35,1.59,38.04,2.08c12.69,0.48,25.39,0.8,38.09,0.93c25.4,0.26,50.81-0.12,76.2-0.96l9.52-0.33
				c1.59-0.02,3.18,0.02,4.76,0.02l4.76-0.02c6.35-0.06,12.7-0.31,19.03-0.76C377.08,392.79,389.7,391.06,402.09,388.25z
				 M402.09,388.25c-12.38,2.84-25.01,4.59-37.67,5.5c-6.34,0.46-12.69,0.72-19.04,0.8l-4.76,0.03c-1.59,0-3.18-0.03-4.76-0.01
				l-9.52,0.35c-25.39,0.89-50.8,1.31-76.21,1.11c-25.41-0.22-50.82-0.91-76.18-2.65c-12.68-0.9-25.34-2.11-37.93-3.9
				c-6.3-0.9-12.57-1.95-18.81-3.22c-3.14-0.59-6.26-1.63-9.06-3.28c-2.81-1.64-5.21-4.03-6.8-6.9l0.05,0.07
				c-8.29-10.58-15.64-21.88-22.23-33.59c-3.23-5.9-6.28-11.88-9.24-17.9c-2.95-6.03-5.82-12.1-8.5-18.26
				c-5.4-12.3-10.26-24.85-14.28-37.68c-1.01-3.21-1.97-6.43-2.86-9.67c-0.89-3.24-1.78-6.49-2.44-9.81
				c-1.35-6.61-2.33-13.3-2.64-20.06c-0.18-3.37-0.19-6.76-0.01-10.14c0.16-3.38,0.5-6.76,1.08-10.1c0.57-3.34,1.32-6.65,2.33-9.9
				c1.05-3.25,2.39-6.41,4.04-9.4c1.66-2.99,3.67-5.77,5.89-8.36c2.22-2.59,4.69-4.96,7.34-7.09c5.28-4.31,11.18-7.73,17.32-10.59
				c12.41-5.31,25.17-9.62,38.21-12.98c3.26-0.83,6.54-1.6,9.84-2.29c3.29-0.67,6.58-1.33,9.86-2.03
				c6.58-1.33,13.19-2.57,19.83-3.61c26.54-4.25,53.42-6.22,80.27-6.27c26.83-0.02,53.67,0.52,80.47,1.98
				c13.4,0.71,26.78,1.66,40.15,2.85c13.36,1.22,26.71,2.64,39.99,4.63c6.64,0.99,13.25,2.15,19.83,3.49
				c1.65,0.33,3.29,0.7,4.94,1.05c1.62,0.46,3.25,0.9,4.85,1.41c3.22,0.96,6.41,2.05,9.55,3.25c6.29,2.39,12.4,5.3,18.09,8.9
				c2.87,1.77,5.57,3.79,8.19,5.9c2.61,2.13,5.04,4.47,7.37,6.9l0.02,0.02l0.02,0.02c5.52,8.23,9.14,17.68,10.65,27.45
				c1.5,9.79,1.11,19.75-0.09,29.52l-0.5,3.66l-0.57,3.65c-0.17,1.22-0.49,2.42-0.73,3.62c-0.25,1.21-0.52,2.41-0.8,3.61
				c-1.08,4.81-2.27,9.59-3.57,14.34c-2.57,9.51-5.59,18.9-8.97,28.15c-6.68,18.55-15.45,36.28-25.15,53.41
				c-4.85,8.57-9.99,16.98-15.33,25.26l-4.03,6.19c-1.38,2.04-2.9,3.99-4.65,5.73c-1.75,1.73-3.7,3.27-5.87,4.45
				C406.88,387.06,404.52,387.86,402.09,388.25z"/>
		</g>
		<g>
			<path class="st0" d="M261.96,391.8c-23.95-0.09-47.9-0.6-71.82-1.75c-11.96-0.58-23.92-1.26-35.85-2.32
				c-5.97-0.53-11.93-1.15-17.87-1.99c-2.97-0.43-5.93-0.9-8.88-1.54c-1.47-0.32-2.94-0.68-4.39-1.14
				c-0.72-0.24-1.45-0.49-2.15-0.83c-0.35-0.17-0.7-0.36-1.04-0.6c-0.33-0.26-0.69-0.52-0.91-1.03c-0.1-0.25-0.15-0.56-0.09-0.84
				c0.06-0.27,0.19-0.53,0.34-0.7c0.3-0.39,0.65-0.61,1-0.83c0.7-0.42,1.42-0.7,2.14-0.96c1.45-0.52,2.91-0.89,4.38-1.22
				c2.94-0.66,5.91-1.15,8.88-1.58c5.94-0.86,11.91-1.48,17.88-2.01c11.94-1.05,23.91-1.76,35.88-2.28
				c23.94-0.98,47.91-1.32,71.87-1.24c23.96,0.18,47.92,0.8,71.85,2.04c11.97,0.64,23.92,1.49,35.85,2.66
				c5.96,0.6,11.92,1.28,17.86,2.18c2.97,0.46,5.93,0.97,8.87,1.63c1.47,0.34,2.94,0.71,4.38,1.19c0.72,0.25,1.44,0.51,2.15,0.86
				c0.35,0.18,0.7,0.37,1.04,0.61c0.33,0.26,0.69,0.53,0.91,1.04c0.1,0.25,0.15,0.56,0.08,0.84c-0.06,0.27-0.2,0.52-0.35,0.7
				c-0.3,0.38-0.65,0.6-1,0.82c-0.7,0.41-1.42,0.69-2.14,0.94c-1.45,0.5-2.92,0.86-4.39,1.18c-2.95,0.63-5.92,1.09-8.89,1.49
				c-5.95,0.8-11.91,1.35-17.89,1.83c-11.94,0.94-23.91,1.49-35.88,1.94C309.86,391.74,285.91,391.97,261.96,391.8z M261.96,391.8
				c23.95,0.08,47.9-0.26,71.82-1.24c11.96-0.51,23.92-1.23,35.84-2.27c5.96-0.54,11.91-1.15,17.83-2.01
				c2.95-0.43,5.9-0.92,8.81-1.57c1.45-0.33,2.89-0.7,4.27-1.19c0.69-0.25,1.37-0.52,1.96-0.88c0.6-0.35,1.04-0.85,0.85-1.13
				c-0.18-0.41-0.86-0.82-1.47-1.12c-0.64-0.31-1.33-0.55-2.03-0.78c-1.4-0.45-2.84-0.8-4.29-1.11c-2.91-0.63-5.85-1.1-8.81-1.53
				c-5.91-0.84-11.86-1.45-17.81-1.99c-11.91-1.06-23.86-1.73-35.81-2.32c-23.9-1.15-47.84-1.65-71.77-1.76
				c-23.93-0.17-47.87,0.06-71.79,0.95c-11.96,0.45-23.91,1-35.83,1.93c-5.96,0.47-11.91,1.03-17.83,1.82
				c-2.96,0.4-5.91,0.85-8.81,1.48c-1.45,0.31-2.89,0.67-4.27,1.14c-0.69,0.24-1.37,0.5-1.96,0.85c-0.6,0.34-1.04,0.83-0.86,1.12
				c0.18,0.42,0.85,0.84,1.46,1.14c0.64,0.32,1.33,0.57,2.02,0.81c1.4,0.46,2.84,0.83,4.29,1.16c2.9,0.66,5.85,1.16,8.8,1.62
				c5.91,0.9,11.85,1.58,17.81,2.17c11.91,1.17,23.86,2.02,35.81,2.66C214.07,391,238.01,391.61,261.96,391.8z"/>
		</g>
		<g>
			<path class="st0" d="M121.74,150.13c1.95-2.22,4.51-3.78,7.11-5.12c2.62-1.33,5.35-2.46,8.12-3.43
				c5.54-1.98,11.25-3.47,16.97-4.8c11.47-2.62,23.11-4.45,34.78-5.93c23.36-2.82,46.88-4.13,70.4-4.48
				c11.76-0.16,23.53-0.06,35.29,0.39c11.76,0.43,23.51,1.17,35.23,2.27c11.72,1.14,23.41,2.64,34.99,4.9
				c5.79,1.14,11.55,2.46,17.21,4.23c2.83,0.88,5.64,1.86,8.37,3.08c2.72,1.23,5.43,2.63,7.79,4.7l2.56,2.24l-3.38-0.52
				c-11.38-1.74-22.84-3.03-34.31-4.14c-11.48-1.12-22.97-2-34.48-2.73c-23.02-1.47-46.08-2.18-69.14-2.58l-17.3-0.19
				c-5.77-0.05-11.53-0.05-17.29,0.05c-11.52,0.22-23.04,0.78-34.53,1.73c-11.49,0.95-22.96,2.25-34.36,3.99
				c-5.7,0.89-11.39,1.83-17.05,2.93c-2.84,0.51-5.66,1.13-8.49,1.69L121.74,150.13z M121.74,150.13l8.46-1.83
				c2.82-0.6,5.63-1.26,8.46-1.81c5.65-1.18,11.33-2.2,17.02-3.17c11.39-1.9,22.85-3.37,34.35-4.47c11.5-1.07,23.04-1.7,34.59-2.02
				c5.77-0.14,11.55-0.19,17.33-0.19l17.32,0.06c23.09,0.16,46.18,0.91,69.24,2.3c11.53,0.71,23.05,1.56,34.55,2.64
				c11.5,1.08,22.99,2.35,34.43,4.06l-0.82,1.73c-2.08-1.81-4.64-3.18-7.25-4.36c-2.63-1.19-5.37-2.15-8.15-3.02
				c-5.56-1.75-11.26-3.08-17-4.22c-11.48-2.27-23.13-3.79-34.8-4.96c-23.35-2.29-46.85-3.02-70.33-2.94
				c-23.48,0.16-46.97,1.29-70.3,3.91c-11.66,1.31-23.3,2.97-34.78,5.43c-5.73,1.25-11.44,2.66-17,4.55
				c-2.78,0.92-5.51,2.02-8.15,3.31C126.3,146.42,123.72,147.94,121.74,150.13z"/>
		</g>
	</g>
</g>
</svg>
