<?xml version="1.0" encoding="utf-8"?>
<!-- Generator: Adobe Illustrator 24.3.0, SVG Export Plug-In . SVG Version: 6.00 Build 0)  -->
<svg version="1.1" id="Layer_1" xmlns="http://www.w3.org/2000/svg" xmlns:xlink="http://www.w3.org/1999/xlink" x="0px" y="0px"
	 viewBox="0 0 520 520" style="enable-background:new 0 0 520 520;" xml:space="preserve">
<style type="text/css">
	.st0{fill:#F3F1F0;}
</style>
<g>
	<g>
		<path class="st0" d="M345.14,51.6l0.05,12.3l0-0.01c0.77,2.52,1.2,5.11,1.63,7.7c0.42,2.59,0.77,5.19,1.1,7.8
			c0.66,5.21,1.22,10.43,1.74,15.65c0.55,5.22,0.92,10.45,1.33,15.69l1.21,15.7l1.21,15.7l1.09,15.7l2.13,31.41l8.35,125.65
			l4.13,62.83l2.04,31.41l0.51,7.85c0.18,2.61,0.27,5.31,0.15,7.96c-0.21,5.33-1.32,10.62-3.12,15.64
			c-1.79,5.03-4.39,9.75-7.53,14.05c-3.13,4.32-6.81,8.2-10.87,11.63c-4.05,3.44-8.44,6.46-13.06,9.07
			c-4.63,2.59-9.47,4.79-14.44,6.61c-4.97,1.82-10.08,3.26-15.26,4.34c-5.19,1.1-10.44,1.7-15.66,2.27
			c-10.47,1.13-21,1.68-31.52,1.71c-10.53,0-21.06-0.54-31.53-1.64c-5.22-0.56-10.47-1.14-15.67-2.19
			c-5.19-1.04-10.31-2.46-15.29-4.25c-9.95-3.59-19.44-8.68-27.56-15.56c-8.13-6.81-14.83-15.53-18.61-25.54
			c-1.87-4.99-3.04-10.26-3.42-15.58c-0.04-1.33-0.15-2.66-0.13-3.99c0.03-1.33,0.03-2.68,0.11-3.98l0.38-7.86l1.52-31.44
			l3.08-62.89l6.26-125.77l1.6-31.44c0.54-10.48,1.13-20.96,1.94-31.43c0.77-10.47,1.93-20.91,3.14-31.33l1.86-15.63
			c0.67-5.2,1.24-10.42,2.15-15.6l0,0.01l0.05-12.54l0.05,12.54l0,0l0,0.01c-0.86,5.17-1.4,10.4-2.03,15.6L166.5,95.4
			c-1.14,10.43-2.21,20.87-2.9,31.34c-1.43,20.93-2.07,41.91-3.08,62.88l-5.73,125.8l-2.91,62.9l-1.48,31.45l-0.37,7.86
			c-0.08,1.32-0.07,2.59-0.1,3.89c-0.02,1.29,0.09,2.58,0.13,3.87c0.38,5.15,1.51,10.23,3.33,15.06
			c3.66,9.67,10.17,18.13,18.11,24.76c7.93,6.7,17.23,11.67,27,15.19c4.89,1.75,9.92,3.14,15.02,4.16
			c5.09,1.02,10.29,1.59,15.5,2.14c10.41,1.08,20.87,1.59,31.32,1.59c10.46-0.02,20.92-0.55,31.32-1.66
			c5.21-0.56,10.4-1.14,15.48-2.22c5.09-1.05,10.11-2.46,15-4.24c4.88-1.78,9.63-3.92,14.17-6.46c4.52-2.55,8.82-5.5,12.77-8.84
			c3.96-3.34,7.55-7.11,10.59-11.3c3.05-4.17,5.57-8.73,7.31-13.59c1.74-4.85,2.83-9.95,3.04-15.11c0.12-2.59,0.04-5.14-0.14-7.76
			l-0.5-7.85l-2-31.42l-3.95-62.84l-7.82-125.68l-1.91-31.42l-0.97-15.71l-1.09-15.7l-1.09-15.7c-0.37-5.23-0.7-10.47-1.21-15.69
			c-0.49-5.22-1-10.44-1.62-15.65c-0.31-2.6-0.64-5.21-1.04-7.8c-0.41-2.59-0.82-5.19-1.57-7.7l0-0.01l0-0.01L345.14,51.6z"/>
	</g>
	<g>
		<path class="st0" d="M257.67,59.39c14.77-0.05,29.54-0.41,44.29-1.23c7.37-0.42,14.73-1.02,22.07-1.83
			c3.66-0.42,7.32-0.9,10.95-1.54c1.81-0.32,3.61-0.69,5.37-1.16c0.88-0.24,1.75-0.51,2.57-0.85c0.41-0.17,0.81-0.36,1.14-0.59
			c0.35-0.22,0.59-0.53,0.57-0.66c0.01-0.13-0.24-0.43-0.59-0.64c-0.34-0.22-0.74-0.41-1.15-0.57c-0.82-0.33-1.7-0.58-2.58-0.8
			c-1.76-0.44-3.57-0.78-5.38-1.07c-3.63-0.58-7.29-1-10.95-1.35c-7.33-0.71-14.7-1.13-22.07-1.49
			c-14.73-0.73-29.49-0.99-44.25-0.94c-14.76-0.04-29.52,0.22-44.25,0.95c-7.37,0.37-14.73,0.79-22.07,1.5
			c-3.67,0.36-7.33,0.77-10.95,1.35c-1.81,0.29-3.62,0.63-5.38,1.07c-0.88,0.22-1.75,0.48-2.57,0.8c-0.41,0.16-0.81,0.35-1.15,0.57
			c-0.35,0.21-0.6,0.51-0.59,0.63c-0.02,0.13,0.22,0.44,0.57,0.65c0.34,0.23,0.73,0.42,1.14,0.59c0.82,0.34,1.69,0.61,2.57,0.85
			c1.76,0.48,3.56,0.84,5.37,1.16c3.62,0.64,7.28,1.12,10.95,1.54c7.33,0.82,14.7,1.41,22.07,1.84
			C228.13,58.98,242.9,59.34,257.67,59.39z M257.67,59.39c-14.77,0.04-29.55-0.22-44.3-0.94c-7.38-0.37-14.76-0.79-22.12-1.5
			c-3.68-0.36-7.36-0.77-11.02-1.36c-1.83-0.3-3.66-0.63-5.47-1.09c-0.91-0.23-1.81-0.49-2.7-0.85c-0.45-0.18-0.89-0.38-1.32-0.66
			c-0.22-0.14-0.43-0.31-0.63-0.52c-0.19-0.23-0.39-0.54-0.4-0.95c0.01-0.41,0.2-0.72,0.39-0.95c0.2-0.22,0.41-0.39,0.63-0.54
			c0.43-0.29,0.87-0.5,1.32-0.68c0.89-0.37,1.79-0.65,2.69-0.89c1.81-0.49,3.63-0.86,5.46-1.18c3.66-0.65,7.33-1.13,11.01-1.55
			c7.36-0.82,14.73-1.42,22.12-1.84c14.77-0.82,29.56-1.19,44.34-1.23c14.79,0.05,29.57,0.41,44.34,1.24
			c7.38,0.43,14.76,1.02,22.12,1.84c3.68,0.42,7.35,0.9,11.01,1.55c1.83,0.33,3.65,0.7,5.46,1.18c0.9,0.25,1.8,0.52,2.69,0.89
			c0.44,0.18,0.89,0.39,1.32,0.68c0.22,0.14,0.43,0.32,0.63,0.54c0.19,0.23,0.38,0.54,0.39,0.95c-0.01,0.41-0.21,0.71-0.4,0.94
			c-0.2,0.22-0.42,0.39-0.63,0.52c-0.43,0.28-0.88,0.48-1.32,0.66c-0.89,0.36-1.79,0.61-2.7,0.85c-1.81,0.46-3.64,0.79-5.47,1.09
			c-3.66,0.59-7.34,1-11.02,1.36c-7.36,0.71-14.74,1.13-22.12,1.5C287.22,59.18,272.45,59.44,257.67,59.39z"/>
	</g>
	<g>
		<path class="st0" d="M257.67,55.71c12.36-0.05,24.71-0.26,37.06-0.72c6.17-0.23,12.34-0.59,18.5-1.04
			c3.08-0.23,6.15-0.5,9.21-0.85c1.53-0.18,3.06-0.37,4.57-0.63c0.75-0.13,1.51-0.27,2.24-0.45c0.36-0.09,0.73-0.19,1.06-0.31
			c0.17-0.06,0.32-0.13,0.45-0.2c0.14-0.05,0.16-0.21,0.11,0.01c0.04,0.22,0.02,0.07-0.12,0.02c-0.13-0.07-0.29-0.13-0.45-0.19
			c-0.33-0.12-0.7-0.21-1.06-0.29c-0.73-0.16-1.48-0.29-2.24-0.4c-1.51-0.22-3.04-0.39-4.57-0.53c-3.06-0.29-6.14-0.49-9.22-0.66
			c-6.16-0.34-12.33-0.53-18.5-0.7c-12.34-0.36-24.69-0.47-37.04-0.43c-12.35-0.04-24.7,0.07-37.04,0.43
			c-6.17,0.18-12.34,0.36-18.5,0.7c-3.08,0.17-6.16,0.37-9.22,0.66c-1.53,0.15-3.06,0.31-4.57,0.53c-0.76,0.11-1.51,0.24-2.24,0.4
			c-0.36,0.08-0.73,0.17-1.06,0.29c-0.17,0.06-0.32,0.12-0.45,0.19c-0.14,0.05-0.16,0.2-0.12-0.02c-0.05-0.22-0.03-0.07,0.11-0.01
			c0.13,0.07,0.28,0.14,0.45,0.2c0.33,0.13,0.69,0.22,1.06,0.31c0.73,0.18,1.48,0.32,2.24,0.45c1.51,0.25,3.04,0.45,4.57,0.63
			c3.06,0.35,6.14,0.61,9.21,0.85c6.16,0.45,12.33,0.8,18.5,1.04C232.96,55.45,245.32,55.66,257.67,55.71z M257.67,55.71
			c-12.36,0.05-24.72-0.07-37.07-0.42c-6.18-0.18-12.36-0.36-18.53-0.7c-3.09-0.17-6.17-0.38-9.26-0.66
			c-1.54-0.15-3.08-0.31-4.63-0.54c-0.77-0.12-1.54-0.24-2.31-0.42c-0.39-0.09-0.77-0.18-1.17-0.32c-0.2-0.07-0.4-0.15-0.61-0.26
			c-0.11-0.07-0.22-0.13-0.34-0.24c-0.11-0.1-0.27-0.3-0.29-0.6c0.01-0.3,0.17-0.51,0.28-0.61c0.12-0.12,0.23-0.18,0.34-0.25
			c0.21-0.12,0.41-0.2,0.61-0.28c0.39-0.15,0.78-0.25,1.17-0.35c0.77-0.19,1.54-0.33,2.31-0.47c1.54-0.26,3.08-0.46,4.62-0.63
			c3.08-0.35,6.17-0.62,9.25-0.85c6.17-0.45,12.35-0.81,18.53-1.04c12.36-0.45,24.73-0.67,37.09-0.71
			c12.37,0.05,24.73,0.26,37.09,0.72c6.18,0.24,12.36,0.59,18.53,1.04c3.09,0.23,6.17,0.5,9.25,0.85c1.54,0.18,3.08,0.38,4.62,0.63
			c0.77,0.13,1.54,0.28,2.31,0.47c0.39,0.1,0.77,0.2,1.17,0.35c0.2,0.07,0.4,0.16,0.61,0.28c0.11,0.07,0.21,0.13,0.33,0.25
			c0.11,0.1,0.27,0.3,0.28,0.6c-0.02,0.3-0.17,0.5-0.28,0.6c-0.12,0.12-0.23,0.18-0.34,0.24c-0.21,0.11-0.41,0.19-0.61,0.26
			c-0.39,0.14-0.78,0.23-1.17,0.32c-0.77,0.17-1.54,0.3-2.31,0.42c-1.54,0.23-3.08,0.39-4.62,0.54c-3.08,0.29-6.17,0.49-9.26,0.66
			c-6.17,0.35-12.35,0.52-18.53,0.71C282.39,55.64,270.03,55.76,257.67,55.71z"/>
	</g>
	<g>
		<path class="st0" d="M343.1,470.57c0.36,1.91-0.18,3.92-1.23,5.55c-1.04,1.65-2.49,3-4.02,4.18c-3.11,2.34-6.64,4.04-10.23,5.5
			c-7.21,2.89-14.76,4.78-22.36,6.28c-15.24,2.87-30.76,4.02-46.25,4.13c-7.75,0.04-15.5-0.23-23.23-0.87
			c-7.73-0.62-15.44-1.58-23.08-2.99c-7.63-1.45-15.22-3.29-22.5-6.2c-3.63-1.46-7.19-3.21-10.38-5.68
			c-1.58-1.24-3.06-2.72-4.11-4.58c-1.02-1.85-1.42-4.26-0.75-6.36l0.42-1.31l1.1,0.79c5.84,4.16,12.24,7.55,18.91,10.22
			c6.68,2.68,13.65,4.62,20.74,5.86c3.54,0.63,7.14,1.05,10.73,1.46c3.6,0.4,7.2,0.75,10.81,1.02c7.22,0.54,14.46,0.88,21.7,0.94
			c14.48,0.12,28.99-0.81,43.33-2.8C316.99,483.5,330.94,478.54,343.1,470.57z M343.1,470.57c-5.94,4.17-12.44,7.56-19.22,10.21
			c-6.78,2.65-13.83,4.61-21.02,5.85c-14.39,2.22-28.93,3.3-43.49,3.37c-7.28,0.02-14.56-0.2-21.82-0.74
			c-3.63-0.25-7.26-0.59-10.88-0.98c-3.61-0.4-7.24-0.81-10.85-1.44c-7.21-1.23-14.31-3.18-21.13-5.88
			c-6.81-2.69-13.36-6.12-19.36-10.36l1.52-0.53c-0.25,0.81-0.31,1.64-0.18,2.46c0,0.42,0.2,0.81,0.28,1.22
			c0.14,0.4,0.34,0.78,0.51,1.17c0.84,1.52,2.13,2.86,3.58,3.99c2.92,2.28,6.35,4.01,9.88,5.44c7.08,2.85,14.58,4.71,22.12,6.18
			c15.12,2.86,30.56,3.94,45.97,4.1c15.41,0.08,30.87-0.88,46.06-3.55c7.58-1.34,15.14-3.07,22.34-5.8
			c3.59-1.38,7.12-2.99,10.24-5.24c1.54-1.13,3-2.42,4.08-4.02C342.82,474.45,343.41,472.49,343.1,470.57z"/>
	</g>
</g>
</svg>
