<svg xmlns="http://www.w3.org/2000/svg" xmlns:xlink="http://www.w3.org/1999/xlink" style="position:absolute; width:83.3333em; height:83.3333em;" version="1.1" id="body_1" preserveAspectRatio="xMinYMin meet" viewBox="0 0 1333 1333">
    <defs>
        <clipPath id="1">
            <path id="" clip-rule="evenodd" transform="matrix(1 0 0 1 0 0)" d="M0 1000L0 0L0 0L1000 0L1000 0L1000 1000L1000 1000L0 1000z"/>
        </clipPath>
        <clipPath id="2">
            <path id="" clip-rule="evenodd" transform="matrix(1 0 0 1 0 0)" d="M0 0L1000 0L1000 0L1000 1000L1000 1000L0 1000z"/>
        </clipPath>
    </defs>
    <g transform="matrix(1.3333334 0 0 1.3333334 0 0)">
        <g clip-path="url(#1)">
            <path id="1" transform="matrix(1 0 0 -1 0 1000)" d="M0 0L998.5 0L998.5 1000L0 1000z" stroke="none" fill="none" fill-rule="nonzero"/>
            <g clip-path="url(#2)">
                <path id="2" transform="matrix(1 0 0 -1 0 1000)" d="M499.0433 831.7231C 495.5183 830.7831 492.9823 830.3131 492.0033 826.2131C 489.1853 789.9471 490.4713 754.0921 492.6933 718.3301C 499.12732 637.7901 505.5613 557.2511 511.9953 476.7121C 520.26733 405.24908 528.5393 333.78607 536.8123 262.32306C 538.9153 238.38611 540.5813 217.71307 563.3523 205.79608C 593.2543 192.67706 629.1033 186.21906 671.5803 187.18408C 699.7913 188.1181 750.2923 194.71509 770.8073 216.22308C 775.2403 220.86908 778.1903 229.04608 780.0593 240.2641C 788.5613 299.0891 797.15735 357.9131 805.6593 416.7381C 812.4383 476.7121 819.2163 536.68506 825.9953 596.65906C 834.59827 671.2131 839.3933 748.3041 838.94226 828.8941C 839.41626 831.7541 837.0573 833.86206 828.2853 834.2701C 803.3843 836.4181 777.8003 837.3711 751.89233 837.7591C 720.5503 837.7281 689.2073 837.6961 657.8643 837.6651C 621.5223 836.9101 585.1813 836.15607 548.8393 835.40106C 532.14233 835.1611 515.4883 834.4841 499.0433 831.7231" stroke="none" fill="none" fill-rule="evenodd"/>
                <path id="3" transform="matrix(1 0 0 -1 0 1000)" d="M499.0433 831.7231C 495.5183 830.7831 492.9823 830.3131 492.0033 826.2131C 489.1853 789.9471 490.4713 754.0921 492.6933 718.3301C 499.12732 637.7901 505.5613 557.2511 511.9953 476.7121C 520.26733 405.24908 528.5393 333.78607 536.8123 262.32306C 538.9153 238.38611 540.5813 217.71307 563.3523 205.79608C 593.2543 192.67706 629.1033 186.21906 671.5803 187.18408C 699.7913 188.1181 750.2923 194.71509 770.8073 216.22308C 775.2403 220.86908 778.1903 229.04608 780.0593 240.2641C 788.5613 299.0891 797.15735 357.9131 805.6593 416.7381C 812.4383 476.7121 819.2163 536.68506 825.9953 596.65906C 834.59827 671.2131 839.3933 748.3041 838.94226 828.8941C 839.41626 831.7541 837.0573 833.86206 828.2853 834.2701C 803.3843 836.4181 777.8003 837.3711 751.89233 837.7591C 720.5503 837.7281 689.2073 837.6961 657.8643 837.6651C 621.5223 836.9101 585.1813 836.15607 548.8393 835.40106C 532.14233 835.1611 515.4883 834.4841 499.0433 831.7231z" stroke="#ffffff" stroke-width="7" stroke-linejoin="miter" fill="none"/>
                <path id="4" transform="matrix(1 0 0 -1 0 1000)" d="M664.8459 835.5633C 748.0349 835.9163 815.4729 833.6003 815.4729 830.38727C 815.4729 827.1753 748.0349 824.2873 664.8459 823.9353C 581.65686 823.5823 514.2189 825.8983 514.2189 829.1103C 514.2189 832.3233 581.65686 835.21027 664.8459 835.5633" stroke="none" fill="none" fill-rule="evenodd"/>
                <path id="5" transform="matrix(1 0 0 -1 0 1000)" d="M664.8459 835.5633C 748.0349 835.9163 815.4729 833.6003 815.4729 830.38727C 815.4729 827.1753 748.0349 824.2873 664.8459 823.9353C 581.65686 823.5823 514.2189 825.8983 514.2189 829.1103C 514.2189 832.3233 581.65686 835.21027 664.8459 835.5633z" stroke="#ffffff" stroke-width="7" stroke-linejoin="miter" fill="none"/>
                <path id="6" transform="matrix(1 0 0 -1 0 1000)" d="M253.8288 690.0665C 246.46579 689.90656 242.1358 688.9365 239.4858 687.51953C 235.6718 681.6015 238.3048 639.53754 238.46179 630.1475C 239.40979 611.2135 240.3588 592.27954 241.3068 573.34454C 242.3698 553.8035 243.4318 534.2625 244.4948 514.7205C 245.3288 498.25354 246.1638 481.78552 246.9988 465.31754C 248.17479 447.52155 249.35179 429.72552 250.5278 411.92953C 251.9698 394.93054 253.41179 377.93152 254.85379 360.93253C 256.4848 339.49353 258.1168 318.05554 259.7478 296.61652C 261.3298 277.94354 262.91278 259.27054 264.4948 240.59753C 265.2818 231.30353 265.2558 207.67853 271.81378 202.34052C 285.4798 188.51654 297.4938 175.56354 311.1598 161.7395C 314.1308 158.3645 320.9148 158.38055 327.3448 159.19153C 384.13177 161.94055 440.4918 164.79254 497.2788 167.5415C 503.7968 167.3565 507.8448 168.86053 508.7658 173.8305C 515.91284 229.36053 523.3108 284.86053 530.4588 340.39154C 538.0768 410.60852 545.6958 480.82654 553.3148 551.04456C 556.5348 584.9755 559.1658 619.14154 562.38684 653.0725C 562.8978 655.8245 563.4848 659.4315 562.7398 664.85455C 539.3338 671.7655 515.9278 678.67755 492.5218 685.58954C 482.8118 688.37054 472.5438 690.27155 460.9478 690.0665z" stroke="none" fill="none" fill-rule="evenodd"/>
                <path id="7" transform="matrix(1 0 0 -1 0 1000)" d="M253.8288 690.0665C 246.46579 689.90656 242.1358 688.9365 239.4858 687.51953C 235.6718 681.6015 238.3048 639.53754 238.46179 630.1475C 239.40979 611.2135 240.3588 592.27954 241.3068 573.34454C 242.3698 553.8035 243.4318 534.2625 244.4948 514.7205C 245.3288 498.25354 246.1638 481.78552 246.9988 465.31754C 248.17479 447.52155 249.35179 429.72552 250.5278 411.92953C 251.9698 394.93054 253.41179 377.93152 254.85379 360.93253C 256.4848 339.49353 258.1168 318.05554 259.7478 296.61652C 261.3298 277.94354 262.91278 259.27054 264.4948 240.59753C 265.2818 231.30353 265.2558 207.67853 271.81378 202.34052C 285.4798 188.51654 297.4938 175.56354 311.1598 161.7395C 314.1308 158.3645 320.9148 158.38055 327.3448 159.19153C 384.13177 161.94055 440.4918 164.79254 497.2788 167.5415C 503.7968 167.3565 507.8448 168.86053 508.7658 173.8305C 515.91284 229.36053 523.3108 284.86053 530.4588 340.39154C 538.0768 410.60852 545.6958 480.82654 553.3148 551.04456C 556.5348 584.9755 559.1658 619.14154 562.38684 653.0725C 562.8978 655.8245 563.4848 659.4315 562.7398 664.85455C 539.3338 671.7655 515.9278 678.67755 492.5218 685.58954C 482.8118 688.37054 472.5438 690.27155 460.9478 690.0665L460.9478 690.0665L253.8288 690.0665z" stroke="#ffffff" stroke-width="7" stroke-linejoin="miter" fill="none"/>
                <path id="8" transform="matrix(1 0 0 -1 0 1000)" d="M259.1544 681.4148L469.36237 681.4148L469.36237 681.4148L539.89343 661.6028L539.89343 661.6028L313.6384 661.6028z" stroke="none" fill="none" fill-rule="evenodd"/>
                <path id="9" transform="matrix(1 0 0 -1 0 1000)" d="M259.1544 681.4148L469.36237 681.4148L469.36237 681.4148L539.89343 661.6028L539.89343 661.6028L313.6384 661.6028L313.6384 661.6028L259.1544 681.4148z" stroke="#ffffff" stroke-width="7" stroke-linejoin="miter" fill="none"/>
                <path id="10" transform="matrix(1 0 0 -1 0 1000)" d="M313.6381 661.6027L315.7261 178.53171C 315.7261 178.53171 314.7771 164.29272 318.5741 158.59772" stroke="#ffffff" stroke-width="7" stroke-linejoin="miter" fill="none" fill-rule="evenodd"/>
                <path id="11" transform="matrix(1 0 0 -1 0 1000)" d="M499.0433 831.7231C 495.5183 830.7831 492.9823 830.3131 492.0033 826.2131C 489.1853 789.9471 490.4713 754.0921 492.6933 718.3301C 499.12732 637.7901 505.5613 557.2511 511.9953 476.7121C 520.26733 405.24908 528.5393 333.78607 536.8123 262.32306C 538.9153 238.38611 540.5813 217.71307 563.3523 205.79608C 593.2543 192.67706 629.1033 186.21906 671.5803 187.18408C 699.7913 188.1181 750.2923 194.71509 770.8073 216.22308C 775.2403 220.86908 778.1903 229.04608 780.0593 240.2641C 788.5613 299.0891 797.15735 357.9131 805.6593 416.7381C 812.4383 476.7121 819.2163 536.68506 825.9953 596.65906C 834.59827 671.2131 839.3933 748.3041 838.94226 828.8941C 839.41626 831.7541 837.0573 833.86206 828.2853 834.2701C 803.3843 836.4181 777.8003 837.3711 751.89233 837.7591C 720.5503 837.7281 689.2073 837.6961 657.8643 837.6651C 621.5223 836.9101 585.1813 836.15607 548.8393 835.40106C 532.14233 835.1611 515.4883 834.4841 499.0433 831.7231z" stroke="#ffffff" stroke-width="7" stroke-linejoin="miter" fill="none"/>
                <path id="12" transform="matrix(1 0 0 -1 0 1000)" d="M664.8459 835.5633C 748.0349 835.9163 815.4729 833.6003 815.4729 830.38727C 815.4729 827.1753 748.0349 824.2873 664.8459 823.9353C 581.65686 823.5823 514.2189 825.8983 514.2189 829.1103C 514.2189 832.3233 581.65686 835.21027 664.8459 835.5633z" stroke="#ffffff" stroke-width="7" stroke-linejoin="miter" fill="none"/>
            </g>
        </g>
    </g>
</svg>