<svg style="position:absolute; width:83.3333em; height:83.3333em;" xmlns="http://www.w3.org/2000/svg" xmlns:xlink="http://www.w3.org/1999/xlink" version="1.1" id="body_1" preserveAspectRatio="xMinYMin meet" viewBox="0 0 1333 1333"><defs><clipPath id="1"><path id="" clip-rule="evenodd" transform="matrix(1 0 0 1 0 0)" d="M0 1000L0 0L0 0L1000 0L1000 0L1000 1000L1000 1000L0 1000z"></path></clipPath><clipPath id="2"><path id="" clip-rule="evenodd" transform="matrix(1 0 0 1 0 0)" d="M0 0L1000 0L1000 0L1000 1000L1000 1000L0 1000z"></path></clipPath></defs><g transform="matrix(1.3333334 0 0 1.3333334 0 0)"><g clip-path="url(#1)"><path id="1" transform="matrix(1 0 0 -1 0 1000)" d="M0 0L998.5 0L998.5 1000L0 1000z" stroke="none" fill="#A2AD9D" fill-rule="nonzero"></path><path id="2" transform="matrix(1 0 0 -1 0 1000)" d="M268.3535 853.6864L274.1525 853.6864L481.44946 853.6864L554.6555 287.60638L377.0755 242.66742L162.53049 290.50537z" stroke="none" fill="#FFFFFF" fill-rule="nonzero"></path><path id="3" transform="matrix(1 0 0 -1 0 1000)" d="M268.3535 853.6864L274.1525 853.6864L274.1525 853.6864L481.44946 853.6864L481.44946 853.6864L554.6555 287.60638L554.6555 287.60638L377.0755 242.66742L377.0755 242.66742L162.53049 290.50537L162.53049 290.50537L268.3535 853.6864z" stroke="#A1AC9D" stroke-width="7" stroke-linejoin="miter" fill="none"></path><path id="4" transform="matrix(1 0 0 -1 0 1000)" d="M268.8209 853.309L377.4469 245.64099L377.4469 245.64099L481.4489 853.68604" stroke="#A1AC9D" stroke-width="7" stroke-linejoin="miter" fill="#FFFFFF" fill-rule="nonzero"></path><g clip-path="url(#2)"><path id="5" transform="matrix(1 0 0 -1 0 1000)" d="M458.7019 531.0624C 456.3439 530.2434 455.2019 528.8334 454.75992 527.0834C 452.8349 512.21436 451.3539 497.28137 448.9859 482.4774C 442.0389 439.05438 440.5219 386.81738 439.3799 341.64438C 440.3939 281.9964 447.5079 231.90738 454.4079 181.48239C 455.1569 176.19739 457.7439 174.63037 461.2049 174.83337C 461.7949 170.16238 462.99692 166.55539 466.3939 166.7714C 482.0849 166.56638 497.7759 166.36139 513.4669 166.15637C 575.1109 166.13538 636.7559 166.11539 698.3999 166.09439C 701.0839 166.21136 703.7679 166.3274 706.4519 166.44437C 711.42993 165.48938 713.1979 168.73837 713.77893 173.54138C 717.4099 173.20438 718.90686 174.87338 719.11487 178.57037C 723.4889 209.84439 728.3179 241.0904 732.6919 272.36438C 738.0399 314.44937 736.1529 353.79138 735.8939 393.75037C 733.9729 432.45337 729.93494 470.60138 725.91394 508.75436C 725.1469 514.4734 724.1339 520.3354 723.36694 526.0544C 723.13086 530.19635 718.58887 531.3404 715.45886 533.0104C 712.38293 534.6504 709.3069 536.2914 706.23193 537.9314C 701.8769 538.8294 697.4969 538.86035 693.0799 537.5914C 678.05994 530.94037 662.6909 524.80035 646.43787 519.95636C 619.8019 512.63837 595.9109 510.78036 573.6179 512.10236C 557.3369 513.06836 534.3639 520.0364 518.85693 525.23236C 507.7449 529.0824 497.2859 533.7104 487.1999 538.78436C 483.3179 540.42535 479.30692 540.56335 475.11792 538.6504C 469.6459 536.12036 464.1739 533.5914 458.7019 531.0624" stroke="none" fill="#FFFFFF" fill-rule="evenodd"></path><path id="6" transform="matrix(1 0 0 -1 0 1000)" d="M458.7019 531.0624C 456.3439 530.2434 455.2019 528.8334 454.75992 527.0834C 452.8349 512.21436 451.3539 497.28137 448.9859 482.4774C 442.0389 439.05438 440.5219 386.81738 439.3799 341.64438C 440.3939 281.9964 447.5079 231.90738 454.4079 181.48239C 455.1569 176.19739 457.7439 174.63037 461.2049 174.83337C 461.7949 170.16238 462.99692 166.55539 466.3939 166.7714C 482.0849 166.56638 497.7759 166.36139 513.4669 166.15637C 575.1109 166.13538 636.7559 166.11539 698.3999 166.09439C 701.0839 166.21136 703.7679 166.3274 706.4519 166.44437C 711.42993 165.48938 713.1979 168.73837 713.77893 173.54138C 717.4099 173.20438 718.90686 174.87338 719.11487 178.57037C 723.4889 209.84439 728.3179 241.0904 732.6919 272.36438C 738.0399 314.44937 736.1529 353.79138 735.8939 393.75037C 733.9729 432.45337 729.93494 470.60138 725.91394 508.75436C 725.1469 514.4734 724.1339 520.3354 723.36694 526.0544C 723.13086 530.19635 718.58887 531.3404 715.45886 533.0104C 712.38293 534.6504 709.3069 536.2914 706.23193 537.9314C 701.8769 538.8294 697.4969 538.86035 693.0799 537.5914C 678.05994 530.94037 662.6909 524.80035 646.43787 519.95636C 619.8019 512.63837 595.9109 510.78036 573.6179 512.10236C 557.3369 513.06836 534.3639 520.0364 518.85693 525.23236C 507.7449 529.0824 497.2859 533.7104 487.1999 538.78436C 483.3179 540.42535 479.30692 540.56335 475.11792 538.6504C 469.6459 536.12036 464.1739 533.5914 458.7019 531.0624z" stroke="#A1AC9D" stroke-width="7" stroke-linejoin="miter" fill="none"></path><path id="7" transform="matrix(1 0 0 -1 0 1000)" d="M472.5566 531.6226C 476.5676 533.5866 480.5006 535.70764 484.4726 537.7506C 485.1306 538.0886 484.94562 538.12164 485.6046 537.8106C 486.1866 537.5366 486.7706 537.26263 487.35562 536.99164C 500.3186 530.97064 513.7846 525.6916 527.5936 520.9226C 540.82263 516.35364 555.8136 513.1096 569.6206 511.15662C 583.0966 509.24963 598.28064 510.24863 609.83264 511.5776C 622.3186 513.0136 632.1746 515.18463 644.3696 518.0886C 659.9086 521.78864 673.0606 527.8596 687.8526 533.83765C 690.2736 534.8156 694.4076 537.3836 696.5416 537.0346C 700.1776 534.9506 703.8146 532.8656 707.4516 530.7816C 708.2636 530.0866 707.9746 529.37964 706.2976 528.6576C 701.43463 526.36365 696.5716 524.0706 691.7086 521.77765C 679.1626 515.86163 660.96063 509.43362 647.71063 506.75363C 635.43164 504.27063 623.10364 502.26962 610.3916 501.86163C 590.5956 501.22562 575.0676 501.05963 555.2476 504.04263C 545.8676 505.96063 536.4496 508.1866 526.9506 511.0776C 505.36862 517.1026 491.19562 524.16064 473.1036 530.68164C 471.8056 531.1486 471.7226 531.2146 472.5566 531.6226" stroke="none" fill="#FFFFFF" fill-rule="evenodd"></path><path id="8" transform="matrix(1 0 0 -1 0 1000)" d="M472.5566 531.6226C 476.5676 533.5866 480.5006 535.70764 484.4726 537.7506C 485.1306 538.0886 484.94562 538.12164 485.6046 537.8106C 486.1866 537.5366 486.7706 537.26263 487.35562 536.99164C 500.3186 530.97064 513.7846 525.6916 527.5936 520.9226C 540.82263 516.35364 555.8136 513.1096 569.6206 511.15662C 583.0966 509.24963 598.28064 510.24863 609.83264 511.5776C 622.3186 513.0136 632.1746 515.18463 644.3696 518.0886C 659.9086 521.78864 673.0606 527.8596 687.8526 533.83765C 690.2736 534.8156 694.4076 537.3836 696.5416 537.0346C 700.1776 534.9506 703.8146 532.8656 707.4516 530.7816C 708.2636 530.0866 707.9746 529.37964 706.2976 528.6576C 701.43463 526.36365 696.5716 524.0706 691.7086 521.77765C 679.1626 515.86163 660.96063 509.43362 647.71063 506.75363C 635.43164 504.27063 623.10364 502.26962 610.3916 501.86163C 590.5956 501.22562 575.0676 501.05963 555.2476 504.04263C 545.8676 505.96063 536.4496 508.1866 526.9506 511.0776C 505.36862 517.1026 491.19562 524.16064 473.1036 530.68164C 471.8056 531.1486 471.7226 531.2146 472.5566 531.6226z" stroke="#A1AC9D" stroke-width="7" stroke-linejoin="miter" fill="none"></path><path id="9" transform="matrix(1 0 0 -1 0 1000)" d="M619.0735 829.2519L582.2105 405.32788L611.0865 381.36688L659.6225 375.22388L789.87146 381.36688L799.0875 399.1839L820.59045 536.1919L805.84546 823.7229L784.9565 831.0949L718.6035 835.3959L643.6485 835.3959z" stroke="none" fill="#FFFFFF" fill-rule="nonzero"></path><path id="10" transform="matrix(1 0 0 -1 0 1000)" d="M619.0735 829.2519L582.2105 405.32788L582.2105 405.32788L611.0865 381.36688L611.0865 381.36688L659.6225 375.22388L659.6225 375.22388L789.87146 381.36688L789.87146 381.36688L799.0875 399.1839L799.0875 399.1839L820.59045 536.1919L820.59045 536.1919L805.84546 823.7229L805.84546 823.7229L784.9565 831.0949L784.9565 831.0949L718.6035 835.3959L718.6035 835.3959L643.6485 835.3959L643.6485 835.3959L619.0735 829.2519z" stroke="#A1AC9D" stroke-width="7" stroke-linejoin="miter" fill="none"></path><path id="11" transform="matrix(1 0 0 -1 0 1000)" d="M643.9181 835.5005L622.3041 507.9185L622.3041 507.9185L610.8221 381.6135" stroke="#A1AC9D" stroke-width="7" stroke-linejoin="miter" fill="#FFFFFF" fill-rule="nonzero"></path><path id="12" transform="matrix(1 0 0 -1 0 1000)" d="M659.7906 375.1967L706.3946 519.7387L706.3946 519.7387L718.5526 835.1627" stroke="#A1AC9D" stroke-width="7" stroke-linejoin="miter" fill="#FFFFFF" fill-rule="nonzero"></path><path id="13" transform="matrix(1 0 0 -1 0 1000)" d="M706.3951 519.7382L798.25305 438.01123L798.25305 438.01123L790.1481 381.2752" stroke="#A1AC9D" stroke-width="7" stroke-linejoin="miter" fill="#FFFFFF" fill-rule="nonzero"></path><path id="14" transform="matrix(1 0 0 -1 0 1000)" d="M798.2533 438.0114L821.0003 534.6204" stroke="#A1AC9D" stroke-width="7" stroke-linejoin="miter" fill="#FFFFFF" fill-rule="nonzero"></path><path id="15" transform="matrix(1 0 0 -1 0 1000)" d="M458.7019 531.0624C 456.3439 530.2434 455.2019 528.8334 454.75992 527.0834C 452.8349 512.21436 451.3539 497.28137 448.9859 482.4774C 442.0389 439.05438 440.5219 386.81738 439.3799 341.64438C 440.3939 281.9964 447.5079 231.90738 454.4079 181.48239C 455.1569 176.19739 457.7439 174.63037 461.2049 174.83337C 461.7949 170.16238 462.99692 166.55539 466.3939 166.7714C 482.0849 166.56638 497.7759 166.36139 513.4669 166.15637C 575.1109 166.13538 636.7559 166.11539 698.3999 166.09439C 701.0839 166.21136 703.7679 166.3274 706.4519 166.44437C 711.42993 165.48938 713.1979 168.73837 713.77893 173.54138C 717.4099 173.20438 718.90686 174.87338 719.11487 178.57037C 723.4889 209.84439 728.3179 241.0904 732.6919 272.36438C 738.0399 314.44937 736.1529 353.79138 735.8939 393.75037C 733.9729 432.45337 729.93494 470.60138 725.91394 508.75436C 725.1469 514.4734 724.1339 520.3354 723.36694 526.0544C 723.13086 530.19635 718.58887 531.3404 715.45886 533.0104C 712.38293 534.6504 709.3069 536.2914 706.23193 537.9314C 701.8769 538.8294 697.4969 538.86035 693.0799 537.5914C 678.05994 530.94037 662.6909 524.80035 646.43787 519.95636C 619.8019 512.63837 595.9109 510.78036 573.6179 512.10236C 557.3369 513.06836 534.3639 520.0364 518.85693 525.23236C 507.7449 529.0824 497.2859 533.7104 487.1999 538.78436C 483.3179 540.42535 479.30692 540.56335 475.11792 538.6504C 469.6459 536.12036 464.1739 533.5914 458.7019 531.0624z" stroke="#A1AC9D" stroke-width="7" stroke-linejoin="miter" fill="none"></path><path id="16" transform="matrix(1 0 0 -1 0 1000)" d="M472.5566 531.6226C 476.5676 533.5866 480.5006 535.70764 484.4726 537.7506C 485.1306 538.0886 484.94562 538.12164 485.6046 537.8106C 486.1866 537.5366 486.7706 537.26263 487.35562 536.99164C 500.3186 530.97064 513.7846 525.6916 527.5936 520.9226C 540.82263 516.35364 555.8136 513.1096 569.6206 511.15662C 583.0966 509.24963 598.28064 510.24863 609.83264 511.5776C 622.3186 513.0136 632.1746 515.18463 644.3696 518.0886C 659.9086 521.78864 673.0606 527.8596 687.8526 533.83765C 690.2736 534.8156 694.4076 537.3836 696.5416 537.0346C 700.1776 534.9506 703.8146 532.8656 707.4516 530.7816C 708.2636 530.0866 707.9746 529.37964 706.2976 528.6576C 701.43463 526.36365 696.5716 524.0706 691.7086 521.77765C 679.1626 515.86163 660.96063 509.43362 647.71063 506.75363C 635.43164 504.27063 623.10364 502.26962 610.3916 501.86163C 590.5956 501.22562 575.0676 501.05963 555.2476 504.04263C 545.8676 505.96063 536.4496 508.1866 526.9506 511.0776C 505.36862 517.1026 491.19562 524.16064 473.1036 530.68164C 471.8056 531.1486 471.7226 531.2146 472.5566 531.6226z" stroke="#A1AC9D" stroke-width="7" stroke-linejoin="miter" fill="none"></path><path id="17" transform="matrix(1 0 0 -1 0 1000)" d="M268.3535 853.6864L274.1525 853.6864L274.1525 853.6864L481.44946 853.6864L481.44946 853.6864L554.6555 287.60638L554.6555 287.60638L377.0755 242.66742L377.0755 242.66742L162.53049 290.50537L162.53049 290.50537L268.3535 853.6864z" stroke="#A1AC9D" stroke-width="7" stroke-linejoin="miter" fill="none"></path><path id="18" transform="matrix(1 0 0 -1 0 1000)" d="M268.8209 853.309L377.4469 245.64099L377.4469 245.64099L481.4489 853.68604" stroke="#A1AC9D" stroke-width="7" stroke-linejoin="miter" fill="none"></path></g></g></g></svg>