<svg style="position:absolute; width:83.3333em; height:83.3333em;" xmlns="http://www.w3.org/2000/svg"
    xmlns:xlink="http://www.w3.org/1999/xlink" version="1.1" id="body_1" preserveAspectRatio="xMinYMin meet"
    viewBox="0 0 1333 1333">
    <defs>
        <clipPath id="1">
            <path id="" clip-rule="evenodd" transform="matrix(1 0 0 1 0 0)"
                d="M0 1000L0 0L0 0L1000 0L1000 0L1000 1000L1000 1000L0 1000z"></path>
        </clipPath>
        <clipPath id="2">
            <path id="" clip-rule="evenodd" transform="matrix(1 0 0 1 0 0)"
                d="M0 0L1000 0L1000 0L1000 1000L1000 1000L0 1000z"></path>
        </clipPath>
    </defs>
    <g transform="matrix(1.3333333 0 0 1.3333334 0 0)">
        <g clip-path="url(#1)">
            <path id="1" transform="matrix(1 0 0 -1 0 1000)" d="M0 0L998 0L998 1000L0 1000z" stroke="none"
                fill="none" fill-rule="nonzero"></path>
            <g clip-path="url(#2)">
                <path id="2" transform="matrix(1 0 0 -1 0 1000)"
                    d="M463.8184 803.8055C 463.8184 803.8055 715.5494 812.5785 755.9134 742.3965C 786.0044 690.9295 760.3174 620.7475 719.9524 556.4145C 679.5874 492.08148 632.6174 454.65048 613.5354 450.5565C 594.4544 446.4625 476.2944 421.31448 354.4664 449.97247C 324.3754 462.83847 212.8214 537.1145 190.0704 689.1755C 190.0704 689.1755 162.1824 797.9565 463.8184 803.8055"
                    stroke="none" fill="none" fill-rule="nonzero"></path>
                <path id="3" transform="matrix(1 0 0 -1 0 1000)"
                    d="M463.8184 803.8055C 463.8184 803.8055 715.5494 812.5785 755.9134 742.3965C 786.0044 690.9295 760.3174 620.7475 719.9524 556.4145C 679.5874 492.08148 632.6174 454.65048 613.5354 450.5565C 594.4544 446.4625 476.2944 421.31448 354.4664 449.97247C 324.3754 462.83847 212.8214 537.1145 190.0704 689.1755C 190.0704 689.1755 162.1824 797.9565 463.8184 803.8055z"
                    stroke="#d9d4c5" stroke-width="7" stroke-linejoin="miter" fill="none"></path>
                <path id="4" transform="matrix(1 0 0 -1 0 1000)"
                    d="M690.5961 761.4852C 690.5961 743.6032 596.62213 729.10724 480.69812 729.10724C 364.77512 729.10724 270.80014 743.6032 270.80014 761.4852C 270.80014 779.36725 364.77512 793.8632 480.69812 793.8632C 596.62213 793.8632 690.5961 779.36725 690.5961 761.4852"
                    stroke="none" fill="none" fill-rule="nonzero"></path>
                <path id="5" transform="matrix(1 0 0 -1 0 1000)"
                    d="M690.5961 761.4852C 690.5961 743.6032 596.62213 729.10724 480.69812 729.10724C 364.77512 729.10724 270.80014 743.6032 270.80014 761.4852C 270.80014 779.36725 364.77512 793.8632 480.69812 793.8632C 596.62213 793.8632 690.5961 779.36725 690.5961 761.4852z"
                    stroke="#d9d4c5" stroke-width="7" stroke-linejoin="miter" fill="none"></path>
                <path id="6" transform="matrix(1 0 0 -1 0 1000)"
                    d="M575.7999 288.1049C 575.7999 288.1049 580.8289 254.91489 681.40393 254.91489C 781.9799 254.91489 804.2689 276.88388 804.1879 282.4949"
                    stroke="#d9d4c5" stroke-width="7" stroke-linejoin="miter" fill="none" fill-rule="nonzero"></path>
                <path id="7" transform="matrix(1 0 0 -1 0 1000)"
                    d="M458.1266 516.4111C 458.1266 516.4111 452.09158 368.56506 590.8866 281.06506C 705.54156 253.90906 797.06555 276.03607 813.1576 287.09906C 832.2676 298.16208 933.8486 379.62805 928.8196 516.4111"
                    stroke="#d9d4c5" stroke-width="7" stroke-linejoin="miter" fill="none" fill-rule="nonzero"></path>
                <path id="8" transform="matrix(1 0 0 -1 0 1000)"
                    d="M928.3167 516.914C 928.3167 503.583 822.9487 492.776 692.9707 492.776C 562.9917 492.776 457.62372 503.583 457.62372 516.914C 457.62372 530.245 562.9917 541.052 692.9707 541.052C 822.9487 541.052 928.3167 530.245 928.3167 516.914"
                    stroke="none" fill="none" fill-rule="nonzero"></path>
                <path id="9" transform="matrix(1 0 0 -1 0 1000)"
                    d="M928.3167 516.914C 928.3167 503.583 822.9487 492.776 692.9707 492.776C 562.9917 492.776 457.62372 503.583 457.62372 516.914C 457.62372 530.245 562.9917 541.052 692.9707 541.052C 822.9487 541.052 928.3167 530.245 928.3167 516.914z"
                    stroke="#d9d4c5" stroke-width="7" stroke-linejoin="miter" fill="none"></path>
                <path id="10" transform="matrix(1 0 0 -1 0 1000)"
                    d="M912.2246 516.914C 912.2246 504.494 814.0606 494.426 692.9706 494.426C 571.87964 494.426 473.7156 504.494 473.7156 516.914C 473.7156 529.334 571.87964 539.402 692.9706 539.402C 814.0606 539.402 912.2246 529.334 912.2246 516.914"
                    stroke="none" fill="none" fill-rule="nonzero"></path>
                <path id="11" transform="matrix(1 0 0 -1 0 1000)"
                    d="M912.2246 516.914C 912.2246 504.494 814.0606 494.426 692.9706 494.426C 571.87964 494.426 473.7156 504.494 473.7156 516.914C 473.7156 529.334 571.87964 539.402 692.9706 539.402C 814.0606 539.402 912.2246 529.334 912.2246 516.914z"
                    stroke="#d9d4c5" stroke-width="7" stroke-linejoin="miter" fill="none"></path>
                <path id="12" transform="matrix(1 0 0 -1 0 1000)"
                    d="M213.2038 424.6673C 213.2038 424.6673 131.9638 376.5253 143.99979 277.2323C 156.03479 177.94029 237.2748 144.84229 285.4168 144.84229L285.4168 144.84229L384.70978 144.84229C 384.70978 144.84229 511.0818 150.86029 517.0998 295.28632C 505.06378 400.5963 447.8958 424.6673 429.8428 424.6673"
                    stroke="#d9d4c5" stroke-width="7" stroke-linejoin="miter" fill="none" fill-rule="nonzero"></path>
                <path id="13" transform="matrix(1 0 0 -1 0 1000)"
                    d="M429.8425 424.6673C 429.8425 429.65228 381.3465 433.6943 321.5235 433.6943C 261.7005 433.6943 213.20349 429.65228 213.20349 424.6673C 213.20349 419.6823 261.7005 415.6403 321.5235 415.6403C 381.3465 415.6403 429.8425 419.6823 429.8425 424.6673"
                    stroke="none" fill="none" fill-rule="nonzero"></path>
                <path id="14" transform="matrix(1 0 0 -1 0 1000)"
                    d="M429.8425 424.6673C 429.8425 429.65228 381.3465 433.6943 321.5235 433.6943C 261.7005 433.6943 213.20349 429.65228 213.20349 424.6673C 213.20349 419.6823 261.7005 415.6403 321.5235 415.6403C 381.3465 415.6403 429.8425 419.6823 429.8425 424.6673z"
                    stroke="#d9d4c5" stroke-width="7" stroke-linejoin="miter" fill="none"></path>
                <path id="15" transform="matrix(1 0 0 -1 0 1000)"
                    d="M463.8184 803.8055C 463.8184 803.8055 715.5494 812.5785 755.9134 742.3965C 786.0044 690.9295 760.3174 620.7475 719.9524 556.4145C 679.5874 492.08148 632.6174 454.65048 613.5354 450.5565C 594.4544 446.4625 476.2944 421.31448 354.4664 449.97247C 324.3754 462.83847 212.8214 537.1145 190.0704 689.1755C 190.0704 689.1755 162.1824 797.9565 463.8184 803.8055z"
                    stroke="#d9d4c5" stroke-width="7" stroke-linejoin="miter" fill="none"></path>
                <path id="16" transform="matrix(1 0 0 -1 0 1000)"
                    d="M690.5961 761.4852C 690.5961 743.6032 596.62213 729.10724 480.69812 729.10724C 364.77512 729.10724 270.80014 743.6032 270.80014 761.4852C 270.80014 779.36725 364.77512 793.8632 480.69812 793.8632C 596.62213 793.8632 690.5961 779.36725 690.5961 761.4852z"
                    stroke="#d9d4c5" stroke-width="7" stroke-linejoin="miter" fill="none"></path>
            </g>
        </g>
    </g>
</svg>